<!--?xml version="1.0" encoding="UTF-8" standalone="no"?-->

<!-- Generated by graphviz version 14.0.1 (20251006.0113)
 -->
<!-- Title: amr_graph Pages: 1 -->
<svg onmousedown="info(event);" width="635pt" height="653pt" viewBox="0.00 0.00 635.00 653.00" xmlns="http://www.w3.org/2000/svg" xmlns:xlink="http://www.w3.org/1999/xlink">
<g id="graph0" class="graph" transform="scale(1 1) rotate(0) translate(4 649)">
<title>amr_graph</title>
<polygon fill="white" stroke="none" points="-4,4 -4,-649 631.37,-649 631.37,4 -4,4"></polygon>
<!-- w -->
<g id="node#w#work-01" class="node">
<title>w</title>
<polygon fill="white" stroke="black" points="416.62,-645 333.87,-645 333.87,-609 416.62,-609 416.62,-645"></polygon>
<text xml:space="preserve" text-anchor="middle" x="375.25" y="-621.2" font-family="Lato Black" font-size="14.00">w/work-01</text>
</g>
<!-- f -->
<g id="node#f#field" class="node">
<title>f</title>
<polygon fill="white" stroke="black" points="355.25,-558 301.25,-558 301.25,-522 355.25,-522 355.25,-558"></polygon>
<text xml:space="preserve" text-anchor="middle" x="328.25" y="-534.2" font-family="Lato" font-size="14.00">f/field</text>
</g>
<!-- w&#45;&gt;f -->
<g id="edge#w#f#:ARG1" class="edge">
<title>w-&gt;f</title>
<path fill="none" stroke="#9164cd" d="M362.27,-608.59C358.43,-603.1 354.35,-596.91 351,-591 346.95,-583.87 343.05,-575.89 339.66,-568.43"></path>
<polygon fill="#9164cd" stroke="#9164cd" points="342.93,-567.17 335.71,-559.42 336.52,-569.99 342.93,-567.17"></polygon>
<text xml:space="preserve" text-anchor="middle" x="371.62" y="-577.7" font-family="Lato" font-size="14.00" fill="#9164cd">:ARG1</text>
</g>
<!-- d -->
<g id="node#d#describe-01" class="node">
<title>d</title>
<polygon fill="white" stroke="black" points="471.12,-558 373.37,-558 373.37,-522 471.12,-522 471.12,-558"></polygon>
<text xml:space="preserve" text-anchor="middle" x="422.25" y="-534.2" font-family="Lato" font-size="14.00">d/describe-01</text>
</g>
<!-- w&#45;&gt;d -->
<g id="edge#w#d#:ARG1-of" class="edge">
<title>w-&gt;d</title>
<path fill="none" stroke="#9164cd" d="M384.76,-608.8C391.15,-597.24 399.71,-581.75 407.04,-568.5"></path>
<polygon fill="#9164cd" stroke="#9164cd" points="410.08,-570.24 411.85,-559.79 403.95,-566.85 410.08,-570.24"></polygon>
<text xml:space="preserve" text-anchor="middle" x="430.06" y="-577.7" font-family="Lato" font-size="14.00" fill="#9164cd">:ARG1-of</text>
</g>
<!-- j -->
<g id="node#j#justice" class="node">
<title>j</title>
<polygon fill="white" stroke="black" points="358.75,-471 297.75,-471 297.75,-435 358.75,-435 358.75,-471"></polygon>
<text xml:space="preserve" text-anchor="middle" x="328.25" y="-447.2" font-family="Lato" font-size="14.00">j/justice</text>
</g>
<!-- f&#45;&gt;j -->
<g id="edge#f#j#:mod" class="edge">
<title>f-&gt;j</title>
<path fill="none" stroke="#ffb400" d="M328.25,-521.8C328.25,-510.58 328.25,-495.67 328.25,-482.69"></path>
<polygon fill="#ffb400" stroke="#ffb400" points="331.75,-482.98 328.25,-472.98 324.75,-482.98 331.75,-482.98"></polygon>
<text xml:space="preserve" text-anchor="middle" x="343.62" y="-490.7" font-family="Lato" font-size="14.00" fill="#ffb400">:mod</text>
</g>
<!-- p -->
<g id="node#p#publication" class="node">
<title>p</title>
<polygon fill="white" stroke="black" points="468.12,-471 376.37,-471 376.37,-435 468.12,-435 468.12,-471"></polygon>
<text xml:space="preserve" text-anchor="middle" x="422.25" y="-447.2" font-family="Lato" font-size="14.00">p/publication</text>
</g>
<!-- d&#45;&gt;p -->
<g id="edge#d#p#:ARG0" class="edge">
<title>d-&gt;p</title>
<path fill="none" stroke="#ff7900" d="M422.25,-521.8C422.25,-510.58 422.25,-495.67 422.25,-482.69"></path>
<polygon fill="#ff7900" stroke="#ff7900" points="425.75,-482.98 422.25,-472.98 418.75,-482.98 425.75,-482.98"></polygon>
<text xml:space="preserve" text-anchor="middle" x="442.87" y="-490.7" font-family="Lato" font-size="14.00" fill="#ff7900">:ARG0</text>
</g>
<!-- n -->
<g id="node#n#name" class="node">
<title>n</title>
<polygon fill="white" stroke="black" points="257.12,-384 195.37,-384 195.37,-348 257.12,-348 257.12,-384"></polygon>
<text xml:space="preserve" text-anchor="middle" x="226.25" y="-360.2" font-family="Lato" font-size="14.00">n/name</text>
</g>
<!-- p&#45;&gt;n -->
<g id="edge#p#n#:name" class="edge">
<title>p-&gt;n</title>
<path fill="none" stroke="#492191" d="M382.11,-434.59C348.76,-420.13 301.48,-399.63 267.76,-385"></path>
<polygon fill="#492191" stroke="#492191" points="269.27,-381.85 258.71,-381.08 266.49,-388.27 269.27,-381.85"></polygon>
<text xml:space="preserve" text-anchor="middle" x="355.11" y="-403.7" font-family="Lato" font-size="14.00" fill="#492191">:name</text>
</g>
<!-- u -->
<g id="node#u#use-01" class="node">
<title>u</title>
<polygon fill="white" stroke="black" points="456.5,-384 388,-384 388,-348 456.5,-348 456.5,-384"></polygon>
<text xml:space="preserve" text-anchor="middle" x="422.25" y="-360.2" font-family="Lato" font-size="14.00">u/use-01</text>
</g>
<!-- p&#45;&gt;u -->
<g id="edge#p#u#:topic" class="edge">
<title>p-&gt;u</title>
<path fill="none" stroke="black" d="M422.25,-434.8C422.25,-423.58 422.25,-408.67 422.25,-395.69"></path>
<polygon fill="black" stroke="black" points="425.75,-395.98 422.25,-385.98 418.75,-395.98 425.75,-395.98"></polygon>
<text xml:space="preserve" text-anchor="middle" x="438.37" y="-403.7" font-family="Lato" font-size="14.00">:topic</text>
</g>
<!-- d2 -->
<g id="node#d2#date-entity" class="node">
<title>d2</title>
<polygon fill="white" stroke="black" points="609.12,-384 511.37,-384 511.37,-348 609.12,-348 609.12,-384"></polygon>
<text xml:space="preserve" text-anchor="middle" x="560.25" y="-360.2" font-family="Lato" font-size="14.00">d2/date-entity</text>
</g>
<!-- p&#45;&gt;d2 -->
<g id="edge#p#d2#:time" class="edge">
<title>p-&gt;d2</title>
<path fill="none" stroke="#085ebd" d="M450.5,-434.59C471.25,-421.82 499.65,-404.32 522.36,-390.34"></path>
<polygon fill="#085ebd" stroke="#085ebd" points="524.06,-393.4 530.73,-385.18 520.38,-387.44 524.06,-393.4"></polygon>
<text xml:space="preserve" text-anchor="middle" x="514.51" y="-403.7" font-family="Lato" font-size="14.00" fill="#085ebd">:time</text>
</g>
<!-- n_0_DQUOTEEuropeanDQUOTE -->
<g id="literal#n#:op1#&quot;European&quot;" class="node">
<title>n_0_DQUOTEEuropeanDQUOTE</title>
<ellipse fill="#ffe5cc" stroke="#ffe5cc" cx="55.25" cy="-279" rx="55.25" ry="18"></ellipse>
<text xml:space="preserve" text-anchor="middle" x="55.25" y="-273.2" font-family="Lato" font-size="14.00" fill="#595959">"European"</text>
</g>
<!-- n&#45;&gt;n_0_DQUOTEEuropeanDQUOTE -->
<g id="edge#n#&quot;European&quot;#:op1" class="edge">
<title>n-&gt;n_0_DQUOTEEuropeanDQUOTE</title>
<path fill="none" stroke="#595959" d="M194.88,-349.41C166.76,-335.43 125.38,-314.86 94.96,-299.74"></path>
<polygon fill="#595959" stroke="#595959" points="96.56,-296.63 86.05,-295.31 93.45,-302.9 96.56,-296.63"></polygon>
<text xml:space="preserve" text-anchor="middle" x="164.11" y="-316.7" font-family="Lato" font-size="14.00" fill="#595959">:op1</text>
</g>
<!-- n_1_DQUOTEEthicalDQUOTE -->
<g id="literal#n#:op2#&quot;Ethical&quot;" class="node">
<title>n_1_DQUOTEEthicalDQUOTE</title>
<ellipse fill="#ffe5cc" stroke="#ffe5cc" cx="172.25" cy="-279" rx="43.55" ry="18"></ellipse>
<text xml:space="preserve" text-anchor="middle" x="172.25" y="-273.2" font-family="Lato" font-size="14.00" fill="#595959">"Ethical"</text>
</g>
<!-- n&#45;&gt;n_1_DQUOTEEthicalDQUOTE -->
<g id="edge#n#&quot;Ethical&quot;#:op2" class="edge">
<title>n-&gt;n_1_DQUOTEEthicalDQUOTE</title>
<path fill="none" stroke="#595959" d="M215.32,-347.8C207.8,-335.97 197.68,-320.03 189.13,-306.58"></path>
<polygon fill="#595959" stroke="#595959" points="192.1,-304.73 183.78,-298.16 186.19,-308.48 192.1,-304.73"></polygon>
<text xml:space="preserve" text-anchor="middle" x="215.6" y="-316.7" font-family="Lato" font-size="14.00" fill="#595959">:op2</text>
</g>
<!-- n_2_DQUOTECharterDQUOTE -->
<g id="literal#n#:op3#&quot;Charter&quot;" class="node">
<title>n_2_DQUOTECharterDQUOTE</title>
<ellipse fill="#ffe5cc" stroke="#ffe5cc" cx="280.25" cy="-279" rx="46.47" ry="18"></ellipse>
<text xml:space="preserve" text-anchor="middle" x="280.25" y="-273.2" font-family="Lato" font-size="14.00" fill="#595959">"Charter"</text>
</g>
<!-- n&#45;&gt;n_2_DQUOTECharterDQUOTE -->
<g id="edge#n#&quot;Charter&quot;#:op3" class="edge">
<title>n-&gt;n_2_DQUOTECharterDQUOTE</title>
<path fill="none" stroke="#595959" d="M237.17,-347.8C244.69,-335.97 254.81,-320.03 263.36,-306.58"></path>
<polygon fill="#595959" stroke="#595959" points="266.3,-308.48 268.71,-298.16 260.39,-304.73 266.3,-308.48"></polygon>
<text xml:space="preserve" text-anchor="middle" x="269.6" y="-316.7" font-family="Lato" font-size="14.00" fill="#595959">:op3</text>
</g>
<!-- ii -->
<g id="node#ii#intelligent-01" class="node">
<title>ii</title>
<polygon fill="white" stroke="black" points="447.37,-297 345.12,-297 345.12,-261 447.37,-261 447.37,-297"></polygon>
<text xml:space="preserve" text-anchor="middle" x="396.25" y="-273.2" font-family="Lato" font-size="14.00">ii/intelligent-01</text>
</g>
<!-- u&#45;&gt;ii -->
<g id="edge#u#ii#:ARG1" class="edge">
<title>u-&gt;ii</title>
<path fill="none" stroke="#9164cd" d="M416.98,-347.8C413.52,-336.47 408.9,-321.36 404.9,-308.29"></path>
<polygon fill="#9164cd" stroke="#9164cd" points="408.3,-307.45 402.03,-298.91 401.61,-309.5 408.3,-307.45"></polygon>
<text xml:space="preserve" text-anchor="middle" x="431.43" y="-316.7" font-family="Lato" font-size="14.00" fill="#9164cd">:ARG1</text>
</g>
<!-- a2 -->
<g id="node#a2#and" class="node">
<title>a2</title>
<polygon fill="white" stroke="black" points="522.87,-297 465.62,-297 465.62,-261 522.87,-261 522.87,-297"></polygon>
<text xml:space="preserve" text-anchor="middle" x="494.25" y="-273.2" font-family="Lato" font-size="14.00">a2/and</text>
</g>
<!-- u&#45;&gt;a2 -->
<g id="edge#u#a2#:ARG2" class="edge">
<title>u-&gt;a2</title>
<path fill="none" stroke="#4bb4e6" d="M439.02,-347.85C444.33,-342.26 450.13,-335.96 455.25,-330 461.67,-322.52 468.37,-314.15 474.37,-306.43"></path>
<polygon fill="#4bb4e6" stroke="#4bb4e6" points="477.04,-308.7 480.35,-298.64 471.49,-304.44 477.04,-308.7"></polygon>
<text xml:space="preserve" text-anchor="middle" x="488.07" y="-316.7" font-family="Lato" font-size="14.00" fill="#4bb4e6">:ARG2</text>
</g>
<!-- d2_3_2018 -->
<g id="literal#d2#:year#2018" class="node">
<title>d2_3_2018</title>
<ellipse fill="#ffe5cc" stroke="#ffe5cc" cx="571.25" cy="-279" rx="29.9" ry="18"></ellipse>
<text xml:space="preserve" text-anchor="middle" x="571.25" y="-273.2" font-family="Lato" font-size="14.00">2018</text>
</g>
<!-- d2&#45;&gt;d2_3_2018 -->
<g id="edge#d2#2018#:year" class="edge">
<title>d2-&gt;d2_3_2018</title>
<path fill="none" stroke="black" d="M562.47,-347.8C563.93,-336.51 565.88,-321.47 567.57,-308.43"></path>
<polygon fill="black" stroke="black" points="571.02,-309.04 568.83,-298.68 564.07,-308.14 571.02,-309.04"></polygon>
<text xml:space="preserve" text-anchor="middle" x="581.4" y="-316.7" font-family="Lato" font-size="14.00">:year</text>
</g>
<!-- a -->
<g id="node#a#artificial" class="node">
<title>a</title>
<polygon fill="white" stroke="black" points="432.75,-210 359.75,-210 359.75,-174 432.75,-174 432.75,-210"></polygon>
<text xml:space="preserve" text-anchor="middle" x="396.25" y="-186.2" font-family="Lato" font-size="14.00">a/artificial</text>
</g>
<!-- ii&#45;&gt;a -->
<g id="edge#ii#a#:mod" class="edge">
<title>ii-&gt;a</title>
<path fill="none" stroke="#ffb400" d="M396.25,-260.8C396.25,-249.58 396.25,-234.67 396.25,-221.69"></path>
<polygon fill="#ffb400" stroke="#ffb400" points="399.75,-221.98 396.25,-211.98 392.75,-221.98 399.75,-221.98"></polygon>
<text xml:space="preserve" text-anchor="middle" x="411.62" y="-229.7" font-family="Lato" font-size="14.00" fill="#ffb400">:mod</text>
</g>
<!-- s -->
<g id="node#s#system" class="node">
<title>s</title>
<polygon fill="white" stroke="black" points="532.25,-123 462.25,-123 462.25,-87 532.25,-87 532.25,-123"></polygon>
<text xml:space="preserve" text-anchor="middle" x="497.25" y="-99.2" font-family="Lato" font-size="14.00">s/system</text>
</g>
<!-- a2&#45;&gt;s -->
<g id="edge#a2#s#:op1" class="edge">
<title>a2-&gt;s</title>
<path fill="none" stroke="#595959" d="M492.54,-260.7C490.75,-240.05 488.37,-204.5 490,-174 490.69,-161.02 492.11,-146.7 493.52,-134.57"></path>
<polygon fill="#595959" stroke="#595959" points="496.97,-135.14 494.71,-124.79 490.02,-134.29 496.97,-135.14"></polygon>
<text xml:space="preserve" text-anchor="middle" x="503.12" y="-186.2" font-family="Lato" font-size="14.00" fill="#595959">:op1</text>
</g>
<!-- e -->
<g id="node#e#environment" class="node">
<title>e</title>
<polygon fill="white" stroke="black" points="627.37,-210 525.12,-210 525.12,-174 627.37,-174 627.37,-210"></polygon>
<text xml:space="preserve" text-anchor="middle" x="576.25" y="-186.2" font-family="Lato" font-size="14.00">e/environment</text>
</g>
<!-- a2&#45;&gt;e -->
<g id="edge#a2#e#:op2" class="edge">
<title>a2-&gt;e</title>
<path fill="none" stroke="#595959" d="M510.84,-260.8C522.54,-248.67 538.42,-232.21 551.6,-218.55"></path>
<polygon fill="#595959" stroke="#595959" points="553.92,-221.18 558.34,-211.56 548.88,-216.32 553.92,-221.18"></polygon>
<text xml:space="preserve" text-anchor="middle" x="553.28" y="-229.7" font-family="Lato" font-size="14.00" fill="#595959">:op2</text>
</g>
<!-- j2 -->
<g id="node#j2#judiciary" class="node">
<title>j2</title>
<polygon fill="white" stroke="black" points="537.12,-36 457.37,-36 457.37,0 537.12,0 537.12,-36"></polygon>
<text xml:space="preserve" text-anchor="middle" x="497.25" y="-12.2" font-family="Lato" font-size="14.00">j2/judiciary</text>
</g>
<!-- s&#45;&gt;j2 -->
<g id="edge#s#j2#:mod" class="edge">
<title>s-&gt;j2</title>
<path fill="none" stroke="#ffb400" d="M497.25,-86.8C497.25,-75.58 497.25,-60.67 497.25,-47.69"></path>
<polygon fill="#ffb400" stroke="#ffb400" points="500.75,-47.98 497.25,-37.98 493.75,-47.98 500.75,-47.98"></polygon>
<text xml:space="preserve" text-anchor="middle" x="512.62" y="-55.7" font-family="Lato" font-size="14.00" fill="#ffb400">:mod</text>
</g>
<!-- e&#45;&gt;s -->
<g id="edge#e#s#:poss" class="edge">
<title>e-&gt;s</title>
<path fill="none" stroke="black" d="M560.26,-173.8C548.98,-161.67 533.69,-145.21 520.99,-131.55"></path>
<polygon fill="black" stroke="black" points="523.88,-129.52 514.51,-124.58 518.75,-134.28 523.88,-129.52"></polygon>
<text xml:space="preserve" text-anchor="middle" x="557.6" y="-142.7" font-family="Lato" font-size="14.00">:poss</text>
</g>
</g>
</svg>
