<!--?xml version="1.0" encoding="UTF-8" standalone="no"?-->

<!-- Generated by graphviz version 14.0.1 (20251006.0113)
 -->
<!-- Title: amr_graph Pages: 1 -->
<svg onmousedown="info(event);" width="351pt" height="392pt" viewBox="0.00 0.00 351.00 392.00" xmlns="http://www.w3.org/2000/svg" xmlns:xlink="http://www.w3.org/1999/xlink">
<g id="graph0" class="graph" transform="scale(1 1) rotate(0) translate(4 388)">
<title>amr_graph</title>
<polygon fill="white" stroke="none" points="-4,4 -4,-388 346.62,-388 346.62,4 -4,4"></polygon>
<!-- a2 -->
<g id="node#a2#access-01" class="node">
<title>a2</title>
<polygon fill="white" stroke="black" points="206.12,-384 106.88,-384 106.88,-348 206.12,-348 206.12,-384"></polygon>
<text xml:space="preserve" text-anchor="middle" x="156.5" y="-360.2" font-family="Lato Black" font-size="14.00">a2/access-01</text>
</g>
<!-- a3 -->
<g id="node#a3#and" class="node">
<title>a3</title>
<polygon fill="white" stroke="black" points="137.12,-297 79.88,-297 79.88,-261 137.12,-261 137.12,-297"></polygon>
<text xml:space="preserve" text-anchor="middle" x="108.5" y="-273.2" font-family="Lato" font-size="14.00">a3/and</text>
</g>
<!-- a2&#45;&gt;a3 -->
<g id="edge#a2#a3#:ARG1" class="edge">
<title>a2-&gt;a3</title>
<path fill="none" stroke="#9164cd" d="M144.47,-347.83C140.72,-342.24 136.68,-335.94 133.25,-330 129.15,-322.9 125.06,-315.02 121.42,-307.67"></path>
<polygon fill="#9164cd" stroke="#9164cd" points="124.62,-306.24 117.11,-298.77 118.32,-309.29 124.62,-306.24"></polygon>
<text xml:space="preserve" text-anchor="middle" x="153.88" y="-316.7" font-family="Lato" font-size="14.00" fill="#9164cd">:ARG1</text>
</g>
<!-- d -->
<g id="node#d#describe-01" class="node">
<title>d</title>
<polygon fill="white" stroke="black" points="253.38,-297 155.62,-297 155.62,-261 253.38,-261 253.38,-297"></polygon>
<text xml:space="preserve" text-anchor="middle" x="204.5" y="-273.2" font-family="Lato" font-size="14.00">d/describe-01</text>
</g>
<!-- a2&#45;&gt;d -->
<g id="edge#a2#d#:ARG1-of" class="edge">
<title>a2-&gt;d</title>
<path fill="none" stroke="#9164cd" d="M166.21,-347.8C172.81,-336.12 181.66,-320.45 189.19,-307.11"></path>
<polygon fill="#9164cd" stroke="#9164cd" points="192.02,-309.21 193.89,-298.79 185.93,-305.77 192.02,-309.21"></polygon>
<text xml:space="preserve" text-anchor="middle" x="211.87" y="-316.7" font-family="Lato" font-size="14.00" fill="#9164cd">:ARG1-of</text>
</g>
<!-- j -->
<g id="node#j#justice" class="node">
<title>j</title>
<polygon fill="white" stroke="black" points="61,-210 0,-210 0,-174 61,-174 61,-210"></polygon>
<text xml:space="preserve" text-anchor="middle" x="30.5" y="-186.2" font-family="Lato" font-size="14.00">j/justice</text>
</g>
<!-- a3&#45;&gt;j -->
<g id="edge#a3#j#:op1" class="edge">
<title>a3-&gt;j</title>
<path fill="none" stroke="#595959" d="M92.72,-260.8C81.69,-248.78 66.77,-232.52 54.3,-218.94"></path>
<polygon fill="#595959" stroke="#595959" points="56.89,-216.58 47.55,-211.58 51.73,-221.32 56.89,-216.58"></polygon>
<text xml:space="preserve" text-anchor="middle" x="87.3" y="-229.7" font-family="Lato" font-size="14.00" fill="#595959">:op1</text>
</g>
<!-- r -->
<g id="node#r#right-05" class="node">
<title>r</title>
<polygon fill="white" stroke="black" points="149.5,-210 79.5,-210 79.5,-174 149.5,-174 149.5,-210"></polygon>
<text xml:space="preserve" text-anchor="middle" x="114.5" y="-186.2" font-family="Lato" font-size="14.00">r/right-05</text>
</g>
<!-- a3&#45;&gt;r -->
<g id="edge#a3#r#:op2" class="edge">
<title>a3-&gt;r</title>
<path fill="none" stroke="#595959" d="M109.71,-260.8C110.51,-249.58 111.56,-234.67 112.48,-221.69"></path>
<polygon fill="#595959" stroke="#595959" points="115.95,-222.2 113.16,-211.98 108.96,-221.71 115.95,-222.2"></polygon>
<text xml:space="preserve" text-anchor="middle" x="124.98" y="-229.7" font-family="Lato" font-size="14.00" fill="#595959">:op2</text>
</g>
<!-- s -->
<g id="node#s#section" class="node">
<title>s</title>
<polygon fill="white" stroke="black" points="239.12,-210 169.88,-210 169.88,-174 239.12,-174 239.12,-210"></polygon>
<text xml:space="preserve" text-anchor="middle" x="204.5" y="-186.2" font-family="Lato" font-size="14.00">s/section</text>
</g>
<!-- d&#45;&gt;s -->
<g id="edge#d#s#:ARG0" class="edge">
<title>d-&gt;s</title>
<path fill="none" stroke="#ff7900" d="M204.5,-260.8C204.5,-249.58 204.5,-234.67 204.5,-221.69"></path>
<polygon fill="#ff7900" stroke="#ff7900" points="208,-221.98 204.5,-211.98 201,-221.98 208,-221.98"></polygon>
<text xml:space="preserve" text-anchor="middle" x="225.12" y="-229.7" font-family="Lato" font-size="14.00" fill="#ff7900">:ARG0</text>
</g>
<!-- t2 -->
<g id="node#t2#try-02" class="node">
<title>t2</title>
<polygon fill="white" stroke="black" points="147.25,-123 81.75,-123 81.75,-87 147.25,-87 147.25,-123"></polygon>
<text xml:space="preserve" text-anchor="middle" x="114.5" y="-99.2" font-family="Lato" font-size="14.00">t2/try-02</text>
</g>
<!-- r&#45;&gt;t2 -->
<g id="edge#r#t2#:ARG2" class="edge">
<title>r-&gt;t2</title>
<path fill="none" stroke="#4bb4e6" d="M114.5,-173.8C114.5,-162.58 114.5,-147.67 114.5,-134.69"></path>
<polygon fill="#4bb4e6" stroke="#4bb4e6" points="118,-134.98 114.5,-124.98 111,-134.98 118,-134.98"></polygon>
<text xml:space="preserve" text-anchor="middle" x="135.12" y="-142.7" font-family="Lato" font-size="14.00" fill="#4bb4e6">:ARG2</text>
</g>
<!-- f2 -->
<g id="node#f2#fair-01" class="node">
<title>f2</title>
<polygon fill="white" stroke="black" points="149.12,-36 79.88,-36 79.88,0 149.12,0 149.12,-36"></polygon>
<text xml:space="preserve" text-anchor="middle" x="114.5" y="-12.2" font-family="Lato" font-size="14.00">f2/fair-01</text>
</g>
<!-- t2&#45;&gt;f2 -->
<g id="edge#t2#f2#:ARG1-of" class="edge">
<title>t2-&gt;f2</title>
<path fill="none" stroke="#9164cd" d="M114.5,-86.8C114.5,-75.58 114.5,-60.67 114.5,-47.69"></path>
<polygon fill="#9164cd" stroke="#9164cd" points="118,-47.98 114.5,-37.98 111,-47.98 118,-47.98"></polygon>
<text xml:space="preserve" text-anchor="middle" x="143" y="-55.7" font-family="Lato" font-size="14.00" fill="#9164cd">:ARG1-of</text>
</g>
<!-- s_0_3.8 -->
<g id="literal#s#:mod#3.8" class="node">
<title>s_0_3.8</title>
<ellipse fill="#ffe5cc" stroke="#ffe5cc" cx="201.5" cy="-105" rx="27" ry="18"></ellipse>
<text xml:space="preserve" text-anchor="middle" x="201.5" y="-99.2" font-family="Lato" font-size="14.00" fill="#ffb400">3.8</text>
</g>
<!-- s&#45;&gt;s_0_3.8 -->
<g id="edge#s#3.8#:mod" class="edge">
<title>s-&gt;s_0_3.8</title>
<path fill="none" stroke="#ffb400" d="M203.89,-173.8C203.5,-162.58 202.97,-147.67 202.51,-134.69"></path>
<polygon fill="#ffb400" stroke="#ffb400" points="206.02,-134.85 202.17,-124.98 199.02,-135.1 206.02,-134.85"></polygon>
<text xml:space="preserve" text-anchor="middle" x="218.55" y="-142.7" font-family="Lato" font-size="14.00" fill="#ffb400">:mod</text>
</g>
<!-- p2 -->
<g id="node#p2#paragraph" class="node">
<title>p2</title>
<polygon fill="white" stroke="black" points="342.62,-123 246.38,-123 246.38,-87 342.62,-87 342.62,-123"></polygon>
<text xml:space="preserve" text-anchor="middle" x="294.5" y="-99.2" font-family="Lato" font-size="14.00">p2/paragraph</text>
</g>
<!-- s&#45;&gt;p2 -->
<g id="edge#s#p2#:part-of" class="edge">
<title>s-&gt;p2</title>
<path fill="none" stroke="black" d="M222.71,-173.8C235.68,-161.55 253.31,-144.9 267.86,-131.16"></path>
<polygon fill="black" stroke="black" points="270.04,-133.92 274.9,-124.51 265.23,-128.83 270.04,-133.92"></polygon>
<text xml:space="preserve" text-anchor="middle" x="276.26" y="-142.7" font-family="Lato" font-size="14.00">:part-of</text>
</g>
</g>
</svg>
