<!--?xml version="1.0" encoding="UTF-8" standalone="no"?-->

<!-- Generated by graphviz version 14.0.1 (20251006.0113)
 -->
<!-- Title: amr_graph Pages: 1 -->
<svg onmousedown="info(event);" width="474pt" height="305pt" viewBox="0.00 0.00 474.00 305.00" xmlns="http://www.w3.org/2000/svg" xmlns:xlink="http://www.w3.org/1999/xlink">
<g id="graph0" class="graph" transform="scale(1 1) rotate(0) translate(4 301)">
<title>amr_graph</title>
<polygon fill="white" stroke="none" points="-4,4 -4,-301 470.14,-301 470.14,4 -4,4"></polygon>
<!-- c -->
<g id="node#c#case-03" class="node">
<title>c</title>
<polygon fill="white" stroke="black" points="325.62,-297 248.87,-297 248.87,-261 325.62,-261 325.62,-297"></polygon>
<text xml:space="preserve" text-anchor="middle" x="287.25" y="-273.2" font-family="Lato Black" font-size="14.00">c/case-03</text>
</g>
<!-- o2 -->
<g id="node#o2#organization" class="node">
<title>o2</title>
<polygon fill="white" stroke="black" points="281.37,-210 173.12,-210 173.12,-174 281.37,-174 281.37,-210"></polygon>
<text xml:space="preserve" text-anchor="middle" x="227.25" y="-186.2" font-family="Lato" font-size="14.00">o2/organization</text>
</g>
<!-- c&#45;&gt;o2 -->
<g id="edge#c#o2#:ARG0" class="edge">
<title>c-&gt;o2</title>
<path fill="none" stroke="#ff7900" d="M275.1,-260.8C266.78,-249.01 255.58,-233.14 246.1,-219.72"></path>
<polygon fill="#ff7900" stroke="#ff7900" points="249.07,-217.85 240.45,-211.7 243.36,-221.89 249.07,-217.85"></polygon>
<text xml:space="preserve" text-anchor="middle" x="281.46" y="-229.7" font-family="Lato" font-size="14.00" fill="#ff7900">:ARG0</text>
</g>
<!-- d3 -->
<g id="node#d3#date-entity" class="node">
<title>d3</title>
<polygon fill="white" stroke="black" points="403.12,-210 305.37,-210 305.37,-174 403.12,-174 403.12,-210"></polygon>
<text xml:space="preserve" text-anchor="middle" x="354.25" y="-186.2" font-family="Lato" font-size="14.00">d3/date-entity</text>
</g>
<!-- c&#45;&gt;d3 -->
<g id="edge#c#d3#:time" class="edge">
<title>c-&gt;d3</title>
<path fill="none" stroke="#085ebd" d="M300.8,-260.8C310.19,-248.9 322.85,-232.83 333.49,-219.32"></path>
<polygon fill="#085ebd" stroke="#085ebd" points="336.1,-221.68 339.54,-211.66 330.6,-217.34 336.1,-221.68"></polygon>
<text xml:space="preserve" text-anchor="middle" x="339.76" y="-229.7" font-family="Lato" font-size="14.00" fill="#085ebd">:time</text>
</g>
<!-- n4 -->
<g id="node#n4#name" class="node">
<title>n4</title>
<polygon fill="white" stroke="black" points="243.87,-123 174.62,-123 174.62,-87 243.87,-87 243.87,-123"></polygon>
<text xml:space="preserve" text-anchor="middle" x="209.25" y="-99.2" font-family="Lato" font-size="14.00">n4/name</text>
</g>
<!-- o2&#45;&gt;n4 -->
<g id="edge#o2#n4#:name" class="edge">
<title>o2-&gt;n4</title>
<path fill="none" stroke="#492191" d="M223.6,-173.8C221.23,-162.58 218.07,-147.67 215.32,-134.69"></path>
<polygon fill="#492191" stroke="#492191" points="218.75,-134.01 213.26,-124.95 211.91,-135.46 218.75,-134.01"></polygon>
<text xml:space="preserve" text-anchor="middle" x="238.45" y="-142.7" font-family="Lato" font-size="14.00" fill="#492191">:name</text>
</g>
<!-- d3_4_17 -->
<g id="literal#d3#:day#17" class="node">
<title>d3_4_17</title>
<ellipse fill="#ffe5cc" stroke="#ffe5cc" cx="289.25" cy="-105" rx="27" ry="18"></ellipse>
<text xml:space="preserve" text-anchor="middle" x="289.25" y="-99.2" font-family="Lato" font-size="14.00" fill="#085ebd">17</text>
</g>
<!-- d3&#45;&gt;d3_4_17 -->
<g id="edge#d3#17#:day" class="edge">
<title>d3-&gt;d3_4_17</title>
<path fill="none" stroke="#085ebd" d="M341.09,-173.8C331.57,-161.34 318.56,-144.33 307.95,-130.46"></path>
<polygon fill="#085ebd" stroke="#085ebd" points="310.84,-128.48 301.99,-122.66 305.28,-132.73 310.84,-128.48"></polygon>
<text xml:space="preserve" text-anchor="middle" x="338.39" y="-142.7" font-family="Lato" font-size="14.00" fill="#085ebd">:day</text>
</g>
<!-- d3_5_10 -->
<g id="literal#d3#:month#10" class="node">
<title>d3_5_10</title>
<ellipse fill="#ffe5cc" stroke="#ffe5cc" cx="361.25" cy="-105" rx="27" ry="18"></ellipse>
<text xml:space="preserve" text-anchor="middle" x="361.25" y="-99.2" font-family="Lato" font-size="14.00" fill="#085ebd">10</text>
</g>
<!-- d3&#45;&gt;d3_5_10 -->
<g id="edge#d3#10#:month" class="edge">
<title>d3-&gt;d3_5_10</title>
<path fill="none" stroke="#085ebd" d="M355.66,-173.8C356.59,-162.58 357.81,-147.67 358.88,-134.69"></path>
<polygon fill="#085ebd" stroke="#085ebd" points="362.35,-135.23 359.68,-124.98 355.37,-134.65 362.35,-135.23"></polygon>
<text xml:space="preserve" text-anchor="middle" x="379.16" y="-142.7" font-family="Lato" font-size="14.00" fill="#085ebd">:month</text>
</g>
<!-- d3_6_1989 -->
<g id="literal#d3#:year#1989" class="node">
<title>d3_6_1989</title>
<ellipse fill="#ffe5cc" stroke="#ffe5cc" cx="436.25" cy="-105" rx="29.9" ry="18"></ellipse>
<text xml:space="preserve" text-anchor="middle" x="436.25" y="-99.2" font-family="Lato" font-size="14.00">1989</text>
</g>
<!-- d3&#45;&gt;d3_6_1989 -->
<g id="edge#d3#1989#:year" class="edge">
<title>d3-&gt;d3_6_1989</title>
<path fill="none" stroke="black" d="M383.28,-173.53C390.58,-168.4 398.08,-162.42 404.25,-156 410.97,-148.99 417.08,-140.37 422.11,-132.27"></path>
<polygon fill="black" stroke="black" points="425.07,-134.15 427.12,-123.76 419.03,-130.61 425.07,-134.15"></polygon>
<text xml:space="preserve" text-anchor="middle" x="430.54" y="-142.7" font-family="Lato" font-size="14.00">:year</text>
</g>
<!-- n4_0_DQUOTEEuropeanDQUOTE -->
<g id="literal#n4#:op1#&quot;European&quot;" class="node">
<title>n4_0_DQUOTEEuropeanDQUOTE</title>
<ellipse fill="#ffe5cc" stroke="#ffe5cc" cx="55.25" cy="-18" rx="55.25" ry="18"></ellipse>
<text xml:space="preserve" text-anchor="middle" x="55.25" y="-12.2" font-family="Lato" font-size="14.00" fill="#595959">"European"</text>
</g>
<!-- n4&#45;&gt;n4_0_DQUOTEEuropeanDQUOTE -->
<g id="edge#n4#&quot;European&quot;#:op1" class="edge">
<title>n4-&gt;n4_0_DQUOTEEuropeanDQUOTE</title>
<path fill="none" stroke="#595959" d="M177.71,-86.59C153.01,-72.96 118.57,-53.95 92.51,-39.57"></path>
<polygon fill="#595959" stroke="#595959" points="94.39,-36.61 83.94,-34.84 91,-42.73 94.39,-36.61"></polygon>
<text xml:space="preserve" text-anchor="middle" x="154.59" y="-55.7" font-family="Lato" font-size="14.00" fill="#595959">:op1</text>
</g>
<!-- n4_1_DQUOTECourtDQUOTE -->
<g id="literal#n4#:op2#&quot;Court&quot;" class="node">
<title>n4_1_DQUOTECourtDQUOTE</title>
<ellipse fill="#ffe5cc" stroke="#ffe5cc" cx="167.25" cy="-18" rx="38.67" ry="18"></ellipse>
<text xml:space="preserve" text-anchor="middle" x="167.25" y="-12.2" font-family="Lato" font-size="14.00" fill="#595959">"Court"</text>
</g>
<!-- n4&#45;&gt;n4_1_DQUOTECourtDQUOTE -->
<g id="edge#n4#&quot;Court&quot;#:op2" class="edge">
<title>n4-&gt;n4_1_DQUOTECourtDQUOTE</title>
<path fill="none" stroke="#595959" d="M200.75,-86.8C194.96,-75.09 187.18,-59.34 180.57,-45.97"></path>
<polygon fill="#595959" stroke="#595959" points="183.83,-44.66 176.26,-37.24 177.55,-47.76 183.83,-44.66"></polygon>
<text xml:space="preserve" text-anchor="middle" x="203.88" y="-55.7" font-family="Lato" font-size="14.00" fill="#595959">:op2</text>
</g>
<!-- n4_2_DQUOTEofDQUOTE -->
<g id="literal#n4#:op3#&quot;of&quot;" class="node">
<title>n4_2_DQUOTEofDQUOTE</title>
<ellipse fill="#ffe5cc" stroke="#ffe5cc" cx="251.25" cy="-18" rx="27" ry="18"></ellipse>
<text xml:space="preserve" text-anchor="middle" x="251.25" y="-12.2" font-family="Lato" font-size="14.00" fill="#595959">"of"</text>
</g>
<!-- n4&#45;&gt;n4_2_DQUOTEofDQUOTE -->
<g id="edge#n4#&quot;of&quot;#:op3" class="edge">
<title>n4-&gt;n4_2_DQUOTEofDQUOTE</title>
<path fill="none" stroke="#595959" d="M217.74,-86.8C223.57,-75.01 231.41,-59.14 238.05,-45.71"></path>
<polygon fill="#595959" stroke="#595959" points="241.08,-47.47 242.37,-36.95 234.81,-44.37 241.08,-47.47"></polygon>
<text xml:space="preserve" text-anchor="middle" x="245.88" y="-55.7" font-family="Lato" font-size="14.00" fill="#595959">:op3</text>
</g>
<!-- n4_3_DQUOTEJusticeDQUOTE -->
<g id="literal#n4#:op4#&quot;Justice&quot;" class="node">
<title>n4_3_DQUOTEJusticeDQUOTE</title>
<ellipse fill="#ffe5cc" stroke="#ffe5cc" cx="341.25" cy="-18" rx="44.52" ry="18"></ellipse>
<text xml:space="preserve" text-anchor="middle" x="341.25" y="-12.2" font-family="Lato" font-size="14.00" fill="#595959">"Justice"</text>
</g>
<!-- n4&#45;&gt;n4_3_DQUOTEJusticeDQUOTE -->
<g id="edge#n4#&quot;Justice&quot;#:op4" class="edge">
<title>n4-&gt;n4_3_DQUOTEJusticeDQUOTE</title>
<path fill="none" stroke="#595959" d="M236.28,-86.59C257.3,-73.05 286.55,-54.22 308.83,-39.87"></path>
<polygon fill="#595959" stroke="#595959" points="310.43,-43.01 316.94,-34.65 306.64,-37.12 310.43,-43.01"></polygon>
<text xml:space="preserve" text-anchor="middle" x="296.27" y="-55.7" font-family="Lato" font-size="14.00" fill="#595959">:op4</text>
</g>
</g>
</svg>
