<!--?xml version="1.0" encoding="UTF-8" standalone="no"?-->

<!-- Generated by graphviz version 14.0.1 (20251006.0113)
 -->
<!-- Title: amr_graph Pages: 1 -->
<svg onmousedown="info(event);" width="695pt" height="566pt" viewBox="0.00 0.00 695.00 566.00" xmlns="http://www.w3.org/2000/svg" xmlns:xlink="http://www.w3.org/1999/xlink">
<g id="graph0" class="graph" transform="scale(1 1) rotate(0) translate(4 562)">
<title>amr_graph</title>
<polygon fill="white" stroke="none" points="-4,4 -4,-562 690.62,-562 690.62,4 -4,4"></polygon>
<!-- s3 -->
<g id="node#s3#say-01" class="node">
<title>s3</title>
<polygon fill="white" stroke="black" points="290.38,-558 213.62,-558 213.62,-522 290.38,-522 290.38,-558"></polygon>
<text xml:space="preserve" text-anchor="middle" x="252" y="-534.2" font-family="Lato Black" font-size="14.00">s3/say-01</text>
</g>
<!-- ii4 -->
<g id="node#ii4#i" class="node">
<title>ii4</title>
<polygon fill="white" stroke="black" points="54,-471 0,-471 0,-435 54,-435 54,-471"></polygon>
<text xml:space="preserve" text-anchor="middle" x="27" y="-447.2" font-family="Lato" font-size="14.00">ii4/i</text>
</g>
<!-- s3&#45;&gt;ii4 -->
<g id="edge#s3#ii4#:ARG0" class="edge">
<title>s3-&gt;ii4</title>
<path fill="none" stroke="#ff7900" d="M213.35,-533.49C182.98,-528.3 140.05,-519.03 104.75,-504 88.71,-497.17 72.28,-487.14 58.68,-477.84"></path>
<polygon fill="#ff7900" stroke="#ff7900" points="60.76,-475.02 50.57,-472.13 56.73,-480.75 60.76,-475.02"></polygon>
<text xml:space="preserve" text-anchor="middle" x="125.38" y="-490.7" font-family="Lato" font-size="14.00" fill="#ff7900">:ARG0</text>
</g>
<!-- a6 -->
<g id="node#a6#apply-02" class="node">
<title>a6</title>
<polygon fill="white" stroke="black" points="158.25,-471 71.75,-471 71.75,-435 158.25,-435 158.25,-471"></polygon>
<text xml:space="preserve" text-anchor="middle" x="115" y="-447.2" font-family="Lato" font-size="14.00">a6/apply-02</text>
</g>
<!-- s3&#45;&gt;a6 -->
<g id="edge#s3#a6#:ARG1" class="edge">
<title>s3-&gt;a6</title>
<path fill="none" stroke="#9164cd" d="M213.39,-525.7C199.14,-520 183.2,-512.64 169.75,-504 158.92,-497.04 148.19,-487.88 139.14,-479.31"></path>
<polygon fill="#9164cd" stroke="#9164cd" points="141.7,-476.92 132.11,-472.42 136.8,-481.92 141.7,-476.92"></polygon>
<text xml:space="preserve" text-anchor="middle" x="190.38" y="-490.7" font-family="Lato" font-size="14.00" fill="#9164cd">:ARG1</text>
</g>
<!-- f4 -->
<g id="node#f4#field" class="node">
<title>f4</title>
<polygon fill="white" stroke="black" points="231.88,-471 176.12,-471 176.12,-435 231.88,-435 231.88,-471"></polygon>
<text xml:space="preserve" text-anchor="middle" x="204" y="-447.2" font-family="Lato" font-size="14.00">f4/field</text>
</g>
<!-- s3&#45;&gt;f4 -->
<g id="edge#s3#f4#:ARG2" class="edge">
<title>s3-&gt;f4</title>
<path fill="none" stroke="#4bb4e6" d="M234.92,-521.82C230.2,-516.43 225.38,-510.25 221.75,-504 217.81,-497.23 214.53,-489.45 211.91,-482.07"></path>
<polygon fill="#4bb4e6" stroke="#4bb4e6" points="215.32,-481.22 208.9,-472.8 208.66,-483.39 215.32,-481.22"></polygon>
<text xml:space="preserve" text-anchor="middle" x="242.38" y="-490.7" font-family="Lato" font-size="14.00" fill="#4bb4e6">:ARG2</text>
</g>
<!-- m2 -->
<g id="node#m2#most" class="node">
<title>m2</title>
<polygon fill="white" stroke="black" points="319.62,-471 250.38,-471 250.38,-435 319.62,-435 319.62,-471"></polygon>
<text xml:space="preserve" text-anchor="middle" x="285" y="-447.2" font-family="Lato" font-size="14.00">m2/most</text>
</g>
<!-- s3&#45;&gt;m2 -->
<g id="edge#s3#m2#:quant" class="edge">
<title>s3-&gt;m2</title>
<path fill="none" stroke="black" d="M258.68,-521.8C263.12,-510.35 269.06,-495.06 274.17,-481.89"></path>
<polygon fill="black" stroke="black" points="277.31,-483.47 277.67,-472.88 270.79,-480.93 277.31,-483.47"></polygon>
<text xml:space="preserve" text-anchor="middle" x="289.23" y="-490.7" font-family="Lato" font-size="14.00">:quant</text>
</g>
<!-- s4 -->
<g id="node#s4#sector" class="node">
<title>s4</title>
<polygon fill="white" stroke="black" points="408.38,-471 337.62,-471 337.62,-435 408.38,-435 408.38,-471"></polygon>
<text xml:space="preserve" text-anchor="middle" x="373" y="-447.2" font-family="Lato" font-size="14.00">s4/sector</text>
</g>
<!-- s3&#45;&gt;s4 -->
<g id="edge#s3#s4#:location" class="edge">
<title>s3-&gt;s4</title>
<path fill="none" stroke="#ff8ad4" d="M284.03,-521.57C293.25,-516.22 303.19,-510.13 312,-504 323.02,-496.34 334.54,-487.22 344.57,-478.88"></path>
<polygon fill="#ff8ad4" stroke="#ff8ad4" points="346.76,-481.6 352.14,-472.48 342.24,-476.26 346.76,-481.6"></polygon>
<text xml:space="preserve" text-anchor="middle" x="356.24" y="-490.7" font-family="Lato" font-size="14.00" fill="#ff8ad4">:location</text>
</g>
<!-- m3 -->
<g id="node#m3#mean-01" class="node">
<title>m3</title>
<polygon fill="white" stroke="black" points="520.62,-471 427.38,-471 427.38,-435 520.62,-435 520.62,-471"></polygon>
<text xml:space="preserve" text-anchor="middle" x="474" y="-447.2" font-family="Lato" font-size="14.00">m3/mean-01</text>
</g>
<!-- s3&#45;&gt;m3 -->
<g id="edge#s3#m3#:ARG1-of" class="edge">
<title>s3-&gt;m3</title>
<path fill="none" stroke="#9164cd" d="M290.67,-531.55C317.67,-525.7 354.24,-516.45 385,-504 402.92,-496.75 421.73,-486.59 437.42,-477.33"></path>
<polygon fill="#9164cd" stroke="#9164cd" points="439.19,-480.35 445.94,-472.19 435.57,-474.36 439.19,-480.35"></polygon>
<text xml:space="preserve" text-anchor="middle" x="443.91" y="-490.7" font-family="Lato" font-size="14.00" fill="#9164cd">:ARG1-of</text>
</g>
<!-- ii5 -->
<g id="node#ii5#intelligent-01" class="node">
<title>ii5</title>
<polygon fill="white" stroke="black" points="156.88,-384 47.12,-384 47.12,-348 156.88,-348 156.88,-384"></polygon>
<text xml:space="preserve" text-anchor="middle" x="102" y="-360.2" font-family="Lato" font-size="14.00">ii5/intelligent-01</text>
</g>
<!-- a6&#45;&gt;ii5 -->
<g id="edge#a6#ii5#:ARG1" class="edge">
<title>a6-&gt;ii5</title>
<path fill="none" stroke="#9164cd" d="M112.37,-434.8C110.65,-423.58 108.37,-408.67 106.39,-395.69"></path>
<polygon fill="#9164cd" stroke="#9164cd" points="109.87,-395.32 104.9,-385.96 102.95,-396.38 109.87,-395.32"></polygon>
<text xml:space="preserve" text-anchor="middle" x="129.9" y="-403.7" font-family="Lato" font-size="14.00" fill="#9164cd">:ARG1</text>
</g>
<!-- j3 -->
<g id="node#j3#justice" class="node">
<title>j3</title>
<polygon fill="white" stroke="black" points="243.25,-384 174.75,-384 174.75,-348 243.25,-348 243.25,-384"></polygon>
<text xml:space="preserve" text-anchor="middle" x="209" y="-360.2" font-family="Lato" font-size="14.00">j3/justice</text>
</g>
<!-- f4&#45;&gt;j3 -->
<g id="edge#f4#j3#:mod" class="edge">
<title>f4-&gt;j3</title>
<path fill="none" stroke="#ffb400" d="M205.01,-434.8C205.67,-423.58 206.55,-408.67 207.31,-395.69"></path>
<polygon fill="#ffb400" stroke="#ffb400" points="210.79,-396.17 207.88,-385.98 203.8,-395.76 210.79,-396.17"></polygon>
<text xml:space="preserve" text-anchor="middle" x="222.17" y="-403.7" font-family="Lato" font-size="14.00" fill="#ffb400">:mod</text>
</g>
<!-- p4 -->
<g id="node#p4#private-03" class="node">
<title>p4</title>
<polygon fill="white" stroke="black" points="419.38,-384 324.62,-384 324.62,-348 419.38,-348 419.38,-384"></polygon>
<text xml:space="preserve" text-anchor="middle" x="372" y="-360.2" font-family="Lato" font-size="14.00">p4/private-03</text>
</g>
<!-- s4&#45;&gt;p4 -->
<g id="edge#s4#p4#:ARG1-of" class="edge">
<title>s4-&gt;p4</title>
<path fill="none" stroke="#9164cd" d="M372.8,-434.8C372.67,-423.58 372.49,-408.67 372.34,-395.69"></path>
<polygon fill="#9164cd" stroke="#9164cd" points="375.84,-395.94 372.22,-385.98 368.84,-396.02 375.84,-395.94"></polygon>
<text xml:space="preserve" text-anchor="middle" x="401.06" y="-403.7" font-family="Lato" font-size="14.00" fill="#9164cd">:ARG1-of</text>
</g>
<!-- a7 -->
<g id="node#a7#aim-02" class="node">
<title>a7</title>
<polygon fill="white" stroke="black" points="514.38,-384 437.62,-384 437.62,-348 514.38,-348 514.38,-384"></polygon>
<text xml:space="preserve" text-anchor="middle" x="476" y="-360.2" font-family="Lato" font-size="14.00">a7/aim-02</text>
</g>
<!-- m3&#45;&gt;a7 -->
<g id="edge#m3#a7#:ARG2" class="edge">
<title>m3-&gt;a7</title>
<path fill="none" stroke="#4bb4e6" d="M474.4,-434.8C474.67,-423.58 475.02,-408.67 475.33,-395.69"></path>
<polygon fill="#4bb4e6" stroke="#4bb4e6" points="478.82,-396.06 475.55,-385.98 471.82,-395.9 478.82,-396.06"></polygon>
<text xml:space="preserve" text-anchor="middle" x="495.74" y="-403.7" font-family="Lato" font-size="14.00" fill="#4bb4e6">:ARG2</text>
</g>
<!-- ii5_0_a -->
<g id="literal#ii5#:mod#a" class="node">
<title>ii5_0_a</title>
<ellipse fill="#ffe5cc" stroke="#ffe5cc" cx="102" cy="-279" rx="27" ry="18"></ellipse>
<text xml:space="preserve" text-anchor="middle" x="102" y="-273.2" font-family="Lato" font-size="14.00" fill="#ffb400">a</text>
</g>
<!-- ii5&#45;&gt;ii5_0_a -->
<g id="edge#ii5#a#:mod" class="edge">
<title>ii5-&gt;ii5_0_a</title>
<path fill="none" stroke="#ffb400" d="M102,-347.8C102,-336.58 102,-321.67 102,-308.69"></path>
<polygon fill="#ffb400" stroke="#ffb400" points="105.5,-308.98 102,-298.98 98.5,-308.98 105.5,-308.98"></polygon>
<text xml:space="preserve" text-anchor="middle" x="117.38" y="-316.7" font-family="Lato" font-size="14.00" fill="#ffb400">:mod</text>
</g>
<!-- a8 -->
<g id="node#a8#and" class="node">
<title>a8</title>
<polygon fill="white" stroke="black" points="504.62,-297 447.38,-297 447.38,-261 504.62,-261 504.62,-297"></polygon>
<text xml:space="preserve" text-anchor="middle" x="476" y="-273.2" font-family="Lato" font-size="14.00">a8/and</text>
</g>
<!-- a7&#45;&gt;a8 -->
<g id="edge#a7#a8#:ARG2" class="edge">
<title>a7-&gt;a8</title>
<path fill="none" stroke="#4bb4e6" d="M476,-347.8C476,-336.58 476,-321.67 476,-308.69"></path>
<polygon fill="#4bb4e6" stroke="#4bb4e6" points="479.5,-308.98 476,-298.98 472.5,-308.98 479.5,-308.98"></polygon>
<text xml:space="preserve" text-anchor="middle" x="496.62" y="-316.7" font-family="Lato" font-size="14.00" fill="#4bb4e6">:ARG2</text>
</g>
<!-- c3 -->
<g id="node#c3#company" class="node">
<title>c3</title>
<polygon fill="white" stroke="black" points="351.75,-210 262.25,-210 262.25,-174 351.75,-174 351.75,-210"></polygon>
<text xml:space="preserve" text-anchor="middle" x="307" y="-186.2" font-family="Lato" font-size="14.00">c3/company</text>
</g>
<!-- a8&#45;&gt;c3 -->
<g id="edge#a8#c3#:op1" class="edge">
<title>a8-&gt;c3</title>
<path fill="none" stroke="#595959" d="M446.95,-263.39C420.78,-250.23 381.9,-230.67 351.76,-215.51"></path>
<polygon fill="#595959" stroke="#595959" points="353.36,-212.4 342.85,-211.03 350.21,-218.65 353.36,-212.4"></polygon>
<text xml:space="preserve" text-anchor="middle" x="414.74" y="-229.7" font-family="Lato" font-size="14.00" fill="#595959">:op1</text>
</g>
<!-- d4 -->
<g id="node#d4#department" class="node">
<title>d4</title>
<polygon fill="white" stroke="black" points="473.88,-210 370.12,-210 370.12,-174 473.88,-174 473.88,-210"></polygon>
<text xml:space="preserve" text-anchor="middle" x="422" y="-186.2" font-family="Lato" font-size="14.00">d4/department</text>
</g>
<!-- a8&#45;&gt;d4 -->
<g id="edge#a8#d4#:op2" class="edge">
<title>a8-&gt;d4</title>
<path fill="none" stroke="#595959" d="M465.07,-260.8C457.66,-249.12 447.7,-233.45 439.22,-220.11"></path>
<polygon fill="#595959" stroke="#595959" points="442.23,-218.31 433.91,-211.74 436.32,-222.06 442.23,-218.31"></polygon>
<text xml:space="preserve" text-anchor="middle" x="465.36" y="-229.7" font-family="Lato" font-size="14.00" fill="#595959">:op2</text>
</g>
<!-- p5 -->
<g id="node#p5#person" class="node">
<title>p5</title>
<polygon fill="white" stroke="black" points="568,-210 492,-210 492,-174 568,-174 568,-210"></polygon>
<text xml:space="preserve" text-anchor="middle" x="530" y="-186.2" font-family="Lato" font-size="14.00">p5/person</text>
</g>
<!-- a8&#45;&gt;p5 -->
<g id="edge#a8#p5#:op3" class="edge">
<title>a8-&gt;p5</title>
<path fill="none" stroke="#595959" d="M486.93,-260.8C494.34,-249.12 504.3,-233.45 512.78,-220.11"></path>
<polygon fill="#595959" stroke="#595959" points="515.68,-222.06 518.09,-211.74 509.77,-218.31 515.68,-222.06"></polygon>
<text xml:space="preserve" text-anchor="middle" x="519.36" y="-229.7" font-family="Lato" font-size="14.00" fill="#595959">:op3</text>
</g>
<!-- ii7 -->
<g id="node#ii7#individual" class="node">
<title>ii7</title>
<polygon fill="white" stroke="black" points="684.75,-210 595.25,-210 595.25,-174 684.75,-174 684.75,-210"></polygon>
<text xml:space="preserve" text-anchor="middle" x="640" y="-186.2" font-family="Lato" font-size="14.00">ii7/individual</text>
</g>
<!-- a8&#45;&gt;ii7 -->
<g id="edge#a8#ii7#:op4" class="edge">
<title>a8-&gt;ii7</title>
<path fill="none" stroke="#595959" d="M504.94,-263C530.28,-249.87 567.45,-230.6 596.39,-215.6"></path>
<polygon fill="#595959" stroke="#595959" points="597.64,-218.9 604.91,-211.19 594.42,-212.68 597.64,-218.9"></polygon>
<text xml:space="preserve" text-anchor="middle" x="580.94" y="-229.7" font-family="Lato" font-size="14.00" fill="#595959">:op4</text>
</g>
<!-- ii6 -->
<g id="node#ii6#insure-02" class="node">
<title>ii6</title>
<polygon fill="white" stroke="black" points="351.75,-123 262.25,-123 262.25,-87 351.75,-87 351.75,-123"></polygon>
<text xml:space="preserve" text-anchor="middle" x="307" y="-99.2" font-family="Lato" font-size="14.00">ii6/insure-02</text>
</g>
<!-- c3&#45;&gt;ii6 -->
<g id="edge#c3#ii6#:ARG0-of" class="edge">
<title>c3-&gt;ii6</title>
<path fill="none" stroke="#ff7900" d="M307,-173.8C307,-162.58 307,-147.67 307,-134.69"></path>
<polygon fill="#ff7900" stroke="#ff7900" points="310.5,-134.98 307,-124.98 303.5,-134.98 310.5,-134.98"></polygon>
<text xml:space="preserve" text-anchor="middle" x="335.5" y="-142.7" font-family="Lato" font-size="14.00" fill="#ff7900">:ARG0-of</text>
</g>
<!-- l -->
<g id="node#l#legal-02" class="node">
<title>l</title>
<polygon fill="white" stroke="black" points="448.38,-123 377.62,-123 377.62,-87 448.38,-87 448.38,-123"></polygon>
<text xml:space="preserve" text-anchor="middle" x="413" y="-99.2" font-family="Lato" font-size="14.00">l/legal-02</text>
</g>
<!-- d4&#45;&gt;l -->
<g id="edge#d4#l#:ARG0-of" class="edge">
<title>d4-&gt;l</title>
<path fill="none" stroke="#ff7900" d="M420.18,-173.8C418.99,-162.58 417.41,-147.67 416.04,-134.69"></path>
<polygon fill="#ff7900" stroke="#ff7900" points="419.54,-134.55 415.01,-124.97 412.58,-135.29 419.54,-134.55"></polygon>
<text xml:space="preserve" text-anchor="middle" x="446.54" y="-142.7" font-family="Lato" font-size="14.00" fill="#ff7900">:ARG0-of</text>
</g>
<!-- h -->
<g id="node#h#have-org-role-91" class="node">
<title>h</title>
<polygon fill="white" stroke="black" points="593.5,-123 466.5,-123 466.5,-87 593.5,-87 593.5,-123"></polygon>
<text xml:space="preserve" text-anchor="middle" x="530" y="-99.2" font-family="Lato" font-size="14.00">h/have-org-role-91</text>
</g>
<!-- p5&#45;&gt;h -->
<g id="edge#p5#h#:ARG0-of" class="edge">
<title>p5-&gt;h</title>
<path fill="none" stroke="#ff7900" d="M530,-173.8C530,-162.58 530,-147.67 530,-134.69"></path>
<polygon fill="#ff7900" stroke="#ff7900" points="533.5,-134.98 530,-124.98 526.5,-134.98 533.5,-134.98"></polygon>
<text xml:space="preserve" text-anchor="middle" x="558.5" y="-142.7" font-family="Lato" font-size="14.00" fill="#ff7900">:ARG0-of</text>
</g>
<!-- g -->
<g id="node#g#genuine" class="node">
<title>g</title>
<polygon fill="white" stroke="black" points="686.62,-123 611.38,-123 611.38,-87 686.62,-87 686.62,-123"></polygon>
<text xml:space="preserve" text-anchor="middle" x="649" y="-99.2" font-family="Lato" font-size="14.00">g/genuine</text>
</g>
<!-- ii7&#45;&gt;g -->
<g id="edge#ii7#g#:mod" class="edge">
<title>ii7-&gt;g</title>
<path fill="none" stroke="#ffb400" d="M641.82,-173.8C643.01,-162.58 644.59,-147.67 645.96,-134.69"></path>
<polygon fill="#ffb400" stroke="#ffb400" points="649.42,-135.29 646.99,-124.97 642.46,-134.55 649.42,-135.29"></polygon>
<text xml:space="preserve" text-anchor="middle" x="660.41" y="-142.7" font-family="Lato" font-size="14.00" fill="#ffb400">:mod</text>
</g>
<!-- l2 -->
<g id="node#l2#lawyer" class="node">
<title>l2</title>
<polygon fill="white" stroke="black" points="564.62,-36 495.38,-36 495.38,0 564.62,0 564.62,-36"></polygon>
<text xml:space="preserve" text-anchor="middle" x="530" y="-12.2" font-family="Lato" font-size="14.00">l2/lawyer</text>
</g>
<!-- h&#45;&gt;l2 -->
<g id="edge#h#l2#:ARG3" class="edge">
<title>h-&gt;l2</title>
<path fill="none" stroke="#ffb4e6" d="M530,-86.8C530,-75.58 530,-60.67 530,-47.69"></path>
<polygon fill="#ffb4e6" stroke="#ffb4e6" points="533.5,-47.98 530,-37.98 526.5,-47.98 533.5,-47.98"></polygon>
<text xml:space="preserve" text-anchor="middle" x="550.62" y="-55.7" font-family="Lato" font-size="14.00" fill="#ffb4e6">:ARG3</text>
</g>
</g>
</svg>
