<!--?xml version="1.0" encoding="UTF-8" standalone="no"?-->

<!-- Generated by graphviz version 14.0.1 (20251006.0113)
 -->
<!-- Title: amr_graph Pages: 1 -->
<svg onmousedown="info(event);" width="356pt" height="305pt" viewBox="0.00 0.00 356.00 305.00" xmlns="http://www.w3.org/2000/svg" xmlns:xlink="http://www.w3.org/1999/xlink">
<g id="graph0" class="graph" transform="scale(1 1) rotate(0) translate(4 301)">
<title>amr_graph</title>
<polygon fill="white" stroke="none" points="-4,4 -4,-301 351.62,-301 351.62,4 -4,4"></polygon>
<!-- a -->
<g id="node#a#ask-01" class="node">
<title>a</title>
<polygon fill="white" stroke="black" points="140.62,-297 71.38,-297 71.38,-261 140.62,-261 140.62,-297"></polygon>
<text xml:space="preserve" text-anchor="middle" x="106" y="-273.2" font-family="Lato Black" font-size="14.00">a/ask-01</text>
</g>
<!-- a_0_1 -->
<g id="literal#a#:li#1" class="node">
<title>a_0_1</title>
<ellipse fill="#ffe5cc" stroke="#ffe5cc" cx="27" cy="-192" rx="27" ry="18"></ellipse>
<text xml:space="preserve" text-anchor="middle" x="27" y="-186.2" font-family="Lato" font-size="14.00">1</text>
</g>
<!-- a&#45;&gt;a_0_1 -->
<g id="edge#a#1#:li" class="edge">
<title>a-&gt;a_0_1</title>
<path fill="none" stroke="black" d="M90.01,-260.8C78.07,-247.94 61.61,-230.23 48.5,-216.14"></path>
<polygon fill="black" stroke="black" points="51.25,-213.95 41.88,-209.01 46.13,-218.72 51.25,-213.95"></polygon>
<text xml:space="preserve" text-anchor="middle" x="76.1" y="-229.7" font-family="Lato" font-size="14.00">:li</text>
</g>
<!-- p -->
<g id="node#p#person" class="node">
<title>p</title>
<polygon fill="white" stroke="black" points="140.25,-210 71.75,-210 71.75,-174 140.25,-174 140.25,-210"></polygon>
<text xml:space="preserve" text-anchor="middle" x="106" y="-186.2" font-family="Lato" font-size="14.00">p/person</text>
</g>
<!-- a&#45;&gt;p -->
<g id="edge#a#p#:ARG0" class="edge">
<title>a-&gt;p</title>
<path fill="none" stroke="#ff7900" d="M106,-260.8C106,-249.58 106,-234.67 106,-221.69"></path>
<polygon fill="#ff7900" stroke="#ff7900" points="109.5,-221.98 106,-211.98 102.5,-221.98 109.5,-221.98"></polygon>
<text xml:space="preserve" text-anchor="middle" x="126.62" y="-229.7" font-family="Lato" font-size="14.00" fill="#ff7900">:ARG0</text>
</g>
<!-- j -->
<g id="node#j#justice" class="node">
<title>j</title>
<polygon fill="white" stroke="black" points="219.5,-210 158.5,-210 158.5,-174 219.5,-174 219.5,-210"></polygon>
<text xml:space="preserve" text-anchor="middle" x="189" y="-186.2" font-family="Lato" font-size="14.00">j/justice</text>
</g>
<!-- a&#45;&gt;j -->
<g id="edge#a#j#:ARG1" class="edge">
<title>a-&gt;j</title>
<path fill="none" stroke="#9164cd" d="M130.79,-260.57C137.64,-255.26 144.88,-249.19 151,-243 158.09,-235.83 165.01,-227.33 170.96,-219.38"></path>
<polygon fill="#9164cd" stroke="#9164cd" points="173.77,-221.47 176.8,-211.32 168.1,-217.36 173.77,-221.47"></polygon>
<text xml:space="preserve" text-anchor="middle" x="184.21" y="-229.7" font-family="Lato" font-size="14.00" fill="#9164cd">:ARG1</text>
</g>
<!-- n -->
<g id="node#n#name" class="node">
<title>n</title>
<polygon fill="white" stroke="black" points="136.88,-123 75.12,-123 75.12,-87 136.88,-87 136.88,-123"></polygon>
<text xml:space="preserve" text-anchor="middle" x="106" y="-99.2" font-family="Lato" font-size="14.00">n/name</text>
</g>
<!-- p&#45;&gt;n -->
<g id="edge#p#n#:name" class="edge">
<title>p-&gt;n</title>
<path fill="none" stroke="#492191" d="M106,-173.8C106,-162.58 106,-147.67 106,-134.69"></path>
<polygon fill="#492191" stroke="#492191" points="109.5,-134.98 106,-124.98 102.5,-134.98 109.5,-134.98"></polygon>
<text xml:space="preserve" text-anchor="middle" x="125.12" y="-142.7" font-family="Lato" font-size="14.00" fill="#492191">:name</text>
</g>
<!-- d -->
<g id="node#d#data" class="node">
<title>d</title>
<polygon fill="white" stroke="black" points="212,-123 158,-123 158,-87 212,-87 212,-123"></polygon>
<text xml:space="preserve" text-anchor="middle" x="185" y="-99.2" font-family="Lato" font-size="14.00">d/data</text>
</g>
<!-- j&#45;&gt;d -->
<g id="edge#j#d#:domain" class="edge">
<title>j-&gt;d</title>
<path fill="none" stroke="black" d="M188.19,-173.8C187.66,-162.58 186.96,-147.67 186.35,-134.69"></path>
<polygon fill="black" stroke="black" points="189.86,-134.8 185.89,-124.98 182.87,-135.13 189.86,-134.8"></polygon>
<text xml:space="preserve" text-anchor="middle" x="211.61" y="-142.7" font-family="Lato" font-size="14.00">:domain</text>
</g>
<!-- a2 -->
<g id="node#a2#amr-unknown" class="node">
<title>a2</title>
<polygon fill="white" stroke="black" points="347.62,-123 230.38,-123 230.38,-87 347.62,-87 347.62,-123"></polygon>
<text xml:space="preserve" text-anchor="middle" x="289" y="-99.2" font-family="Lato" font-size="14.00">a2/amr-unknown</text>
</g>
<!-- j&#45;&gt;a2 -->
<g id="edge#j#a2#:mod" class="edge">
<title>j-&gt;a2</title>
<path fill="none" stroke="#ffb400" d="M216.45,-173.6C224.29,-168.25 232.68,-162.15 240,-156 248.84,-148.58 257.87,-139.78 265.73,-131.64"></path>
<polygon fill="#ffb400" stroke="#ffb400" points="268.06,-134.27 272.4,-124.6 262.98,-129.45 268.06,-134.27"></polygon>
<text xml:space="preserve" text-anchor="middle" x="271.01" y="-142.7" font-family="Lato" font-size="14.00" fill="#ffb400">:mod</text>
</g>
<!-- n_1_DQUOTELinnetDQUOTE -->
<g id="literal#n#:op1#&quot;Linnet&quot;" class="node">
<title>n_1_DQUOTELinnetDQUOTE</title>
<ellipse fill="#ffe5cc" stroke="#ffe5cc" cx="56" cy="-18" rx="41.11" ry="18"></ellipse>
<text xml:space="preserve" text-anchor="middle" x="56" y="-12.2" font-family="Lato" font-size="14.00" fill="#595959">"Linnet"</text>
</g>
<!-- n&#45;&gt;n_1_DQUOTELinnetDQUOTE -->
<g id="edge#n#&quot;Linnet&quot;#:op1" class="edge">
<title>n-&gt;n_1_DQUOTELinnetDQUOTE</title>
<path fill="none" stroke="#595959" d="M95.88,-86.8C88.92,-74.97 79.55,-59.03 71.63,-45.58"></path>
<polygon fill="#595959" stroke="#595959" points="74.79,-44.03 66.7,-37.19 68.75,-47.58 74.79,-44.03"></polygon>
<text xml:space="preserve" text-anchor="middle" x="97.12" y="-55.7" font-family="Lato" font-size="14.00" fill="#595959">:op1</text>
</g>
<!-- n_2_DQUOTETaylorDQUOTE -->
<g id="literal#n#:op2#&quot;Taylor&quot;" class="node">
<title>n_2_DQUOTETaylorDQUOTE</title>
<ellipse fill="#ffe5cc" stroke="#ffe5cc" cx="156" cy="-18" rx="40.62" ry="18"></ellipse>
<text xml:space="preserve" text-anchor="middle" x="156" y="-12.2" font-family="Lato" font-size="14.00" fill="#595959">"Taylor"</text>
</g>
<!-- n&#45;&gt;n_2_DQUOTETaylorDQUOTE -->
<g id="edge#n#&quot;Taylor&quot;#:op2" class="edge">
<title>n-&gt;n_2_DQUOTETaylorDQUOTE</title>
<path fill="none" stroke="#595959" d="M116.12,-86.8C123.08,-74.97 132.45,-59.03 140.37,-45.58"></path>
<polygon fill="#595959" stroke="#595959" points="143.25,-47.58 145.3,-37.19 137.21,-44.03 143.25,-47.58"></polygon>
<text xml:space="preserve" text-anchor="middle" x="147.12" y="-55.7" font-family="Lato" font-size="14.00" fill="#595959">:op2</text>
</g>
</g>
</svg>
