<!--?xml version="1.0" encoding="UTF-8" standalone="no"?-->

<!-- Generated by graphviz version 14.0.1 (20251006.0113)
 -->
<!-- Title: amr_graph Pages: 1 -->
<svg onmousedown="info(event);" width="1043pt" height="305pt" viewBox="0.00 0.00 1043.00 305.00" xmlns="http://www.w3.org/2000/svg" xmlns:xlink="http://www.w3.org/1999/xlink">
<g id="graph0" class="graph" transform="scale(1 1) rotate(0) translate(4 301)">
<title>amr_graph</title>
<polygon fill="white" stroke="none" points="-4,4 -4,-301 1039.07,-301 1039.07,4 -4,4"></polygon>
<!-- p -->
<g id="node#p#publication-91" class="node">
<title>p</title>
<polygon fill="white" stroke="black" points="331.86,-297 212.36,-297 212.36,-261 331.86,-261 331.86,-297"></polygon>
<text xml:space="preserve" text-anchor="middle" x="272.11" y="-273.2" font-family="Lato Black" font-size="14.00">p/publication-91</text>
</g>
<!-- n -->
<g id="node#n#newspaper" class="node">
<title>n</title>
<polygon fill="white" stroke="black" points="261.73,-210 168.48,-210 168.48,-174 261.73,-174 261.73,-210"></polygon>
<text xml:space="preserve" text-anchor="middle" x="215.11" y="-186.2" font-family="Lato" font-size="14.00">n/newspaper</text>
</g>
<!-- p&#45;&gt;n -->
<g id="edge#p#n#:ARG0" class="edge">
<title>p-&gt;n</title>
<path fill="none" stroke="#ff7900" d="M260.57,-260.8C252.67,-249.01 242.03,-233.14 233.02,-219.72"></path>
<polygon fill="#ff7900" stroke="#ff7900" points="236.14,-218.08 227.67,-211.72 230.33,-221.98 236.14,-218.08"></polygon>
<text xml:space="preserve" text-anchor="middle" x="267.65" y="-229.7" font-family="Lato" font-size="14.00" fill="#ff7900">:ARG0</text>
</g>
<!-- p2 -->
<g id="node#p2#publication" class="node">
<title>p2</title>
<polygon fill="white" stroke="black" points="497.73,-210 398.48,-210 398.48,-174 497.73,-174 497.73,-210"></polygon>
<text xml:space="preserve" text-anchor="middle" x="448.11" y="-186.2" font-family="Lato" font-size="14.00">p2/publication</text>
</g>
<!-- p&#45;&gt;p2 -->
<g id="edge#p#p2#:ARG1" class="edge">
<title>p-&gt;p2</title>
<path fill="none" stroke="#9164cd" d="M308.15,-260.59C335.32,-247.47 372.78,-229.38 402.11,-215.21"></path>
<polygon fill="#9164cd" stroke="#9164cd" points="403.27,-218.54 410.75,-211.04 400.23,-212.24 403.27,-218.54"></polygon>
<text xml:space="preserve" text-anchor="middle" x="391.27" y="-229.7" font-family="Lato" font-size="14.00" fill="#9164cd">:ARG1</text>
</g>
<!-- n2 -->
<g id="node#n2#name" class="node">
<title>n2</title>
<polygon fill="white" stroke="black" points="129.73,-123 60.48,-123 60.48,-87 129.73,-87 129.73,-123"></polygon>
<text xml:space="preserve" text-anchor="middle" x="95.11" y="-99.2" font-family="Lato" font-size="14.00">n2/name</text>
</g>
<!-- n&#45;&gt;n2 -->
<g id="edge#n#n2#:name" class="edge">
<title>n-&gt;n2</title>
<path fill="none" stroke="#492191" d="M168.02,-189.99C142.39,-186.73 112.58,-177.98 95.86,-156 91.31,-150.01 89.75,-142.35 89.68,-134.84"></path>
<polygon fill="#492191" stroke="#492191" points="93.17,-135.16 90.46,-124.92 86.19,-134.61 93.17,-135.16"></polygon>
<text xml:space="preserve" text-anchor="middle" x="114.98" y="-142.7" font-family="Lato" font-size="14.00" fill="#492191">:name</text>
</g>
<!-- p2&#45;&gt;n2 -->
<g id="edge#p2#n2#:name" class="edge">
<title>p2-&gt;n2</title>
<path fill="none" stroke="#492191" d="M398.34,-185.85C353.53,-180.55 286.11,-170.94 228.86,-156 190.95,-146.1 180.46,-139.15 140.88,-123.71"></path>
<polygon fill="#492191" stroke="#492191" points="142.16,-120.46 131.57,-120.14 139.65,-126.99 142.16,-120.46"></polygon>
<text xml:space="preserve" text-anchor="middle" x="247.98" y="-142.7" font-family="Lato" font-size="14.00" fill="#492191">:name</text>
</g>
<!-- p2_2_DQUOTETheDQUOTE -->
<g id="literal#p2#:op1#&quot;The&quot;" class="node">
<title>p2_2_DQUOTETheDQUOTE</title>
<ellipse fill="#ffe5cc" stroke="#ffe5cc" cx="180.11" cy="-105" rx="32.33" ry="18"></ellipse>
<text xml:space="preserve" text-anchor="middle" x="180.11" y="-99.2" font-family="Lato" font-size="14.00" fill="#595959">"The"</text>
</g>
<!-- p2&#45;&gt;p2_2_DQUOTETheDQUOTE -->
<g id="edge#p2#&quot;The&quot;#:op1" class="edge">
<title>p2-&gt;p2_2_DQUOTETheDQUOTE</title>
<path fill="none" stroke="#595959" d="M398,-178.57C373.43,-172.24 343.46,-164.17 316.86,-156 274.23,-142.91 263.84,-138.7 222.11,-123 220.07,-122.23 217.97,-121.43 215.86,-120.61"></path>
<polygon fill="#595959" stroke="#595959" points="217.34,-117.43 206.76,-117.01 214.77,-123.94 217.34,-117.43"></polygon>
<text xml:space="preserve" text-anchor="middle" x="329.98" y="-142.7" font-family="Lato" font-size="14.00" fill="#595959">:op1</text>
</g>
<!-- p2_3_DQUOTEDangersDQUOTE -->
<g id="literal#p2#:op2#&quot;Dangers&quot;" class="node">
<title>p2_3_DQUOTEDangersDQUOTE</title>
<ellipse fill="#ffe5cc" stroke="#ffe5cc" cx="281.11" cy="-105" rx="50.37" ry="18"></ellipse>
<text xml:space="preserve" text-anchor="middle" x="281.11" y="-99.2" font-family="Lato" font-size="14.00" fill="#595959">"Dangers"</text>
</g>
<!-- p2&#45;&gt;p2_3_DQUOTEDangersDQUOTE -->
<g id="edge#p2#&quot;Dangers&quot;#:op2" class="edge">
<title>p2-&gt;p2_3_DQUOTEDangersDQUOTE</title>
<path fill="none" stroke="#595959" d="M411.6,-173.62C400.12,-168.07 387.43,-161.85 375.86,-156 356.57,-146.24 335.28,-135.04 317.76,-125.72"></path>
<polygon fill="#595959" stroke="#595959" points="319.74,-122.81 309.27,-121.19 316.44,-128.98 319.74,-122.81"></polygon>
<text xml:space="preserve" text-anchor="middle" x="388.98" y="-142.7" font-family="Lato" font-size="14.00" fill="#595959">:op2</text>
</g>
<!-- p2_4_DQUOTEofDQUOTE -->
<g id="literal#p2#:op3#&quot;of&quot;" class="node">
<title>p2_4_DQUOTEofDQUOTE</title>
<ellipse fill="#ffe5cc" stroke="#ffe5cc" cx="376.11" cy="-105" rx="27" ry="18"></ellipse>
<text xml:space="preserve" text-anchor="middle" x="376.11" y="-99.2" font-family="Lato" font-size="14.00" fill="#595959">"of"</text>
</g>
<!-- p2&#45;&gt;p2_4_DQUOTEofDQUOTE -->
<g id="edge#p2#&quot;of&quot;#:op3" class="edge">
<title>p2-&gt;p2_4_DQUOTEofDQUOTE</title>
<path fill="none" stroke="#595959" d="M432.97,-173.6C428.12,-168 422.75,-161.75 417.86,-156 410.73,-147.61 402.99,-138.37 396.12,-130.14"></path>
<polygon fill="#595959" stroke="#595959" points="398.89,-127.99 389.8,-122.54 393.51,-132.46 398.89,-127.99"></polygon>
<text xml:space="preserve" text-anchor="middle" x="430.98" y="-142.7" font-family="Lato" font-size="14.00" fill="#595959">:op3</text>
</g>
<!-- p2_5_DQUOTEaDQUOTE -->
<g id="literal#p2#:op4#&quot;a&quot;" class="node">
<title>p2_5_DQUOTEaDQUOTE</title>
<ellipse fill="#ffe5cc" stroke="#ffe5cc" cx="448.11" cy="-105" rx="27" ry="18"></ellipse>
<text xml:space="preserve" text-anchor="middle" x="448.11" y="-99.2" font-family="Lato" font-size="14.00" fill="#595959">"a"</text>
</g>
<!-- p2&#45;&gt;p2_5_DQUOTEaDQUOTE -->
<g id="edge#p2#&quot;a&quot;#:op4" class="edge">
<title>p2-&gt;p2_5_DQUOTEaDQUOTE</title>
<path fill="none" stroke="#595959" d="M448.11,-173.8C448.11,-162.58 448.11,-147.67 448.11,-134.69"></path>
<polygon fill="#595959" stroke="#595959" points="451.61,-134.98 448.11,-124.98 444.61,-134.98 451.61,-134.98"></polygon>
<text xml:space="preserve" text-anchor="middle" x="461.23" y="-142.7" font-family="Lato" font-size="14.00" fill="#595959">:op4</text>
</g>
<!-- p2_6_DQUOTECentralisedDQUOTE -->
<g id="literal#p2#:op5#&quot;Centralised&quot;" class="node">
<title>p2_6_DQUOTECentralisedDQUOTE</title>
<ellipse fill="#ffe5cc" stroke="#ffe5cc" cx="555.11" cy="-105" rx="61.58" ry="18"></ellipse>
<text xml:space="preserve" text-anchor="middle" x="555.11" y="-99.2" font-family="Lato" font-size="14.00">"Centralised"</text>
</g>
<!-- p2&#45;&gt;p2_6_DQUOTECentralisedDQUOTE -->
<g id="edge#p2#&quot;Centralised&quot;#:op5" class="edge">
<title>p2-&gt;p2_6_DQUOTECentralisedDQUOTE</title>
<path fill="none" stroke="black" d="M470.02,-173.59C486.16,-160.77 508.28,-143.2 525.92,-129.19"></path>
<polygon fill="black" stroke="black" points="527.84,-132.13 533.49,-123.17 523.48,-126.65 527.84,-132.13"></polygon>
<text xml:space="preserve" text-anchor="middle" x="521.14" y="-142.7" font-family="Lato" font-size="14.00">:op5</text>
</g>
<!-- p2_7_DQUOTEDatabaseDQUOTE -->
<g id="literal#p2#:op6#&quot;Database&quot;" class="node">
<title>p2_7_DQUOTEDatabaseDQUOTE</title>
<ellipse fill="#ffe5cc" stroke="#ffe5cc" cx="689.11" cy="-105" rx="54.76" ry="18"></ellipse>
<text xml:space="preserve" text-anchor="middle" x="689.11" y="-99.2" font-family="Lato" font-size="14.00">"Database"</text>
</g>
<!-- p2&#45;&gt;p2_7_DQUOTEDatabaseDQUOTE -->
<g id="edge#p2#&quot;Database&quot;#:op6" class="edge">
<title>p2-&gt;p2_7_DQUOTEDatabaseDQUOTE</title>
<path fill="none" stroke="black" d="M497.46,-173.59C539.81,-158.66 600.42,-137.28 642.08,-122.59"></path>
<polygon fill="black" stroke="black" points="643.08,-125.95 651.35,-119.32 640.75,-119.34 643.08,-125.95"></polygon>
<text xml:space="preserve" text-anchor="middle" x="596.16" y="-142.7" font-family="Lato" font-size="14.00">:op6</text>
</g>
<!-- p2_8_DQUOTEforDQUOTE -->
<g id="literal#p2#:op7#&quot;for&quot;" class="node">
<title>p2_8_DQUOTEforDQUOTE</title>
<ellipse fill="#ffe5cc" stroke="#ffe5cc" cx="789.11" cy="-105" rx="27.46" ry="18"></ellipse>
<text xml:space="preserve" text-anchor="middle" x="789.11" y="-99.2" font-family="Lato" font-size="14.00">"for"</text>
</g>
<!-- p2&#45;&gt;p2_8_DQUOTEforDQUOTE -->
<g id="edge#p2#&quot;for&quot;#:op7" class="edge">
<title>p2-&gt;p2_8_DQUOTEforDQUOTE</title>
<path fill="none" stroke="black" d="M498.23,-183.53C559.49,-173.55 665.79,-153.53 753.11,-123 754.66,-122.46 756.23,-121.87 757.81,-121.25"></path>
<polygon fill="black" stroke="black" points="758.9,-124.59 766.71,-117.42 756.14,-118.16 758.9,-124.59"></polygon>
<text xml:space="preserve" text-anchor="middle" x="700.91" y="-142.7" font-family="Lato" font-size="14.00">:op7</text>
</g>
<!-- p2_9_DQUOTEJusticeDQUOTE -->
<g id="literal#p2#:op8#&quot;Justice&quot;" class="node">
<title>p2_9_DQUOTEJusticeDQUOTE</title>
<ellipse fill="#ffe5cc" stroke="#ffe5cc" cx="879.11" cy="-105" rx="44.52" ry="18"></ellipse>
<text xml:space="preserve" text-anchor="middle" x="879.11" y="-99.2" font-family="Lato" font-size="14.00">"Justice"</text>
</g>
<!-- p2&#45;&gt;p2_9_DQUOTEJusticeDQUOTE -->
<g id="edge#p2#&quot;Justice&quot;#:op8" class="edge">
<title>p2-&gt;p2_9_DQUOTEJusticeDQUOTE</title>
<path fill="none" stroke="black" d="M497.81,-187.11C552.31,-182.26 642.13,-172.52 718.11,-156 766.74,-145.43 777.6,-137.81 825.11,-123 828,-122.1 830.98,-121.17 833.98,-120.23"></path>
<polygon fill="black" stroke="black" points="834.9,-123.61 843.39,-117.27 832.81,-116.93 834.9,-123.61"></polygon>
<text xml:space="preserve" text-anchor="middle" x="785.15" y="-142.7" font-family="Lato" font-size="14.00">:op8</text>
</g>
<!-- p2_10_DQUOTESystemDQUOTE -->
<g id="literal#p2#:op9#&quot;System&quot;" class="node">
<title>p2_10_DQUOTESystemDQUOTE</title>
<ellipse fill="#ffe5cc" stroke="#ffe5cc" cx="988.11" cy="-105" rx="46.96" ry="18"></ellipse>
<text xml:space="preserve" text-anchor="middle" x="988.11" y="-99.2" font-family="Lato" font-size="14.00">"System"</text>
</g>
<!-- p2&#45;&gt;p2_10_DQUOTESystemDQUOTE -->
<g id="edge#p2#&quot;System&quot;#:op9" class="edge">
<title>p2-&gt;p2_10_DQUOTESystemDQUOTE</title>
<path fill="none" stroke="black" d="M497.96,-188.41C566.78,-184.3 694.57,-174.75 802.11,-156 850.83,-147.5 905.34,-132.14 942.68,-120.67"></path>
<polygon fill="black" stroke="black" points="943.26,-124.16 951.77,-117.85 941.19,-117.47 943.26,-124.16"></polygon>
<text xml:space="preserve" text-anchor="middle" x="882.44" y="-142.7" font-family="Lato" font-size="14.00">:op9</text>
</g>
<!-- n2_0_DQUOTEIndianDQUOTE -->
<g id="literal#n2#:op1#&quot;Indian&quot;" class="node">
<title>n2_0_DQUOTEIndianDQUOTE</title>
<ellipse fill="#ffe5cc" stroke="#ffe5cc" cx="41.11" cy="-18" rx="41.11" ry="18"></ellipse>
<text xml:space="preserve" text-anchor="middle" x="41.11" y="-12.2" font-family="Lato" font-size="14.00" fill="#595959">"Indian"</text>
</g>
<!-- n2&#45;&gt;n2_0_DQUOTEIndianDQUOTE -->
<g id="edge#n2#&quot;Indian&quot;#:op1" class="edge">
<title>n2-&gt;n2_0_DQUOTEIndianDQUOTE</title>
<path fill="none" stroke="#595959" d="M84.18,-86.8C76.62,-74.89 66.41,-58.82 57.83,-45.31"></path>
<polygon fill="#595959" stroke="#595959" points="60.78,-43.44 52.46,-36.87 54.87,-47.19 60.78,-43.44"></polygon>
<text xml:space="preserve" text-anchor="middle" x="84.47" y="-55.7" font-family="Lato" font-size="14.00" fill="#595959">:op1</text>
</g>
<!-- n2_1_DQUOTEExpressDQUOTE -->
<g id="literal#n2#:op2#&quot;Express&quot;" class="node">
<title>n2_1_DQUOTEExpressDQUOTE</title>
<ellipse fill="#ffe5cc" stroke="#ffe5cc" cx="149.11" cy="-18" rx="48.91" ry="18"></ellipse>
<text xml:space="preserve" text-anchor="middle" x="149.11" y="-12.2" font-family="Lato" font-size="14.00" fill="#595959">"Express"</text>
</g>
<!-- n2&#45;&gt;n2_1_DQUOTEExpressDQUOTE -->
<g id="edge#n2#&quot;Express&quot;#:op2" class="edge">
<title>n2-&gt;n2_1_DQUOTEExpressDQUOTE</title>
<path fill="none" stroke="#595959" d="M106.04,-86.8C113.55,-74.97 123.68,-59.03 132.22,-45.58"></path>
<polygon fill="#595959" stroke="#595959" points="135.16,-47.48 137.57,-37.16 129.25,-43.73 135.16,-47.48"></polygon>
<text xml:space="preserve" text-anchor="middle" x="138.47" y="-55.7" font-family="Lato" font-size="14.00" fill="#595959">:op2</text>
</g>
</g>
</svg>
