<!--?xml version="1.0" encoding="UTF-8" standalone="no"?-->

<!-- Generated by graphviz version 14.0.1 (20251006.0113)
 -->
<!-- Title: amr_graph Pages: 1 -->
<svg onmousedown="info(event);" width="444pt" height="827pt" viewBox="0.00 0.00 444.00 827.00" xmlns="http://www.w3.org/2000/svg" xmlns:xlink="http://www.w3.org/1999/xlink">
<g id="graph0" class="graph" transform="scale(1 1) rotate(0) translate(4 823)">
<title>amr_graph</title>
<polygon fill="white" stroke="none" points="-4,4 -4,-823 440.12,-823 440.12,4 -4,4"></polygon>
<!-- c -->
<g id="node#c#contrast-01" class="node">
<title>c</title>
<polygon fill="white" stroke="black" points="302.25,-819 202.25,-819 202.25,-783 302.25,-783 302.25,-819"></polygon>
<text xml:space="preserve" text-anchor="middle" x="252.25" y="-795.2" font-family="Lato Black" font-size="14.00">c/contrast-01</text>
</g>
<!-- ii -->
<g id="node#ii#include-01" class="node">
<title>ii</title>
<polygon fill="white" stroke="black" points="245.25,-732 157.25,-732 157.25,-696 245.25,-696 245.25,-732"></polygon>
<text xml:space="preserve" text-anchor="middle" x="201.25" y="-708.2" font-family="Lato" font-size="14.00">ii/include-01</text>
</g>
<!-- c&#45;&gt;ii -->
<g id="edge#c#ii#:ARG1" class="edge">
<title>c-&gt;ii</title>
<path fill="none" stroke="#9164cd" d="M241.01,-782.65C237.43,-777.05 233.5,-770.79 230,-765 225.56,-757.66 220.87,-749.64 216.6,-742.21"></path>
<polygon fill="#9164cd" stroke="#9164cd" points="219.66,-740.5 211.66,-733.55 213.58,-743.97 219.66,-740.5"></polygon>
<text xml:space="preserve" text-anchor="middle" x="250.62" y="-751.7" font-family="Lato" font-size="14.00" fill="#9164cd">:ARG1</text>
</g>
<!-- s3 -->
<g id="node#s3#stop-01" class="node">
<title>s3</title>
<polygon fill="white" stroke="black" points="355.75,-732 276.75,-732 276.75,-696 355.75,-696 355.75,-732"></polygon>
<text xml:space="preserve" text-anchor="middle" x="316.25" y="-708.2" font-family="Lato" font-size="14.00">s3/stop-01</text>
</g>
<!-- c&#45;&gt;s3 -->
<g id="edge#c#s3#:ARG2" class="edge">
<title>c-&gt;s3</title>
<path fill="none" stroke="#4bb4e6" d="M265.2,-782.8C274.16,-770.9 286.26,-754.83 296.43,-741.32"></path>
<polygon fill="#4bb4e6" stroke="#4bb4e6" points="298.97,-743.77 302.19,-733.68 293.38,-739.56 298.97,-743.77"></polygon>
<text xml:space="preserve" text-anchor="middle" x="308.71" y="-751.7" font-family="Lato" font-size="14.00" fill="#4bb4e6">:ARG2</text>
</g>
<!-- a -->
<g id="node#a#and" class="node">
<title>a</title>
<polygon fill="white" stroke="black" points="164.25,-645 110.25,-645 110.25,-609 164.25,-609 164.25,-645"></polygon>
<text xml:space="preserve" text-anchor="middle" x="137.25" y="-621.2" font-family="Lato" font-size="14.00">a/and</text>
</g>
<!-- ii&#45;&gt;a -->
<g id="edge#ii#a#:ARG1" class="edge">
<title>ii-&gt;a</title>
<path fill="none" stroke="#9164cd" d="M171.05,-695.64C164.36,-690.65 157.84,-684.72 153,-678 148.41,-671.62 145.12,-663.86 142.78,-656.38"></path>
<polygon fill="#9164cd" stroke="#9164cd" points="146.22,-655.69 140.3,-646.9 139.45,-657.46 146.22,-655.69"></polygon>
<text xml:space="preserve" text-anchor="middle" x="173.62" y="-664.7" font-family="Lato" font-size="14.00" fill="#9164cd">:ARG1</text>
</g>
<!-- t -->
<g id="node#t#this" class="node">
<title>t</title>
<polygon fill="white" stroke="black" points="260.25,-645 206.25,-645 206.25,-609 260.25,-609 260.25,-645"></polygon>
<text xml:space="preserve" text-anchor="middle" x="233.25" y="-621.2" font-family="Lato" font-size="14.00">t/this</text>
</g>
<!-- ii&#45;&gt;t -->
<g id="edge#ii#t#:ARG2" class="edge">
<title>ii-&gt;t</title>
<path fill="none" stroke="#4bb4e6" d="M198.6,-695.76C197.77,-685.85 197.96,-673.35 202,-663 203.19,-659.94 204.79,-656.98 206.62,-654.15"></path>
<polygon fill="#4bb4e6" stroke="#4bb4e6" points="209.3,-656.42 212.65,-646.37 203.76,-652.13 209.3,-656.42"></polygon>
<text xml:space="preserve" text-anchor="middle" x="222.62" y="-664.7" font-family="Lato" font-size="14.00" fill="#4bb4e6">:ARG2</text>
</g>
<!-- s3&#45;&gt;t -->
<g id="edge#s3#t#:ARG1" class="edge">
<title>s3-&gt;t</title>
<path fill="none" stroke="#9164cd" d="M295.84,-695.66C289.64,-690.17 282.91,-683.97 277,-678 269.45,-670.38 261.61,-661.7 254.69,-653.73"></path>
<polygon fill="#9164cd" stroke="#9164cd" points="257.48,-651.6 248.32,-646.28 252.16,-656.16 257.48,-651.6"></polygon>
<text xml:space="preserve" text-anchor="middle" x="297.62" y="-664.7" font-family="Lato" font-size="14.00" fill="#9164cd">:ARG1</text>
</g>
<!-- s3_0_&#45; -->
<g id="literal#s3#:polarity#-" class="node">
<title>s3_0_-</title>
<ellipse fill="#ffe5cc" stroke="#ffe5cc" cx="329.25" cy="-627" rx="27" ry="18"></ellipse>
<text xml:space="preserve" text-anchor="middle" x="329.25" y="-621.2" font-family="Lato" font-size="14.00">-</text>
</g>
<!-- s3&#45;&gt;s3_0_&#45; -->
<g id="edge#s3#-#:polarity" class="edge">
<title>s3-&gt;s3_0_-</title>
<path fill="none" stroke="black" d="M318.88,-695.8C320.61,-684.51 322.91,-669.47 324.9,-656.43"></path>
<polygon fill="black" stroke="black" points="328.34,-657.09 326.39,-646.67 321.42,-656.03 328.34,-657.09"></polygon>
<text xml:space="preserve" text-anchor="middle" x="347.15" y="-664.7" font-family="Lato" font-size="14.00">:polarity</text>
</g>
<!-- t2 -->
<g id="node#t2#there" class="node">
<title>t2</title>
<polygon fill="white" stroke="black" points="436.12,-645 374.38,-645 374.38,-609 436.12,-609 436.12,-645"></polygon>
<text xml:space="preserve" text-anchor="middle" x="405.25" y="-621.2" font-family="Lato" font-size="14.00">t2/there</text>
</g>
<!-- s3&#45;&gt;t2 -->
<g id="edge#s3#t2#:time" class="edge">
<title>s3-&gt;t2</title>
<path fill="none" stroke="#085ebd" d="M351.99,-695.65C360.2,-690.66 368.5,-684.72 375.25,-678 381.84,-671.45 387.56,-663.17 392.18,-655.24"></path>
<polygon fill="#085ebd" stroke="#085ebd" points="395.22,-656.99 396.9,-646.53 389.06,-653.65 395.22,-656.99"></polygon>
<text xml:space="preserve" text-anchor="middle" x="402.24" y="-664.7" font-family="Lato" font-size="14.00" fill="#085ebd">:time</text>
</g>
<!-- s -->
<g id="node#s#statistics" class="node">
<title>s</title>
<polygon fill="white" stroke="black" points="124.38,-558 46.12,-558 46.12,-522 124.38,-522 124.38,-558"></polygon>
<text xml:space="preserve" text-anchor="middle" x="85.25" y="-534.2" font-family="Lato" font-size="14.00">s/statistics</text>
</g>
<!-- a&#45;&gt;s -->
<g id="edge#a#s#:op1" class="edge">
<title>a-&gt;s</title>
<path fill="none" stroke="#595959" d="M126.73,-608.8C119.59,-597.12 109.99,-581.45 101.83,-568.11"></path>
<polygon fill="#595959" stroke="#595959" points="104.93,-566.46 96.73,-559.76 98.96,-570.12 104.93,-566.46"></polygon>
<text xml:space="preserve" text-anchor="middle" x="127.49" y="-577.7" font-family="Lato" font-size="14.00" fill="#595959">:op1</text>
</g>
<!-- r -->
<g id="node#r#research-01" class="node">
<title>r</title>
<polygon fill="white" stroke="black" points="261.38,-558 165.12,-558 165.12,-522 261.38,-522 261.38,-558"></polygon>
<text xml:space="preserve" text-anchor="middle" x="213.25" y="-534.2" font-family="Lato" font-size="14.00">r/research-01</text>
</g>
<!-- a&#45;&gt;r -->
<g id="edge#a#r#:op2" class="edge">
<title>a-&gt;r</title>
<path fill="none" stroke="#595959" d="M152.63,-608.8C163.37,-596.78 177.91,-580.52 190.06,-566.94"></path>
<polygon fill="#595959" stroke="#595959" points="192.57,-569.38 196.62,-559.6 187.35,-564.72 192.57,-569.38"></polygon>
<text xml:space="preserve" text-anchor="middle" x="192.93" y="-577.7" font-family="Lato" font-size="14.00" fill="#595959">:op2</text>
</g>
<!-- c2 -->
<g id="node#c2#court" class="node">
<title>c2</title>
<polygon fill="white" stroke="black" points="70.25,-471 6.25,-471 6.25,-435 70.25,-435 70.25,-471"></polygon>
<text xml:space="preserve" text-anchor="middle" x="38.25" y="-447.2" font-family="Lato" font-size="14.00">c2/court</text>
</g>
<!-- s&#45;&gt;c2 -->
<g id="edge#s#c2#:mod" class="edge">
<title>s-&gt;c2</title>
<path fill="none" stroke="#ffb400" d="M75.74,-521.8C69.35,-510.24 60.78,-494.75 53.46,-481.5"></path>
<polygon fill="#ffb400" stroke="#ffb400" points="56.54,-479.85 48.64,-472.79 50.42,-483.24 56.54,-479.85"></polygon>
<text xml:space="preserve" text-anchor="middle" x="79.94" y="-490.7" font-family="Lato" font-size="14.00" fill="#ffb400">:mod</text>
</g>
<!-- e -->
<g id="node#e#expect-01" class="node">
<title>e</title>
<polygon fill="white" stroke="black" points="174.5,-471 88,-471 88,-435 174.5,-435 174.5,-471"></polygon>
<text xml:space="preserve" text-anchor="middle" x="131.25" y="-447.2" font-family="Lato" font-size="14.00">e/expect-01</text>
</g>
<!-- r&#45;&gt;e -->
<g id="edge#r#e#:ARG1" class="edge">
<title>r-&gt;e</title>
<path fill="none" stroke="#9164cd" d="M196.14,-521.59C190.65,-515.99 184.55,-509.75 179,-504 171.28,-496.01 162.9,-487.27 155.35,-479.36"></path>
<polygon fill="#9164cd" stroke="#9164cd" points="158.03,-477.09 148.6,-472.27 152.96,-481.92 158.03,-477.09"></polygon>
<text xml:space="preserve" text-anchor="middle" x="199.62" y="-490.7" font-family="Lato" font-size="14.00" fill="#9164cd">:ARG1</text>
</g>
<!-- e2 -->
<g id="node#e2#empirical" class="node">
<title>e2</title>
<polygon fill="white" stroke="black" points="282,-471 192.5,-471 192.5,-435 282,-435 282,-471"></polygon>
<text xml:space="preserve" text-anchor="middle" x="237.25" y="-447.2" font-family="Lato" font-size="14.00">e2/empirical</text>
</g>
<!-- r&#45;&gt;e2 -->
<g id="edge#r#e2#:mod" class="edge">
<title>r-&gt;e2</title>
<path fill="none" stroke="#ffb400" d="M218.11,-521.8C221.31,-510.47 225.57,-495.36 229.26,-482.29"></path>
<polygon fill="#ffb400" stroke="#ffb400" points="232.56,-483.5 231.91,-472.92 225.82,-481.6 232.56,-483.5"></polygon>
<text xml:space="preserve" text-anchor="middle" x="242.06" y="-490.7" font-family="Lato" font-size="14.00" fill="#ffb400">:mod</text>
</g>
<!-- f -->
<g id="node#f#further" class="node">
<title>f</title>
<polygon fill="white" stroke="black" points="362.5,-471 300,-471 300,-435 362.5,-435 362.5,-471"></polygon>
<text xml:space="preserve" text-anchor="middle" x="331.25" y="-447.2" font-family="Lato" font-size="14.00">f/further</text>
</g>
<!-- r&#45;&gt;f -->
<g id="edge#r#f#:mod" class="edge">
<title>r-&gt;f</title>
<path fill="none" stroke="#ffb400" d="M237.41,-521.59C254.83,-509.05 278.57,-491.95 297.8,-478.09"></path>
<polygon fill="#ffb400" stroke="#ffb400" points="299.82,-480.95 305.89,-472.27 295.73,-475.27 299.82,-480.95"></polygon>
<text xml:space="preserve" text-anchor="middle" x="294.69" y="-490.7" font-family="Lato" font-size="14.00" fill="#ffb400">:mod</text>
</g>
<!-- p -->
<g id="node#p#person" class="node">
<title>p</title>
<polygon fill="white" stroke="black" points="68.5,-384 0,-384 0,-348 68.5,-348 68.5,-384"></polygon>
<text xml:space="preserve" text-anchor="middle" x="34.25" y="-360.2" font-family="Lato" font-size="14.00">p/person</text>
</g>
<!-- e&#45;&gt;p -->
<g id="edge#e#p#:ARG0" class="edge">
<title>e-&gt;p</title>
<path fill="none" stroke="#ff7900" d="M107.84,-434.67C100.7,-429.18 92.91,-422.98 86,-417 76.93,-409.15 67.39,-400.16 59,-391.98"></path>
<polygon fill="#ff7900" stroke="#ff7900" points="61.71,-389.74 52.13,-385.22 56.8,-394.73 61.71,-389.74"></polygon>
<text xml:space="preserve" text-anchor="middle" x="106.62" y="-403.7" font-family="Lato" font-size="14.00" fill="#ff7900">:ARG0</text>
</g>
<!-- ii2 -->
<g id="node#ii2#institution" class="node">
<title>ii2</title>
<polygon fill="white" stroke="black" points="176.38,-384 86.12,-384 86.12,-348 176.38,-348 176.38,-384"></polygon>
<text xml:space="preserve" text-anchor="middle" x="131.25" y="-360.2" font-family="Lato" font-size="14.00">ii2/institution</text>
</g>
<!-- e&#45;&gt;ii2 -->
<g id="edge#e#ii2#:ARG1" class="edge">
<title>e-&gt;ii2</title>
<path fill="none" stroke="#9164cd" d="M131.25,-434.8C131.25,-423.58 131.25,-408.67 131.25,-395.69"></path>
<polygon fill="#9164cd" stroke="#9164cd" points="134.75,-395.98 131.25,-385.98 127.75,-395.98 134.75,-395.98"></polygon>
<text xml:space="preserve" text-anchor="middle" x="151.88" y="-403.7" font-family="Lato" font-size="14.00" fill="#9164cd">:ARG1</text>
</g>
<!-- p3 -->
<g id="node#p3#pharmacy" class="node">
<title>p3</title>
<polygon fill="white" stroke="black" points="289.62,-384 194.88,-384 194.88,-348 289.62,-348 289.62,-384"></polygon>
<text xml:space="preserve" text-anchor="middle" x="242.25" y="-360.2" font-family="Lato" font-size="14.00">p3/pharmacy</text>
</g>
<!-- e&#45;&gt;p3 -->
<g id="edge#e#p3#:mod" class="edge">
<title>e-&gt;p3</title>
<path fill="none" stroke="#ffb400" d="M153.98,-434.59C170.29,-422.1 192.49,-405.11 210.54,-391.28"></path>
<polygon fill="#ffb400" stroke="#ffb400" points="212.54,-394.16 218.35,-385.3 208.28,-388.6 212.54,-394.16"></polygon>
<text xml:space="preserve" text-anchor="middle" x="208.77" y="-403.7" font-family="Lato" font-size="14.00" fill="#ffb400">:mod</text>
</g>
<!-- u -->
<g id="node#u#use-01" class="node">
<title>u</title>
<polygon fill="white" stroke="black" points="68.5,-297 0,-297 0,-261 68.5,-261 68.5,-297"></polygon>
<text xml:space="preserve" text-anchor="middle" x="34.25" y="-273.2" font-family="Lato" font-size="14.00">u/use-01</text>
</g>
<!-- p&#45;&gt;u -->
<g id="edge#p#u#:ARG0-of" class="edge">
<title>p-&gt;u</title>
<path fill="none" stroke="#ff7900" d="M34.25,-347.8C34.25,-336.58 34.25,-321.67 34.25,-308.69"></path>
<polygon fill="#ff7900" stroke="#ff7900" points="37.75,-308.98 34.25,-298.98 30.75,-308.98 37.75,-308.98"></polygon>
<text xml:space="preserve" text-anchor="middle" x="62.75" y="-316.7" font-family="Lato" font-size="14.00" fill="#ff7900">:ARG0-of</text>
</g>
<!-- j -->
<g id="node#j#justice" class="node">
<title>j</title>
<polygon fill="white" stroke="black" points="154.75,-297 93.75,-297 93.75,-261 154.75,-261 154.75,-297"></polygon>
<text xml:space="preserve" text-anchor="middle" x="124.25" y="-273.2" font-family="Lato" font-size="14.00">j/justice</text>
</g>
<!-- ii2&#45;&gt;j -->
<g id="edge#ii2#j#:mod" class="edge">
<title>ii2-&gt;j</title>
<path fill="none" stroke="#ffb400" d="M129.83,-347.8C128.91,-336.58 127.68,-321.67 126.61,-308.69"></path>
<polygon fill="#ffb400" stroke="#ffb400" points="130.12,-308.65 125.81,-298.98 123.15,-309.23 130.12,-308.65"></polygon>
<text xml:space="preserve" text-anchor="middle" x="143.54" y="-316.7" font-family="Lato" font-size="14.00" fill="#ffb400">:mod</text>
</g>
<!-- ii3 -->
<g id="node#ii3#include-01" class="node">
<title>ii3</title>
<polygon fill="white" stroke="black" points="268,-297 172.5,-297 172.5,-261 268,-261 268,-297"></polygon>
<text xml:space="preserve" text-anchor="middle" x="220.25" y="-273.2" font-family="Lato" font-size="14.00">ii3/include-01</text>
</g>
<!-- ii2&#45;&gt;ii3 -->
<g id="edge#ii2#ii3#:ARG2-of" class="edge">
<title>ii2-&gt;ii3</title>
<path fill="none" stroke="#4bb4e6" d="M149.26,-347.8C162.08,-335.55 179.52,-318.9 193.9,-305.16"></path>
<polygon fill="#4bb4e6" stroke="#4bb4e6" points="196.05,-307.95 200.87,-298.51 191.22,-302.89 196.05,-307.95"></polygon>
<text xml:space="preserve" text-anchor="middle" x="209.58" y="-316.7" font-family="Lato" font-size="14.00" fill="#4bb4e6">:ARG2-of</text>
</g>
<!-- c3 -->
<g id="node#c3#company" class="node">
<title>c3</title>
<polygon fill="white" stroke="black" points="265,-210 175.5,-210 175.5,-174 265,-174 265,-210"></polygon>
<text xml:space="preserve" text-anchor="middle" x="220.25" y="-186.2" font-family="Lato" font-size="14.00">c3/company</text>
</g>
<!-- ii3&#45;&gt;c3 -->
<g id="edge#ii3#c3#:ARG1" class="edge">
<title>ii3-&gt;c3</title>
<path fill="none" stroke="#9164cd" d="M220.25,-260.8C220.25,-249.58 220.25,-234.67 220.25,-221.69"></path>
<polygon fill="#9164cd" stroke="#9164cd" points="223.75,-221.98 220.25,-211.98 216.75,-221.98 223.75,-221.98"></polygon>
<text xml:space="preserve" text-anchor="middle" x="240.88" y="-229.7" font-family="Lato" font-size="14.00" fill="#9164cd">:ARG1</text>
</g>
<!-- p2 -->
<g id="node#p2#provide-01" class="node">
<title>p2</title>
<polygon fill="white" stroke="black" points="217.5,-123 119,-123 119,-87 217.5,-87 217.5,-123"></polygon>
<text xml:space="preserve" text-anchor="middle" x="168.25" y="-99.2" font-family="Lato" font-size="14.00">p2/provide-01</text>
</g>
<!-- c3&#45;&gt;p2 -->
<g id="edge#c3#p2#:ARG0-of" class="edge">
<title>c3-&gt;p2</title>
<path fill="none" stroke="#ff7900" d="M196.47,-173.67C190.79,-168.54 185.22,-162.53 181.25,-156 177.27,-149.46 174.5,-141.73 172.57,-134.33"></path>
<polygon fill="#ff7900" stroke="#ff7900" points="176.02,-133.7 170.51,-124.66 169.17,-135.17 176.02,-133.7"></polygon>
<text xml:space="preserve" text-anchor="middle" x="209.75" y="-142.7" font-family="Lato" font-size="14.00" fill="#ff7900">:ARG0-of</text>
</g>
<!-- l -->
<g id="node#l#legal-02" class="node">
<title>l</title>
<polygon fill="white" stroke="black" points="306.62,-123 235.88,-123 235.88,-87 306.62,-87 306.62,-123"></polygon>
<text xml:space="preserve" text-anchor="middle" x="271.25" y="-99.2" font-family="Lato" font-size="14.00">l/legal-02</text>
</g>
<!-- c3&#45;&gt;l -->
<g id="edge#c3#l#:ARG1-of" class="edge">
<title>c3-&gt;l</title>
<path fill="none" stroke="#9164cd" d="M230.57,-173.8C237.58,-162.12 246.98,-146.45 254.99,-133.11"></path>
<polygon fill="#9164cd" stroke="#9164cd" points="257.85,-135.14 259.99,-124.77 251.84,-131.54 257.85,-135.14"></polygon>
<text xml:space="preserve" text-anchor="middle" x="277.3" y="-142.7" font-family="Lato" font-size="14.00" fill="#9164cd">:ARG1-of</text>
</g>
<!-- s2 -->
<g id="node#s2#serve-01" class="node">
<title>s2</title>
<polygon fill="white" stroke="black" points="211.5,-36 125,-36 125,0 211.5,0 211.5,-36"></polygon>
<text xml:space="preserve" text-anchor="middle" x="168.25" y="-12.2" font-family="Lato" font-size="14.00">s2/serve-01</text>
</g>
<!-- p2&#45;&gt;s2 -->
<g id="edge#p2#s2#:ARG1" class="edge">
<title>p2-&gt;s2</title>
<path fill="none" stroke="#9164cd" d="M168.25,-86.8C168.25,-75.58 168.25,-60.67 168.25,-47.69"></path>
<polygon fill="#9164cd" stroke="#9164cd" points="171.75,-47.98 168.25,-37.98 164.75,-47.98 171.75,-47.98"></polygon>
<text xml:space="preserve" text-anchor="middle" x="188.88" y="-55.7" font-family="Lato" font-size="14.00" fill="#9164cd">:ARG1</text>
</g>
</g>
</svg>
