<!--?xml version="1.0" encoding="UTF-8" standalone="no"?-->

<!-- Generated by graphviz version 14.0.1 (20251006.0113)
 -->
<!-- Title: amr_graph Pages: 1 -->
<svg onmousedown="info(event);" width="1044pt" height="479pt" viewBox="0.00 0.00 1044.00 479.00" xmlns="http://www.w3.org/2000/svg" xmlns:xlink="http://www.w3.org/1999/xlink">
<g id="graph0" class="graph" transform="scale(1 1) rotate(0) translate(4 475)">
<title>amr_graph</title>
<polygon fill="white" stroke="none" points="-4,4 -4,-475 1040.12,-475 1040.12,4 -4,4"></polygon>
<!-- p -->
<g id="node#p#publication-91" class="node">
<title>p</title>
<polygon fill="white" stroke="black" points="544.75,-471 425.25,-471 425.25,-435 544.75,-435 544.75,-471"></polygon>
<text xml:space="preserve" text-anchor="middle" x="485" y="-447.2" font-family="Lato Black" font-size="14.00">p/publication-91</text>
</g>
<!-- a -->
<g id="node#a#and" class="node">
<title>a</title>
<polygon fill="white" stroke="black" points="159,-384 105,-384 105,-348 159,-348 159,-384"></polygon>
<text xml:space="preserve" text-anchor="middle" x="132" y="-360.2" font-family="Lato" font-size="14.00">a/and</text>
</g>
<!-- p&#45;&gt;a -->
<g id="edge#p#a#:ARG0" class="edge">
<title>p-&gt;a</title>
<path fill="none" stroke="#ff7900" d="M425.12,-437.58C352.31,-420.05 231.58,-390.98 170.27,-376.21"></path>
<polygon fill="#ff7900" stroke="#ff7900" points="171.19,-372.84 160.65,-373.9 169.56,-379.64 171.19,-372.84"></polygon>
<text xml:space="preserve" text-anchor="middle" x="350.26" y="-403.7" font-family="Lato" font-size="14.00" fill="#ff7900">:ARG0</text>
</g>
<!-- p4 -->
<g id="node#p4#publication" class="node">
<title>p4</title>
<polygon fill="white" stroke="black" points="534.62,-384 435.38,-384 435.38,-348 534.62,-348 534.62,-384"></polygon>
<text xml:space="preserve" text-anchor="middle" x="485" y="-360.2" font-family="Lato" font-size="14.00">p4/publication</text>
</g>
<!-- p&#45;&gt;p4 -->
<g id="edge#p#p4#:ARG1" class="edge">
<title>p-&gt;p4</title>
<path fill="none" stroke="#9164cd" d="M485,-434.8C485,-423.58 485,-408.67 485,-395.69"></path>
<polygon fill="#9164cd" stroke="#9164cd" points="488.5,-395.98 485,-385.98 481.5,-395.98 488.5,-395.98"></polygon>
<text xml:space="preserve" text-anchor="middle" x="505.62" y="-403.7" font-family="Lato" font-size="14.00" fill="#9164cd">:ARG1</text>
</g>
<!-- p6 -->
<g id="node#p6#publication" class="node">
<title>p6</title>
<polygon fill="white" stroke="black" points="898.62,-384 799.38,-384 799.38,-348 898.62,-348 898.62,-384"></polygon>
<text xml:space="preserve" text-anchor="middle" x="849" y="-360.2" font-family="Lato" font-size="14.00">p6/publication</text>
</g>
<!-- p&#45;&gt;p6 -->
<g id="edge#p#p6#:ARG4" class="edge">
<title>p-&gt;p6</title>
<path fill="none" stroke="#50be87" d="M545.11,-437.96C612.34,-422.26 720.65,-396.97 788.17,-381.2"></path>
<polygon fill="#50be87" stroke="#50be87" points="788.64,-384.69 797.58,-379.01 787.05,-377.87 788.64,-384.69"></polygon>
<text xml:space="preserve" text-anchor="middle" x="709.42" y="-403.7" font-family="Lato" font-size="14.00" fill="#50be87">:ARG4</text>
</g>
<!-- p2 -->
<g id="node#p2#person" class="node">
<title>p2</title>
<polygon fill="white" stroke="black" points="76,-297 0,-297 0,-261 76,-261 76,-297"></polygon>
<text xml:space="preserve" text-anchor="middle" x="38" y="-273.2" font-family="Lato" font-size="14.00">p2/person</text>
</g>
<!-- a&#45;&gt;p2 -->
<g id="edge#a#p2#:op1" class="edge">
<title>a-&gt;p2</title>
<path fill="none" stroke="#595959" d="M112.98,-347.8C99.43,-335.55 81.02,-318.9 65.83,-305.16"></path>
<polygon fill="#595959" stroke="#595959" points="68.2,-302.59 58.44,-298.48 63.51,-307.79 68.2,-302.59"></polygon>
<text xml:space="preserve" text-anchor="middle" x="103.75" y="-316.7" font-family="Lato" font-size="14.00" fill="#595959">:op1</text>
</g>
<!-- p3 -->
<g id="node#p3#person" class="node">
<title>p3</title>
<polygon fill="white" stroke="black" points="170,-297 94,-297 94,-261 170,-261 170,-297"></polygon>
<text xml:space="preserve" text-anchor="middle" x="132" y="-273.2" font-family="Lato" font-size="14.00">p3/person</text>
</g>
<!-- a&#45;&gt;p3 -->
<g id="edge#a#p3#:op2" class="edge">
<title>a-&gt;p3</title>
<path fill="none" stroke="#595959" d="M132,-347.8C132,-336.58 132,-321.67 132,-308.69"></path>
<polygon fill="#595959" stroke="#595959" points="135.5,-308.98 132,-298.98 128.5,-308.98 135.5,-308.98"></polygon>
<text xml:space="preserve" text-anchor="middle" x="145.12" y="-316.7" font-family="Lato" font-size="14.00" fill="#595959">:op2</text>
</g>
<!-- n2 -->
<g id="node#n2#name" class="node">
<title>n2</title>
<polygon fill="white" stroke="black" points="437.62,-297 368.38,-297 368.38,-261 437.62,-261 437.62,-297"></polygon>
<text xml:space="preserve" text-anchor="middle" x="403" y="-273.2" font-family="Lato" font-size="14.00">n2/name</text>
</g>
<!-- p4&#45;&gt;n2 -->
<g id="edge#p4#n2#:name" class="edge">
<title>p4-&gt;n2</title>
<path fill="none" stroke="#492191" d="M468.41,-347.8C456.7,-335.67 440.83,-319.21 427.65,-305.55"></path>
<polygon fill="#492191" stroke="#492191" points="430.36,-303.32 420.9,-298.56 425.33,-308.18 430.36,-303.32"></polygon>
<text xml:space="preserve" text-anchor="middle" x="468.03" y="-316.7" font-family="Lato" font-size="14.00" fill="#492191">:name</text>
</g>
<!-- t -->
<g id="node#t#title-01" class="node">
<title>t</title>
<polygon fill="white" stroke="black" points="600,-297 536,-297 536,-261 600,-261 600,-297"></polygon>
<text xml:space="preserve" text-anchor="middle" x="568" y="-273.2" font-family="Lato" font-size="14.00">t/title-01</text>
</g>
<!-- p4&#45;&gt;t -->
<g id="edge#p4#t#:ARG1-of" class="edge">
<title>p4-&gt;t</title>
<path fill="none" stroke="#9164cd" d="M501.8,-347.8C513.64,-335.67 529.71,-319.21 543.05,-305.55"></path>
<polygon fill="#9164cd" stroke="#9164cd" points="545.4,-308.15 549.89,-298.55 540.4,-303.26 545.4,-308.15"></polygon>
<text xml:space="preserve" text-anchor="middle" x="559.97" y="-316.7" font-family="Lato" font-size="14.00" fill="#9164cd">:ARG1-of</text>
</g>
<!-- n4 -->
<g id="node#n4#name" class="node">
<title>n4</title>
<polygon fill="white" stroke="black" points="829.62,-297 760.38,-297 760.38,-261 829.62,-261 829.62,-297"></polygon>
<text xml:space="preserve" text-anchor="middle" x="795" y="-273.2" font-family="Lato" font-size="14.00">n4/name</text>
</g>
<!-- p6&#45;&gt;n4 -->
<g id="edge#p6#n4#:name" class="edge">
<title>p6-&gt;n4</title>
<path fill="none" stroke="#492191" d="M836.05,-347.8C831.99,-342.21 827.57,-335.92 823.75,-330 819.1,-322.8 814.34,-314.82 810.07,-307.39"></path>
<polygon fill="#492191" stroke="#492191" points="813.13,-305.69 805.16,-298.7 807.04,-309.13 813.13,-305.69"></polygon>
<text xml:space="preserve" text-anchor="middle" x="842.88" y="-316.7" font-family="Lato" font-size="14.00" fill="#492191">:name</text>
</g>
<!-- r -->
<g id="node#r#report-01" class="node">
<title>r</title>
<polygon fill="white" stroke="black" points="926.5,-297 847.5,-297 847.5,-261 926.5,-261 926.5,-297"></polygon>
<text xml:space="preserve" text-anchor="middle" x="887" y="-273.2" font-family="Lato" font-size="14.00">r/report-01</text>
</g>
<!-- p6&#45;&gt;r -->
<g id="edge#p6#r#:ARG1-of" class="edge">
<title>p6-&gt;r</title>
<path fill="none" stroke="#9164cd" d="M856.69,-347.8C861.81,-336.35 868.64,-321.06 874.53,-307.89"></path>
<polygon fill="#9164cd" stroke="#9164cd" points="877.69,-309.41 878.57,-298.85 871.3,-306.55 877.69,-309.41"></polygon>
<text xml:space="preserve" text-anchor="middle" x="898.78" y="-316.7" font-family="Lato" font-size="14.00" fill="#9164cd">:ARG1-of</text>
</g>
<!-- d -->
<g id="node#d#date-entity" class="node">
<title>d</title>
<polygon fill="white" stroke="black" points="1036.12,-297 945.88,-297 945.88,-261 1036.12,-261 1036.12,-297"></polygon>
<text xml:space="preserve" text-anchor="middle" x="991" y="-273.2" font-family="Lato" font-size="14.00">d/date-entity</text>
</g>
<!-- p6&#45;&gt;d -->
<g id="edge#p6#d#:time" class="edge">
<title>p6-&gt;d</title>
<path fill="none" stroke="#085ebd" d="M896.14,-347.65C907.87,-342.6 920.17,-336.62 931,-330 942.6,-322.9 954.32,-313.69 964.29,-305.11"></path>
<polygon fill="#085ebd" stroke="#085ebd" points="966.59,-307.74 971.76,-298.49 961.95,-302.5 966.59,-307.74"></polygon>
<text xml:space="preserve" text-anchor="middle" x="967.02" y="-316.7" font-family="Lato" font-size="14.00" fill="#085ebd">:time</text>
</g>
<!-- n -->
<g id="node#n#name" class="node">
<title>n</title>
<polygon fill="white" stroke="black" points="68.88,-210 7.12,-210 7.12,-174 68.88,-174 68.88,-210"></polygon>
<text xml:space="preserve" text-anchor="middle" x="38" y="-186.2" font-family="Lato" font-size="14.00">n/name</text>
</g>
<!-- p2&#45;&gt;n -->
<g id="edge#p2#n#:name" class="edge">
<title>p2-&gt;n</title>
<path fill="none" stroke="#492191" d="M38,-260.8C38,-249.58 38,-234.67 38,-221.69"></path>
<polygon fill="#492191" stroke="#492191" points="41.5,-221.98 38,-211.98 34.5,-221.98 41.5,-221.98"></polygon>
<text xml:space="preserve" text-anchor="middle" x="57.12" y="-229.7" font-family="Lato" font-size="14.00" fill="#492191">:name</text>
</g>
<!-- o -->
<g id="node#o#other" class="node">
<title>o</title>
<polygon fill="white" stroke="black" points="153,-210 95,-210 95,-174 153,-174 153,-210"></polygon>
<text xml:space="preserve" text-anchor="middle" x="124" y="-186.2" font-family="Lato" font-size="14.00">o/other</text>
</g>
<!-- p3&#45;&gt;o -->
<g id="edge#p3#o#:mod" class="edge">
<title>p3-&gt;o</title>
<path fill="none" stroke="#ffb400" d="M130.38,-260.8C129.33,-249.58 127.92,-234.67 126.7,-221.69"></path>
<polygon fill="#ffb400" stroke="#ffb400" points="130.21,-221.6 125.79,-211.97 123.24,-222.26 130.21,-221.6"></polygon>
<text xml:space="preserve" text-anchor="middle" x="143.85" y="-229.7" font-family="Lato" font-size="14.00" fill="#ffb400">:mod</text>
</g>
<!-- n_0_DQUOTEBerkDQUOTE -->
<g id="literal#n#:op1#&quot;Berk&quot;" class="node">
<title>n_0_DQUOTEBerkDQUOTE</title>
<ellipse fill="#ffe5cc" stroke="#ffe5cc" cx="38" cy="-105" rx="35.26" ry="18"></ellipse>
<text xml:space="preserve" text-anchor="middle" x="38" y="-99.2" font-family="Lato" font-size="14.00" fill="#595959">"Berk"</text>
</g>
<!-- n&#45;&gt;n_0_DQUOTEBerkDQUOTE -->
<g id="edge#n#&quot;Berk&quot;#:op1" class="edge">
<title>n-&gt;n_0_DQUOTEBerkDQUOTE</title>
<path fill="none" stroke="#595959" d="M38,-173.8C38,-162.58 38,-147.67 38,-134.69"></path>
<polygon fill="#595959" stroke="#595959" points="41.5,-134.98 38,-124.98 34.5,-134.98 41.5,-134.98"></polygon>
<text xml:space="preserve" text-anchor="middle" x="51.12" y="-142.7" font-family="Lato" font-size="14.00" fill="#595959">:op1</text>
</g>
<!-- n2_1_DQUOTETheDQUOTE -->
<g id="literal#n2#:op1#&quot;The&quot;" class="node">
<title>n2_1_DQUOTETheDQUOTE</title>
<ellipse fill="#ffe5cc" stroke="#ffe5cc" cx="203" cy="-192" rx="32.33" ry="18"></ellipse>
<text xml:space="preserve" text-anchor="middle" x="203" y="-186.2" font-family="Lato" font-size="14.00" fill="#595959">"The"</text>
</g>
<!-- n2&#45;&gt;n2_1_DQUOTETheDQUOTE -->
<g id="edge#n2#&quot;The&quot;#:op1" class="edge">
<title>n2-&gt;n2_1_DQUOTETheDQUOTE</title>
<path fill="none" stroke="#595959" d="M368.25,-265.9C350.33,-259.47 328.21,-251.2 308.75,-243 284.21,-232.66 257.06,-219.8 236.41,-209.7"></path>
<polygon fill="#595959" stroke="#595959" points="238.14,-206.65 227.62,-205.37 235.04,-212.93 238.14,-206.65"></polygon>
<text xml:space="preserve" text-anchor="middle" x="321.88" y="-229.7" font-family="Lato" font-size="14.00" fill="#595959">:op1</text>
</g>
<!-- n2_2_DQUOTEStateDQUOTE -->
<g id="literal#n2#:op2#&quot;State&quot;" class="node">
<title>n2_2_DQUOTEStateDQUOTE</title>
<ellipse fill="#ffe5cc" stroke="#ffe5cc" cx="291" cy="-192" rx="37.7" ry="18"></ellipse>
<text xml:space="preserve" text-anchor="middle" x="291" y="-186.2" font-family="Lato" font-size="14.00" fill="#595959">"State"</text>
</g>
<!-- n2&#45;&gt;n2_2_DQUOTEStateDQUOTE -->
<g id="edge#n2#&quot;State&quot;#:op2" class="edge">
<title>n2-&gt;n2_2_DQUOTEStateDQUOTE</title>
<path fill="none" stroke="#595959" d="M379.94,-260.56C372.53,-254.96 364.29,-248.72 356.75,-243 344.61,-233.79 331.22,-223.61 319.71,-214.86"></path>
<polygon fill="#595959" stroke="#595959" points="321.84,-212.08 311.76,-208.81 317.6,-217.65 321.84,-212.08"></polygon>
<text xml:space="preserve" text-anchor="middle" x="369.88" y="-229.7" font-family="Lato" font-size="14.00" fill="#595959">:op2</text>
</g>
<!-- n2_3_DQUOTEofDQUOTE -->
<g id="literal#n2#:op3#&quot;of&quot;" class="node">
<title>n2_3_DQUOTEofDQUOTE</title>
<ellipse fill="#ffe5cc" stroke="#ffe5cc" cx="374" cy="-192" rx="27" ry="18"></ellipse>
<text xml:space="preserve" text-anchor="middle" x="374" y="-186.2" font-family="Lato" font-size="14.00" fill="#595959">"of"</text>
</g>
<!-- n2&#45;&gt;n2_3_DQUOTEofDQUOTE -->
<g id="edge#n2#&quot;of&quot;#:op3" class="edge">
<title>n2-&gt;n2_3_DQUOTEofDQUOTE</title>
<path fill="none" stroke="#595959" d="M397.13,-260.8C393.21,-249.32 387.98,-233.96 383.47,-220.77"></path>
<polygon fill="#595959" stroke="#595959" points="386.79,-219.65 380.25,-211.32 380.17,-221.91 386.79,-219.65"></polygon>
<text xml:space="preserve" text-anchor="middle" x="403.36" y="-229.7" font-family="Lato" font-size="14.00" fill="#595959">:op3</text>
</g>
<!-- n2_4_DQUOTEtheDQUOTE -->
<g id="literal#n2#:op4#&quot;the&quot;" class="node">
<title>n2_4_DQUOTEtheDQUOTE</title>
<ellipse fill="#ffe5cc" stroke="#ffe5cc" cx="448" cy="-192" rx="29.41" ry="18"></ellipse>
<text xml:space="preserve" text-anchor="middle" x="448" y="-186.2" font-family="Lato" font-size="14.00" fill="#595959">"the"</text>
</g>
<!-- n2&#45;&gt;n2_4_DQUOTEtheDQUOTE -->
<g id="edge#n2#&quot;the&quot;#:op4" class="edge">
<title>n2-&gt;n2_4_DQUOTEtheDQUOTE</title>
<path fill="none" stroke="#595959" d="M412.11,-260.8C418.35,-249.01 426.75,-233.14 433.86,-219.71"></path>
<polygon fill="#595959" stroke="#595959" points="436.92,-221.41 438.51,-210.93 430.73,-218.13 436.92,-221.41"></polygon>
<text xml:space="preserve" text-anchor="middle" x="441.32" y="-229.7" font-family="Lato" font-size="14.00" fill="#595959">:op4</text>
</g>
<!-- n2_5_DQUOTEArtDQUOTE -->
<g id="literal#n2#:op5#&quot;Art&quot;" class="node">
<title>n2_5_DQUOTEArtDQUOTE</title>
<ellipse fill="#ffe5cc" stroke="#ffe5cc" cx="524" cy="-192" rx="28.43" ry="18"></ellipse>
<text xml:space="preserve" text-anchor="middle" x="524" y="-186.2" font-family="Lato" font-size="14.00">"Art"</text>
</g>
<!-- n2&#45;&gt;n2_5_DQUOTEArtDQUOTE -->
<g id="edge#n2#&quot;Art&quot;#:op5" class="edge">
<title>n2-&gt;n2_5_DQUOTEArtDQUOTE</title>
<path fill="none" stroke="black" d="M431.27,-260.63C439.94,-255.14 449.45,-248.94 458,-243 471.32,-233.74 485.72,-222.93 497.66,-213.73"></path>
<polygon fill="black" stroke="black" points="499.69,-216.59 505.44,-207.69 495.4,-211.06 499.69,-216.59"></polygon>
<text xml:space="preserve" text-anchor="middle" x="491.44" y="-229.7" font-family="Lato" font-size="14.00">:op5</text>
</g>
<!-- p5 -->
<g id="node#p5#publication" class="node">
<title>p5</title>
<polygon fill="white" stroke="black" points="669.62,-210 570.38,-210 570.38,-174 669.62,-174 669.62,-210"></polygon>
<text xml:space="preserve" text-anchor="middle" x="620" y="-186.2" font-family="Lato" font-size="14.00">p5/publication</text>
</g>
<!-- t&#45;&gt;p5 -->
<g id="edge#t#p5#:ARG2" class="edge">
<title>t-&gt;p5</title>
<path fill="none" stroke="#4bb4e6" d="M578.52,-260.8C585.66,-249.12 595.26,-233.45 603.42,-220.11"></path>
<polygon fill="#4bb4e6" stroke="#4bb4e6" points="606.29,-222.12 608.52,-211.76 600.32,-218.46 606.29,-222.12"></polygon>
<text xml:space="preserve" text-anchor="middle" x="617.74" y="-229.7" font-family="Lato" font-size="14.00" fill="#4bb4e6">:ARG2</text>
</g>
<!-- n3 -->
<g id="node#n3#name" class="node">
<title>n3</title>
<polygon fill="white" stroke="black" points="654.62,-123 585.38,-123 585.38,-87 654.62,-87 654.62,-123"></polygon>
<text xml:space="preserve" text-anchor="middle" x="620" y="-99.2" font-family="Lato" font-size="14.00">n3/name</text>
</g>
<!-- p5&#45;&gt;n3 -->
<g id="edge#p5#n3#:name" class="edge">
<title>p5-&gt;n3</title>
<path fill="none" stroke="#492191" d="M620,-173.8C620,-162.58 620,-147.67 620,-134.69"></path>
<polygon fill="#492191" stroke="#492191" points="623.5,-134.98 620,-124.98 616.5,-134.98 623.5,-134.98"></polygon>
<text xml:space="preserve" text-anchor="middle" x="639.12" y="-142.7" font-family="Lato" font-size="14.00" fill="#492191">:name</text>
</g>
<!-- n3_6_DQUOTEGlobalDQUOTE -->
<g id="literal#n3#:op1#&quot;Global&quot;" class="node">
<title>n3_6_DQUOTEGlobalDQUOTE</title>
<ellipse fill="#ffe5cc" stroke="#ffe5cc" cx="317" cy="-18" rx="43.06" ry="18"></ellipse>
<text xml:space="preserve" text-anchor="middle" x="317" y="-12.2" font-family="Lato" font-size="14.00" fill="#595959">"Global"</text>
</g>
<!-- n3&#45;&gt;n3_6_DQUOTEGlobalDQUOTE -->
<g id="edge#n3#&quot;Global&quot;#:op1" class="edge">
<title>n3-&gt;n3_6_DQUOTEGlobalDQUOTE</title>
<path fill="none" stroke="#595959" d="M584.95,-96.34C555.22,-89.67 511.49,-79.45 473.75,-69 426.71,-55.98 415.48,-50.92 369,-36 366.44,-35.18 363.82,-34.33 361.17,-33.48"></path>
<polygon fill="#595959" stroke="#595959" points="362.3,-30.16 351.71,-30.4 360.14,-36.82 362.3,-30.16"></polygon>
<text xml:space="preserve" text-anchor="middle" x="486.88" y="-55.7" font-family="Lato" font-size="14.00" fill="#595959">:op1</text>
</g>
<!-- n3_7_DQUOTEFairnessDQUOTE -->
<g id="literal#n3#:op2#&quot;Fairness&quot;" class="node">
<title>n3_7_DQUOTEFairnessDQUOTE</title>
<ellipse fill="#ffe5cc" stroke="#ffe5cc" cx="429" cy="-18" rx="50.86" ry="18"></ellipse>
<text xml:space="preserve" text-anchor="middle" x="429" y="-12.2" font-family="Lato" font-size="14.00" fill="#595959">"Fairness"</text>
</g>
<!-- n3&#45;&gt;n3_7_DQUOTEFairnessDQUOTE -->
<g id="edge#n3#&quot;Fairness&quot;#:op2" class="edge">
<title>n3-&gt;n3_7_DQUOTEFairnessDQUOTE</title>
<path fill="none" stroke="#595959" d="M585.04,-89.64C570.11,-83.42 552.52,-75.97 536.75,-69 514.21,-59.03 489.23,-47.48 469,-37.98"></path>
<polygon fill="#595959" stroke="#595959" points="470.5,-34.82 459.96,-33.73 467.52,-41.16 470.5,-34.82"></polygon>
<text xml:space="preserve" text-anchor="middle" x="549.88" y="-55.7" font-family="Lato" font-size="14.00" fill="#595959">:op2</text>
</g>
<!-- n3_8_DQUOTEinDQUOTE -->
<g id="literal#n3#:op3#&quot;in&quot;" class="node">
<title>n3_8_DQUOTEinDQUOTE</title>
<ellipse fill="#ffe5cc" stroke="#ffe5cc" cx="525" cy="-18" rx="27" ry="18"></ellipse>
<text xml:space="preserve" text-anchor="middle" x="525" y="-12.2" font-family="Lato" font-size="14.00" fill="#595959">"in"</text>
</g>
<!-- n3&#45;&gt;n3_8_DQUOTEinDQUOTE -->
<g id="edge#n3#&quot;in&quot;#:op3" class="edge">
<title>n3-&gt;n3_8_DQUOTEinDQUOTE</title>
<path fill="none" stroke="#595959" d="M600.78,-86.8C585.86,-73.46 565.1,-54.88 549.08,-40.55"></path>
<polygon fill="#595959" stroke="#595959" points="551.65,-38.15 541.87,-34.09 546.98,-43.37 551.65,-38.15"></polygon>
<text xml:space="preserve" text-anchor="middle" x="591.31" y="-55.7" font-family="Lato" font-size="14.00" fill="#595959">:op3</text>
</g>
<!-- n3_9_DQUOTECriminalDQUOTE -->
<g id="literal#n3#:op4#&quot;Criminal&quot;" class="node">
<title>n3_9_DQUOTECriminalDQUOTE</title>
<ellipse fill="#ffe5cc" stroke="#ffe5cc" cx="620" cy="-18" rx="49.88" ry="18"></ellipse>
<text xml:space="preserve" text-anchor="middle" x="620" y="-12.2" font-family="Lato" font-size="14.00" fill="#595959">"Criminal"</text>
</g>
<!-- n3&#45;&gt;n3_9_DQUOTECriminalDQUOTE -->
<g id="edge#n3#&quot;Criminal&quot;#:op4" class="edge">
<title>n3-&gt;n3_9_DQUOTECriminalDQUOTE</title>
<path fill="none" stroke="#595959" d="M620,-86.8C620,-75.58 620,-60.67 620,-47.69"></path>
<polygon fill="#595959" stroke="#595959" points="623.5,-47.98 620,-37.98 616.5,-47.98 623.5,-47.98"></polygon>
<text xml:space="preserve" text-anchor="middle" x="633.12" y="-55.7" font-family="Lato" font-size="14.00" fill="#595959">:op4</text>
</g>
<!-- n3_10_DQUOTEJusticeDQUOTE -->
<g id="literal#n3#:op5#&quot;Justice&quot;" class="node">
<title>n3_10_DQUOTEJusticeDQUOTE</title>
<ellipse fill="#ffe5cc" stroke="#ffe5cc" cx="732" cy="-18" rx="44.52" ry="18"></ellipse>
<text xml:space="preserve" text-anchor="middle" x="732" y="-12.2" font-family="Lato" font-size="14.00">"Justice"</text>
</g>
<!-- n3&#45;&gt;n3_10_DQUOTEJusticeDQUOTE -->
<g id="edge#n3#&quot;Justice&quot;#:op5" class="edge">
<title>n3-&gt;n3_10_DQUOTEJusticeDQUOTE</title>
<path fill="none" stroke="black" d="M642.94,-86.59C660.24,-73.46 684.1,-55.36 702.77,-41.19"></path>
<polygon fill="black" stroke="black" points="704.67,-44.13 710.52,-35.3 700.44,-38.56 704.67,-44.13"></polygon>
<text xml:space="preserve" text-anchor="middle" x="695.83" y="-55.7" font-family="Lato" font-size="14.00">:op5</text>
</g>
<!-- n3_11_DQUOTERiskDQUOTE -->
<g id="literal#n3#:op6#&quot;Risk&quot;" class="node">
<title>n3_11_DQUOTERiskDQUOTE</title>
<ellipse fill="#ffe5cc" stroke="#ffe5cc" cx="829" cy="-18" rx="34.28" ry="18"></ellipse>
<text xml:space="preserve" text-anchor="middle" x="829" y="-12.2" font-family="Lato" font-size="14.00">"Risk"</text>
</g>
<!-- n3&#45;&gt;n3_11_DQUOTERiskDQUOTE -->
<g id="edge#n3#&quot;Risk&quot;#:op6" class="edge">
<title>n3-&gt;n3_11_DQUOTERiskDQUOTE</title>
<path fill="none" stroke="black" d="M655.04,-91.26C672.53,-84.78 693.96,-76.68 713,-69 740.04,-58.09 770.28,-45.03 793.1,-34.99"></path>
<polygon fill="black" stroke="black" points="794.22,-38.32 801.96,-31.08 791.4,-31.92 794.22,-38.32"></polygon>
<text xml:space="preserve" text-anchor="middle" x="761.4" y="-55.7" font-family="Lato" font-size="14.00">:op6</text>
</g>
<!-- n3_12_DQUOTEAssessmentsDQUOTE -->
<g id="literal#n3#:op7#&quot;Assessments&quot;" class="node">
<title>n3_12_DQUOTEAssessmentsDQUOTE</title>
<ellipse fill="#ffe5cc" stroke="#ffe5cc" cx="951" cy="-18" rx="69.87" ry="18"></ellipse>
<text xml:space="preserve" text-anchor="middle" x="951" y="-12.2" font-family="Lato" font-size="14.00">"Assessments"</text>
</g>
<!-- n3&#45;&gt;n3_12_DQUOTEAssessmentsDQUOTE -->
<g id="edge#n3#&quot;Assessments&quot;#:op7" class="edge">
<title>n3-&gt;n3_12_DQUOTEAssessmentsDQUOTE</title>
<path fill="none" stroke="black" d="M654.9,-97.01C687.22,-90.38 736.55,-79.83 779,-69 818.66,-58.88 863.01,-45.95 896.73,-35.77"></path>
<polygon fill="black" stroke="black" points="897.74,-39.13 906.3,-32.88 895.71,-32.43 897.74,-39.13"></polygon>
<text xml:space="preserve" text-anchor="middle" x="844.41" y="-55.7" font-family="Lato" font-size="14.00">:op7</text>
</g>
<!-- n4_13_DQUOTEAiDQUOTE -->
<g id="literal#n4#:op1#&quot;Ai&quot;" class="node">
<title>n4_13_DQUOTEAiDQUOTE</title>
<ellipse fill="#ffe5cc" stroke="#ffe5cc" cx="715" cy="-192" rx="27" ry="18"></ellipse>
<text xml:space="preserve" text-anchor="middle" x="715" y="-186.2" font-family="Lato" font-size="14.00" fill="#595959">"Ai"</text>
</g>
<!-- n4&#45;&gt;n4_13_DQUOTEAiDQUOTE -->
<g id="edge#n4#&quot;Ai&quot;#:op1" class="edge">
<title>n4-&gt;n4_13_DQUOTEAiDQUOTE</title>
<path fill="none" stroke="#595959" d="M778.81,-260.8C766.71,-247.94 750.04,-230.23 736.78,-216.14"></path>
<polygon fill="#595959" stroke="#595959" points="739.47,-213.89 730.06,-209.01 734.37,-218.69 739.47,-213.89"></polygon>
<text xml:space="preserve" text-anchor="middle" x="772.91" y="-229.7" font-family="Lato" font-size="14.00" fill="#595959">:op1</text>
</g>
<!-- n4_14_DQUOTENowDQUOTE -->
<g id="literal#n4#:op2#&quot;Now&quot;" class="node">
<title>n4_14_DQUOTENowDQUOTE</title>
<ellipse fill="#ffe5cc" stroke="#ffe5cc" cx="795" cy="-192" rx="34.77" ry="18"></ellipse>
<text xml:space="preserve" text-anchor="middle" x="795" y="-186.2" font-family="Lato" font-size="14.00" fill="#595959">"Now"</text>
</g>
<!-- n4&#45;&gt;n4_14_DQUOTENowDQUOTE -->
<g id="edge#n4#&quot;Now&quot;#:op2" class="edge">
<title>n4-&gt;n4_14_DQUOTENowDQUOTE</title>
<path fill="none" stroke="#595959" d="M795,-260.8C795,-249.58 795,-234.67 795,-221.69"></path>
<polygon fill="#595959" stroke="#595959" points="798.5,-221.98 795,-211.98 791.5,-221.98 798.5,-221.98"></polygon>
<text xml:space="preserve" text-anchor="middle" x="808.12" y="-229.7" font-family="Lato" font-size="14.00" fill="#595959">:op2</text>
</g>
<!-- n4_15_DQUOTEInstituteDQUOTE -->
<g id="literal#n4#:op3#&quot;Institute&quot;" class="node">
<title>n4_15_DQUOTEInstituteDQUOTE</title>
<ellipse fill="#ffe5cc" stroke="#ffe5cc" cx="896" cy="-192" rx="47.93" ry="18"></ellipse>
<text xml:space="preserve" text-anchor="middle" x="896" y="-186.2" font-family="Lato" font-size="14.00" fill="#595959">"Institute"</text>
</g>
<!-- n4&#45;&gt;n4_15_DQUOTEInstituteDQUOTE -->
<g id="edge#n4#&quot;Institute&quot;#:op3" class="edge">
<title>n4-&gt;n4_15_DQUOTEInstituteDQUOTE</title>
<path fill="none" stroke="#595959" d="M815.44,-260.8C830.71,-247.95 851.75,-230.24 868.5,-216.15"></path>
<polygon fill="#595959" stroke="#595959" points="870.74,-218.83 876.14,-209.72 866.23,-213.48 870.74,-218.83"></polygon>
<text xml:space="preserve" text-anchor="middle" x="864.67" y="-229.7" font-family="Lato" font-size="14.00" fill="#595959">:op3</text>
</g>
<!-- d_16_2017 -->
<g id="literal#d#:year#2017" class="node">
<title>d_16_2017</title>
<ellipse fill="#ffe5cc" stroke="#ffe5cc" cx="992" cy="-192" rx="29.9" ry="18"></ellipse>
<text xml:space="preserve" text-anchor="middle" x="992" y="-186.2" font-family="Lato" font-size="14.00">2017</text>
</g>
<!-- d&#45;&gt;d_16_2017 -->
<g id="edge#d#2017#:year" class="edge">
<title>d-&gt;d_16_2017</title>
<path fill="none" stroke="black" d="M991.2,-260.8C991.33,-249.58 991.51,-234.67 991.66,-221.69"></path>
<polygon fill="black" stroke="black" points="995.16,-222.02 991.78,-211.98 988.16,-221.94 995.16,-222.02"></polygon>
<text xml:space="preserve" text-anchor="middle" x="1006.56" y="-229.7" font-family="Lato" font-size="14.00">:year</text>
</g>
</g>
</svg>
