<!--?xml version="1.0" encoding="UTF-8" standalone="no"?-->

<!-- Generated by graphviz version 14.0.1 (20251006.0113)
 -->
<!-- Title: amr_graph Pages: 1 -->
<svg onmousedown="info(event);" width="1186pt" height="566pt" viewBox="0.00 0.00 1186.00 566.00" xmlns="http://www.w3.org/2000/svg" xmlns:xlink="http://www.w3.org/1999/xlink">
<g id="graph0" class="graph" transform="scale(1 1) rotate(0) translate(4 562)">
<title>amr_graph</title>
<polygon fill="white" stroke="none" points="-4,4 -4,-562 1182.5,-562 1182.5,4 -4,4"></polygon>
<!-- v -->
<g id="node#v#voice-01" class="node">
<title>v</title>
<polygon fill="white" stroke="black" points="969.87,-558 888.62,-558 888.62,-522 969.87,-522 969.87,-558"></polygon>
<text xml:space="preserve" text-anchor="middle" x="929.25" y="-534.2" font-family="Lato Black" font-size="14.00">v/voice-01</text>
</g>
<!-- a -->
<g id="node#a#and" class="node">
<title>a</title>
<polygon fill="white" stroke="black" points="804.25,-384 750.25,-384 750.25,-348 804.25,-348 804.25,-384"></polygon>
<text xml:space="preserve" text-anchor="middle" x="777.25" y="-360.2" font-family="Lato" font-size="14.00">a/and</text>
</g>
<!-- v&#45;&gt;a -->
<g id="edge#v#a#:ARG0" class="edge">
<title>v-&gt;a</title>
<path fill="none" stroke="#ff7900" d="M888.33,-531.23C854.95,-522.57 809.59,-505.06 786,-471 770.78,-449.03 770.19,-417.85 772.43,-395.37"></path>
<polygon fill="#ff7900" stroke="#ff7900" points="775.87,-396.06 773.65,-385.7 768.92,-395.18 775.87,-396.06"></polygon>
<text xml:space="preserve" text-anchor="middle" x="806.62" y="-447.2" font-family="Lato" font-size="14.00" fill="#ff7900">:ARG0</text>
</g>
<!-- c -->
<g id="node#c#concern-01" class="node">
<title>c</title>
<polygon fill="white" stroke="black" points="930.25,-471 836.25,-471 836.25,-435 930.25,-435 930.25,-471"></polygon>
<text xml:space="preserve" text-anchor="middle" x="883.25" y="-447.2" font-family="Lato" font-size="14.00">c/concern-01</text>
</g>
<!-- v&#45;&gt;c -->
<g id="edge#v#c#:ARG1" class="edge">
<title>v-&gt;c</title>
<path fill="none" stroke="#9164cd" d="M919.94,-521.8C913.68,-510.24 905.3,-494.75 898.13,-481.5"></path>
<polygon fill="#9164cd" stroke="#9164cd" points="901.26,-479.93 893.42,-472.8 895.1,-483.26 901.26,-479.93"></polygon>
<text xml:space="preserve" text-anchor="middle" x="929.62" y="-490.7" font-family="Lato" font-size="14.00" fill="#9164cd">:ARG1</text>
</g>
<!-- o4 -->
<g id="node#o4#occasion-02" class="node">
<title>o4</title>
<polygon fill="white" stroke="black" points="1056,-471 948.5,-471 948.5,-435 1056,-435 1056,-471"></polygon>
<text xml:space="preserve" text-anchor="middle" x="1002.25" y="-447.2" font-family="Lato" font-size="14.00">o4/occasion-02</text>
</g>
<!-- v&#45;&gt;o4 -->
<g id="edge#v#o4#:time" class="edge">
<title>v-&gt;o4</title>
<path fill="none" stroke="#085ebd" d="M944.02,-521.8C954.34,-509.78 968.3,-493.52 979.97,-479.94"></path>
<polygon fill="#085ebd" stroke="#085ebd" points="982.4,-482.48 986.26,-472.62 977.09,-477.92 982.4,-482.48"></polygon>
<text xml:space="preserve" text-anchor="middle" x="985.12" y="-490.7" font-family="Lato" font-size="14.00" fill="#085ebd">:time</text>
</g>
<!-- e -->
<g id="node#e#exemplify-01" class="node">
<title>e</title>
<polygon fill="white" stroke="black" points="1178.5,-471 1074,-471 1074,-435 1178.5,-435 1178.5,-471"></polygon>
<text xml:space="preserve" text-anchor="middle" x="1126.25" y="-447.2" font-family="Lato" font-size="14.00">e/exemplify-01</text>
</g>
<!-- v&#45;&gt;e -->
<g id="edge#v#e#:ARG0-of" class="edge">
<title>v-&gt;e</title>
<path fill="none" stroke="#ff7900" d="M969.59,-521.59C1000.26,-508.36 1042.66,-490.06 1075.62,-475.84"></path>
<polygon fill="#ff7900" stroke="#ff7900" points="1076.77,-479.16 1084.57,-471.98 1074,-472.73 1076.77,-479.16"></polygon>
<text xml:space="preserve" text-anchor="middle" x="1068.04" y="-490.7" font-family="Lato" font-size="14.00" fill="#ff7900">:ARG0-of</text>
</g>
<!-- o -->
<g id="node#o#organization" class="node">
<title>o</title>
<polygon fill="white" stroke="black" points="580.62,-297 479.87,-297 479.87,-261 580.62,-261 580.62,-297"></polygon>
<text xml:space="preserve" text-anchor="middle" x="530.25" y="-273.2" font-family="Lato" font-size="14.00">o/organization</text>
</g>
<!-- a&#45;&gt;o -->
<g id="edge#a#o#:op1" class="edge">
<title>a-&gt;o</title>
<path fill="none" stroke="#595959" d="M749.87,-355.58C711.95,-342.53 642.41,-318.6 591.71,-301.15"></path>
<polygon fill="#595959" stroke="#595959" points="592.9,-297.86 582.3,-297.91 590.62,-304.48 592.9,-297.86"></polygon>
<text xml:space="preserve" text-anchor="middle" x="681.66" y="-316.7" font-family="Lato" font-size="14.00" fill="#595959">:op1</text>
</g>
<!-- o2 -->
<g id="node#o2#organization" class="node">
<title>o2</title>
<polygon fill="white" stroke="black" points="831.37,-297 723.12,-297 723.12,-261 831.37,-261 831.37,-297"></polygon>
<text xml:space="preserve" text-anchor="middle" x="777.25" y="-273.2" font-family="Lato" font-size="14.00">o2/organization</text>
</g>
<!-- a&#45;&gt;o2 -->
<g id="edge#a#o2#:op2" class="edge">
<title>a-&gt;o2</title>
<path fill="none" stroke="#595959" d="M777.25,-347.8C777.25,-336.58 777.25,-321.67 777.25,-308.69"></path>
<polygon fill="#595959" stroke="#595959" points="780.75,-308.98 777.25,-298.98 773.75,-308.98 780.75,-308.98"></polygon>
<text xml:space="preserve" text-anchor="middle" x="790.37" y="-316.7" font-family="Lato" font-size="14.00" fill="#595959">:op2</text>
</g>
<!-- c&#45;&gt;a -->
<g id="edge#c#a#:ARG1" class="edge">
<title>c-&gt;a</title>
<path fill="none" stroke="#9164cd" d="M854.68,-434.56C846.5,-429.21 837.71,-423.11 830,-417 820.5,-409.48 810.71,-400.57 802.18,-392.36"></path>
<polygon fill="#9164cd" stroke="#9164cd" points="804.8,-390.03 795.21,-385.54 799.9,-395.03 804.8,-390.03"></polygon>
<text xml:space="preserve" text-anchor="middle" x="850.62" y="-403.7" font-family="Lato" font-size="14.00" fill="#9164cd">:ARG1</text>
</g>
<!-- a2 -->
<g id="node#a2#and" class="node">
<title>a2</title>
<polygon fill="white" stroke="black" points="901.87,-384 844.62,-384 844.62,-348 901.87,-348 901.87,-384"></polygon>
<text xml:space="preserve" text-anchor="middle" x="873.25" y="-360.2" font-family="Lato" font-size="14.00">a2/and</text>
</g>
<!-- c&#45;&gt;a2 -->
<g id="edge#c#a2#:ARG0" class="edge">
<title>c-&gt;a2</title>
<path fill="none" stroke="#ff7900" d="M879.78,-434.61C878.76,-429 877.72,-422.76 877,-417 876.11,-410.03 875.42,-402.48 874.87,-395.42"></path>
<polygon fill="#ff7900" stroke="#ff7900" points="878.38,-395.41 874.2,-385.68 871.4,-395.89 878.38,-395.41"></polygon>
<text xml:space="preserve" text-anchor="middle" x="897.62" y="-403.7" font-family="Lato" font-size="14.00" fill="#ff7900">:ARG0</text>
</g>
<!-- l -->
<g id="node#l#level" class="node">
<title>l</title>
<polygon fill="white" stroke="black" points="974.25,-384 920.25,-384 920.25,-348 974.25,-348 974.25,-384"></polygon>
<text xml:space="preserve" text-anchor="middle" x="947.25" y="-360.2" font-family="Lato" font-size="14.00">l/level</text>
</g>
<!-- c&#45;&gt;l -->
<g id="edge#c#l#:mod" class="edge">
<title>c-&gt;l</title>
<path fill="none" stroke="#ffb400" d="M902.36,-434.67C907.81,-429.28 913.53,-423.13 918.25,-417 923.63,-410 928.74,-401.9 933.12,-394.29"></path>
<polygon fill="#ffb400" stroke="#ffb400" points="936.11,-396.13 937.88,-385.69 929.98,-392.74 936.11,-396.13"></polygon>
<text xml:space="preserve" text-anchor="middle" x="943.5" y="-403.7" font-family="Lato" font-size="14.00" fill="#ffb400">:mod</text>
</g>
<!-- n4 -->
<g id="node#n4#numerous" class="node">
<title>n4</title>
<polygon fill="white" stroke="black" points="1088,-384 992.5,-384 992.5,-348 1088,-348 1088,-384"></polygon>
<text xml:space="preserve" text-anchor="middle" x="1040.25" y="-360.2" font-family="Lato" font-size="14.00">n4/numerous</text>
</g>
<!-- o4&#45;&gt;n4 -->
<g id="edge#o4#n4#:quant" class="edge">
<title>o4-&gt;n4</title>
<path fill="none" stroke="black" d="M1009.93,-434.8C1015.05,-423.35 1021.89,-408.06 1027.77,-394.89"></path>
<polygon fill="black" stroke="black" points="1030.93,-396.41 1031.82,-385.85 1024.54,-393.55 1030.93,-396.41"></polygon>
<text xml:space="preserve" text-anchor="middle" x="1042.27" y="-403.7" font-family="Lato" font-size="14.00">:quant</text>
</g>
<!-- n -->
<g id="node#n#name" class="node">
<title>n</title>
<polygon fill="white" stroke="black" points="328.12,-210 266.37,-210 266.37,-174 328.12,-174 328.12,-210"></polygon>
<text xml:space="preserve" text-anchor="middle" x="297.25" y="-186.2" font-family="Lato" font-size="14.00">n/name</text>
</g>
<!-- o&#45;&gt;n -->
<g id="edge#o#n#:name" class="edge">
<title>o-&gt;n</title>
<path fill="none" stroke="#492191" d="M482.53,-260.59C440.42,-245.23 379.64,-223.06 339.32,-208.35"></path>
<polygon fill="#492191" stroke="#492191" points="340.54,-205.07 329.94,-204.93 338.14,-211.64 340.54,-205.07"></polygon>
<text xml:space="preserve" text-anchor="middle" x="446.82" y="-229.7" font-family="Lato" font-size="14.00" fill="#492191">:name</text>
</g>
<!-- n2 -->
<g id="node#n2#name" class="node">
<title>n2</title>
<polygon fill="white" stroke="black" points="695.87,-210 626.62,-210 626.62,-174 695.87,-174 695.87,-210"></polygon>
<text xml:space="preserve" text-anchor="middle" x="661.25" y="-186.2" font-family="Lato" font-size="14.00">n2/name</text>
</g>
<!-- o2&#45;&gt;n2 -->
<g id="edge#o2#n2#:name" class="edge">
<title>o2-&gt;n2</title>
<path fill="none" stroke="#492191" d="M753.49,-260.59C736.37,-248.05 713.04,-230.95 694.12,-217.09"></path>
<polygon fill="#492191" stroke="#492191" points="696.32,-214.36 686.19,-211.28 692.19,-220.01 696.32,-214.36"></polygon>
<text xml:space="preserve" text-anchor="middle" x="745.32" y="-229.7" font-family="Lato" font-size="14.00" fill="#492191">:name</text>
</g>
<!-- o3 -->
<g id="node#o3#organization" class="node">
<title>o3</title>
<polygon fill="white" stroke="black" points="842.37,-210 734.12,-210 734.12,-174 842.37,-174 842.37,-210"></polygon>
<text xml:space="preserve" text-anchor="middle" x="788.25" y="-186.2" font-family="Lato" font-size="14.00">o3/organization</text>
</g>
<!-- o2&#45;&gt;o3 -->
<g id="edge#o2#o3#:part-of" class="edge">
<title>o2-&gt;o3</title>
<path fill="none" stroke="black" d="M779.47,-260.8C780.92,-249.58 782.85,-234.67 784.53,-221.69"></path>
<polygon fill="black" stroke="black" points="787.98,-222.33 785.79,-211.97 781.04,-221.44 787.98,-222.33"></polygon>
<text xml:space="preserve" text-anchor="middle" x="804.78" y="-229.7" font-family="Lato" font-size="14.00">:part-of</text>
</g>
<!-- n_0_DQUOTEEuropeanDQUOTE -->
<g id="literal#n#:op1#&quot;European&quot;" class="node">
<title>n_0_DQUOTEEuropeanDQUOTE</title>
<ellipse fill="#ffe5cc" stroke="#ffe5cc" cx="55.25" cy="-105" rx="55.25" ry="18"></ellipse>
<text xml:space="preserve" text-anchor="middle" x="55.25" y="-99.2" font-family="Lato" font-size="14.00" fill="#595959">"European"</text>
</g>
<!-- n&#45;&gt;n_0_DQUOTEEuropeanDQUOTE -->
<g id="edge#n#&quot;European&quot;#:op1" class="edge">
<title>n-&gt;n_0_DQUOTEEuropeanDQUOTE</title>
<path fill="none" stroke="#595959" d="M266.03,-181.46C244.1,-174.64 214.14,-165.1 188,-156 158.59,-145.76 125.85,-133.44 100.24,-123.59"></path>
<polygon fill="#595959" stroke="#595959" points="101.73,-120.41 91.14,-120.08 99.21,-126.94 101.73,-120.41"></polygon>
<text xml:space="preserve" text-anchor="middle" x="201.12" y="-142.7" font-family="Lato" font-size="14.00" fill="#595959">:op1</text>
</g>
<!-- n_1_DQUOTECourtDQUOTE -->
<g id="literal#n#:op2#&quot;Court&quot;" class="node">
<title>n_1_DQUOTECourtDQUOTE</title>
<ellipse fill="#ffe5cc" stroke="#ffe5cc" cx="167.25" cy="-105" rx="38.67" ry="18"></ellipse>
<text xml:space="preserve" text-anchor="middle" x="167.25" y="-99.2" font-family="Lato" font-size="14.00" fill="#595959">"Court"</text>
</g>
<!-- n&#45;&gt;n_1_DQUOTECourtDQUOTE -->
<g id="edge#n#&quot;Court&quot;#:op2" class="edge">
<title>n-&gt;n_1_DQUOTECourtDQUOTE</title>
<path fill="none" stroke="#595959" d="M268.78,-173.59C259.84,-168.04 249.96,-161.83 241,-156 226.49,-146.57 210.58,-135.84 197.26,-126.74"></path>
<polygon fill="#595959" stroke="#595959" points="199.56,-124.07 189.33,-121.3 195.6,-129.84 199.56,-124.07"></polygon>
<text xml:space="preserve" text-anchor="middle" x="254.12" y="-142.7" font-family="Lato" font-size="14.00" fill="#595959">:op2</text>
</g>
<!-- n_2_DQUOTEofDQUOTE -->
<g id="literal#n#:op3#&quot;of&quot;" class="node">
<title>n_2_DQUOTEofDQUOTE</title>
<ellipse fill="#ffe5cc" stroke="#ffe5cc" cx="251.25" cy="-105" rx="27" ry="18"></ellipse>
<text xml:space="preserve" text-anchor="middle" x="251.25" y="-99.2" font-family="Lato" font-size="14.00" fill="#595959">"of"</text>
</g>
<!-- n&#45;&gt;n_2_DQUOTEofDQUOTE -->
<g id="edge#n#&quot;of&quot;#:op3" class="edge">
<title>n-&gt;n_2_DQUOTEofDQUOTE</title>
<path fill="none" stroke="#595959" d="M287.94,-173.8C281.45,-161.82 272.68,-145.61 265.34,-132.05"></path>
<polygon fill="#595959" stroke="#595959" points="268.63,-130.77 260.79,-123.64 262.47,-134.1 268.63,-130.77"></polygon>
<text xml:space="preserve" text-anchor="middle" x="290.12" y="-142.7" font-family="Lato" font-size="14.00" fill="#595959">:op3</text>
</g>
<!-- n_3_DQUOTEHumanDQUOTE -->
<g id="literal#n#:op4#&quot;Human&quot;" class="node">
<title>n_3_DQUOTEHumanDQUOTE</title>
<ellipse fill="#ffe5cc" stroke="#ffe5cc" cx="342.25" cy="-105" rx="45.98" ry="18"></ellipse>
<text xml:space="preserve" text-anchor="middle" x="342.25" y="-99.2" font-family="Lato" font-size="14.00" fill="#595959">"Human"</text>
</g>
<!-- n&#45;&gt;n_3_DQUOTEHumanDQUOTE -->
<g id="edge#n#&quot;Human&quot;#:op4" class="edge">
<title>n-&gt;n_3_DQUOTEHumanDQUOTE</title>
<path fill="none" stroke="#595959" d="M306.35,-173.8C312.55,-162.09 320.89,-146.34 327.96,-132.97"></path>
<polygon fill="#595959" stroke="#595959" points="331.01,-134.7 332.6,-124.22 324.83,-131.42 331.01,-134.7"></polygon>
<text xml:space="preserve" text-anchor="middle" x="335.56" y="-142.7" font-family="Lato" font-size="14.00" fill="#595959">:op4</text>
</g>
<!-- n_4_DQUOTERightsDQUOTE -->
<g id="literal#n#:op5#&quot;Rights&quot;" class="node">
<title>n_4_DQUOTERightsDQUOTE</title>
<ellipse fill="#ffe5cc" stroke="#ffe5cc" cx="448.25" cy="-105" rx="42.08" ry="18"></ellipse>
<text xml:space="preserve" text-anchor="middle" x="448.25" y="-99.2" font-family="Lato" font-size="14.00">"Rights"</text>
</g>
<!-- n&#45;&gt;n_4_DQUOTERightsDQUOTE -->
<g id="edge#n#&quot;Rights&quot;#:op5" class="edge">
<title>n-&gt;n_4_DQUOTERightsDQUOTE</title>
<path fill="none" stroke="black" d="M328.17,-173.59C353.15,-159.53 388.28,-139.75 414.09,-125.23"></path>
<polygon fill="black" stroke="black" points="415.52,-128.44 422.51,-120.48 412.08,-122.34 415.52,-128.44"></polygon>
<text xml:space="preserve" text-anchor="middle" x="394.91" y="-142.7" font-family="Lato" font-size="14.00">:op5</text>
</g>
<!-- n2_5_DQUOTECourtDQUOTE -->
<g id="literal#n2#:op1#&quot;Court&quot;" class="node">
<title>n2_5_DQUOTECourtDQUOTE</title>
<ellipse fill="#ffe5cc" stroke="#ffe5cc" cx="547.25" cy="-105" rx="38.67" ry="18"></ellipse>
<text xml:space="preserve" text-anchor="middle" x="547.25" y="-99.2" font-family="Lato" font-size="14.00" fill="#595959">"Court"</text>
</g>
<!-- n2&#45;&gt;n2_5_DQUOTECourtDQUOTE -->
<g id="edge#n2#&quot;Court&quot;#:op1" class="edge">
<title>n2-&gt;n2_5_DQUOTECourtDQUOTE</title>
<path fill="none" stroke="#595959" d="M637.67,-173.58C630.11,-167.97 621.69,-161.73 614,-156 601.53,-146.72 587.79,-136.43 576.03,-127.61"></path>
<polygon fill="#595959" stroke="#595959" points="578.4,-125.01 568.3,-121.81 574.2,-130.61 578.4,-125.01"></polygon>
<text xml:space="preserve" text-anchor="middle" x="627.12" y="-142.7" font-family="Lato" font-size="14.00" fill="#595959">:op1</text>
</g>
<!-- n2_6_DQUOTEofDQUOTE -->
<g id="literal#n2#:op2#&quot;of&quot;" class="node">
<title>n2_6_DQUOTEofDQUOTE</title>
<ellipse fill="#ffe5cc" stroke="#ffe5cc" cx="631.25" cy="-105" rx="27" ry="18"></ellipse>
<text xml:space="preserve" text-anchor="middle" x="631.25" y="-99.2" font-family="Lato" font-size="14.00" fill="#595959">"of"</text>
</g>
<!-- n2&#45;&gt;n2_6_DQUOTEofDQUOTE -->
<g id="edge#n2#&quot;of&quot;#:op2" class="edge">
<title>n2-&gt;n2_6_DQUOTEofDQUOTE</title>
<path fill="none" stroke="#595959" d="M655.17,-173.8C651.08,-162.2 645.59,-146.65 640.91,-133.37"></path>
<polygon fill="#595959" stroke="#595959" points="644.34,-132.58 637.71,-124.31 637.74,-134.91 644.34,-132.58"></polygon>
<text xml:space="preserve" text-anchor="middle" x="661.17" y="-142.7" font-family="Lato" font-size="14.00" fill="#595959">:op2</text>
</g>
<!-- n2_7_DQUOTEJusticeDQUOTE -->
<g id="literal#n2#:op3#&quot;Justice&quot;" class="node">
<title>n2_7_DQUOTEJusticeDQUOTE</title>
<ellipse fill="#ffe5cc" stroke="#ffe5cc" cx="721.25" cy="-105" rx="44.52" ry="18"></ellipse>
<text xml:space="preserve" text-anchor="middle" x="721.25" y="-99.2" font-family="Lato" font-size="14.00" fill="#595959">"Justice"</text>
</g>
<!-- n2&#45;&gt;n2_7_DQUOTEJusticeDQUOTE -->
<g id="edge#n2#&quot;Justice&quot;#:op3" class="edge">
<title>n2-&gt;n2_7_DQUOTEJusticeDQUOTE</title>
<path fill="none" stroke="#595959" d="M673.39,-173.8C681.87,-161.78 693.36,-145.51 702.95,-131.92"></path>
<polygon fill="#595959" stroke="#595959" points="705.75,-134.02 708.66,-123.83 700.03,-129.98 705.75,-134.02"></polygon>
<text xml:space="preserve" text-anchor="middle" x="707.96" y="-142.7" font-family="Lato" font-size="14.00" fill="#595959">:op3</text>
</g>
<!-- n3 -->
<g id="node#n3#name" class="node">
<title>n3</title>
<polygon fill="white" stroke="black" points="852.87,-123 783.62,-123 783.62,-87 852.87,-87 852.87,-123"></polygon>
<text xml:space="preserve" text-anchor="middle" x="818.25" y="-99.2" font-family="Lato" font-size="14.00">n3/name</text>
</g>
<!-- o3&#45;&gt;n3 -->
<g id="edge#o3#n3#:name" class="edge">
<title>o3-&gt;n3</title>
<path fill="none" stroke="#492191" d="M794.32,-173.8C798.32,-162.47 803.65,-147.36 808.26,-134.29"></path>
<polygon fill="#492191" stroke="#492191" points="811.55,-135.49 811.58,-124.89 804.95,-133.16 811.55,-135.49"></polygon>
<text xml:space="preserve" text-anchor="middle" x="824.17" y="-142.7" font-family="Lato" font-size="14.00" fill="#492191">:name</text>
</g>
<!-- n3_8_DQUOTEEuropeanDQUOTE -->
<g id="literal#n3#:op1#&quot;European&quot;" class="node">
<title>n3_8_DQUOTEEuropeanDQUOTE</title>
<ellipse fill="#ffe5cc" stroke="#ffe5cc" cx="761.25" cy="-18" rx="55.25" ry="18"></ellipse>
<text xml:space="preserve" text-anchor="middle" x="761.25" y="-12.2" font-family="Lato" font-size="14.00" fill="#595959">"European"</text>
</g>
<!-- n3&#45;&gt;n3_8_DQUOTEEuropeanDQUOTE -->
<g id="edge#n3#&quot;European&quot;#:op1" class="edge">
<title>n3-&gt;n3_8_DQUOTEEuropeanDQUOTE</title>
<path fill="none" stroke="#595959" d="M806.71,-86.8C798.7,-74.85 787.88,-58.72 778.8,-45.18"></path>
<polygon fill="#595959" stroke="#595959" points="781.89,-43.5 773.41,-37.14 776.07,-47.4 781.89,-43.5"></polygon>
<text xml:space="preserve" text-anchor="middle" x="806.28" y="-55.7" font-family="Lato" font-size="14.00" fill="#595959">:op1</text>
</g>
<!-- n3_9_DQUOTEUnionDQUOTE -->
<g id="literal#n3#:op2#&quot;Union&quot;" class="node">
<title>n3_9_DQUOTEUnionDQUOTE</title>
<ellipse fill="#ffe5cc" stroke="#ffe5cc" cx="874.25" cy="-18" rx="40.13" ry="18"></ellipse>
<text xml:space="preserve" text-anchor="middle" x="874.25" y="-12.2" font-family="Lato" font-size="14.00" fill="#595959">"Union"</text>
</g>
<!-- n3&#45;&gt;n3_9_DQUOTEUnionDQUOTE -->
<g id="edge#n3#&quot;Union&quot;#:op2" class="edge">
<title>n3-&gt;n3_9_DQUOTEUnionDQUOTE</title>
<path fill="none" stroke="#595959" d="M829.58,-86.8C837.5,-74.78 848.22,-58.51 857.17,-44.92"></path>
<polygon fill="#595959" stroke="#595959" points="859.9,-47.14 862.48,-36.86 854.05,-43.29 859.9,-47.14"></polygon>
<text xml:space="preserve" text-anchor="middle" x="862.72" y="-55.7" font-family="Lato" font-size="14.00" fill="#595959">:op2</text>
</g>
<!-- a3 -->
<g id="node#a3#activity-06" class="node">
<title>a3</title>
<polygon fill="white" stroke="black" points="957,-210 861.5,-210 861.5,-174 957,-174 957,-210"></polygon>
<text xml:space="preserve" text-anchor="middle" x="909.25" y="-186.2" font-family="Lato" font-size="14.00">a3/activity-06</text>
</g>
<!-- a2&#45;&gt;a3 -->
<g id="edge#a2#a3#:op1" class="edge">
<title>a2-&gt;a3</title>
<path fill="none" stroke="#595959" d="M872.59,-347.8C872.2,-326.96 872.82,-290.91 880,-261 883.3,-247.22 889.18,-232.7 894.81,-220.63"></path>
<polygon fill="#595959" stroke="#595959" points="897.94,-222.21 899.17,-211.69 891.64,-219.15 897.94,-222.21"></polygon>
<text xml:space="preserve" text-anchor="middle" x="893.12" y="-273.2" font-family="Lato" font-size="14.00" fill="#595959">:op1</text>
</g>
<!-- ii -->
<g id="node#ii#impact-01" class="node">
<title>ii</title>
<polygon fill="white" stroke="black" points="1001.12,-297 915.37,-297 915.37,-261 1001.12,-261 1001.12,-297"></polygon>
<text xml:space="preserve" text-anchor="middle" x="958.25" y="-273.2" font-family="Lato" font-size="14.00">ii/impact-01</text>
</g>
<!-- a2&#45;&gt;ii -->
<g id="edge#a2#ii#:op2" class="edge">
<title>a2-&gt;ii</title>
<path fill="none" stroke="#595959" d="M890.45,-347.8C902.58,-335.67 919.03,-319.21 932.7,-305.55"></path>
<polygon fill="#595959" stroke="#595959" points="935.11,-308.08 939.71,-298.54 930.16,-303.13 935.11,-308.08"></polygon>
<text xml:space="preserve" text-anchor="middle" x="933.96" y="-316.7" font-family="Lato" font-size="14.00" fill="#595959">:op2</text>
</g>
<!-- ii2 -->
<g id="node#ii2#international" class="node">
<title>ii2</title>
<polygon fill="white" stroke="black" points="1125.62,-297 1018.87,-297 1018.87,-261 1125.62,-261 1125.62,-297"></polygon>
<text xml:space="preserve" text-anchor="middle" x="1072.25" y="-273.2" font-family="Lato" font-size="14.00">ii2/international</text>
</g>
<!-- l&#45;&gt;ii2 -->
<g id="edge#l#ii2#:mod" class="edge">
<title>l-&gt;ii2</title>
<path fill="none" stroke="#ffb400" d="M972.84,-347.59C991.46,-334.93 1016.9,-317.64 1037.37,-303.71"></path>
<polygon fill="#ffb400" stroke="#ffb400" points="1039.13,-306.75 1045.43,-298.23 1035.19,-300.96 1039.13,-306.75"></polygon>
<text xml:space="preserve" text-anchor="middle" x="1032.6" y="-316.7" font-family="Lato" font-size="14.00" fill="#ffb400">:mod</text>
</g>
<!-- s -->
<g id="node#s#state" class="node">
<title>s</title>
<polygon fill="white" stroke="black" points="927.12,-123 871.37,-123 871.37,-87 927.12,-87 927.12,-123"></polygon>
<text xml:space="preserve" text-anchor="middle" x="899.25" y="-99.2" font-family="Lato" font-size="14.00">s/state</text>
</g>
<!-- a3&#45;&gt;s -->
<g id="edge#a3#s#:ARG0" class="edge">
<title>a3-&gt;s</title>
<path fill="none" stroke="#ff7900" d="M907.22,-173.8C905.9,-162.58 904.15,-147.67 902.62,-134.69"></path>
<polygon fill="#ff7900" stroke="#ff7900" points="906.12,-134.49 901.48,-124.97 899.17,-135.31 906.12,-134.49"></polygon>
<text xml:space="preserve" text-anchor="middle" x="925.47" y="-142.7" font-family="Lato" font-size="14.00" fill="#ff7900">:ARG0</text>
</g>
<!-- s2 -->
<g id="node#s2#surveil-01" class="node">
<title>s2</title>
<polygon fill="white" stroke="black" points="1037.5,-123 945,-123 945,-87 1037.5,-87 1037.5,-123"></polygon>
<text xml:space="preserve" text-anchor="middle" x="991.25" y="-99.2" font-family="Lato" font-size="14.00">s2/surveil-01</text>
</g>
<!-- a3&#45;&gt;s2 -->
<g id="edge#a3#s2#:ARG1" class="edge">
<title>a3-&gt;s2</title>
<path fill="none" stroke="#9164cd" d="M931.17,-173.52C937.53,-168.13 944.35,-162.01 950.25,-156 957.48,-148.63 964.8,-140.09 971.23,-132.19"></path>
<polygon fill="#9164cd" stroke="#9164cd" points="973.86,-134.5 977.35,-124.49 968.38,-130.14 973.86,-134.5"></polygon>
<text xml:space="preserve" text-anchor="middle" x="984.03" y="-142.7" font-family="Lato" font-size="14.00" fill="#9164cd">:ARG1</text>
</g>
<!-- ii&#45;&gt;a3 -->
<g id="edge#ii#a3#:ARG0" class="edge">
<title>ii-&gt;a3</title>
<path fill="none" stroke="#ff7900" d="M948.33,-260.8C941.6,-249.12 932.56,-233.45 924.87,-220.11"></path>
<polygon fill="#ff7900" stroke="#ff7900" points="928.1,-218.69 920.07,-211.78 922.03,-222.19 928.1,-218.69"></polygon>
<text xml:space="preserve" text-anchor="middle" x="957.3" y="-229.7" font-family="Lato" font-size="14.00" fill="#ff7900">:ARG0</text>
</g>
<!-- r -->
<g id="node#r#right-05" class="node">
<title>r</title>
<polygon fill="white" stroke="black" points="1090.25,-210 1020.25,-210 1020.25,-174 1090.25,-174 1090.25,-210"></polygon>
<text xml:space="preserve" text-anchor="middle" x="1055.25" y="-186.2" font-family="Lato" font-size="14.00">r/right-05</text>
</g>
<!-- ii&#45;&gt;r -->
<g id="edge#ii#r#:ARG1" class="edge">
<title>ii-&gt;r</title>
<path fill="none" stroke="#9164cd" d="M977.87,-260.8C991.98,-248.44 1011.21,-231.59 1026.97,-217.78"></path>
<polygon fill="#9164cd" stroke="#9164cd" points="1028.96,-220.69 1034.17,-211.46 1024.35,-215.42 1028.96,-220.69"></polygon>
<text xml:space="preserve" text-anchor="middle" x="1033.18" y="-229.7" font-family="Lato" font-size="14.00" fill="#9164cd">:ARG1</text>
</g>
<!-- p -->
<g id="node#p#privacy" class="node">
<title>p</title>
<polygon fill="white" stroke="black" points="1125.25,-123 1055.25,-123 1055.25,-87 1125.25,-87 1125.25,-123"></polygon>
<text xml:space="preserve" text-anchor="middle" x="1090.25" y="-99.2" font-family="Lato" font-size="14.00">p/privacy</text>
</g>
<!-- r&#45;&gt;p -->
<g id="edge#r#p#:ARG2" class="edge">
<title>r-&gt;p</title>
<path fill="none" stroke="#4bb4e6" d="M1062.33,-173.8C1067.04,-162.35 1073.34,-147.06 1078.76,-133.89"></path>
<polygon fill="#4bb4e6" stroke="#4bb4e6" points="1081.91,-135.45 1082.48,-124.87 1075.43,-132.78 1081.91,-135.45"></polygon>
<text xml:space="preserve" text-anchor="middle" x="1095.47" y="-142.7" font-family="Lato" font-size="14.00" fill="#4bb4e6">:ARG2</text>
</g>
</g>
</svg>
