<!--?xml version="1.0" encoding="UTF-8" standalone="no"?-->

<!-- Generated by graphviz version 14.0.1 (20251006.0113)
 -->
<!-- Title: amr_graph Pages: 1 -->
<svg onmousedown="info(event);" width="988pt" height="674pt" viewBox="0.00 0.00 988.00 674.00" xmlns="http://www.w3.org/2000/svg" xmlns:xlink="http://www.w3.org/1999/xlink">
<g id="graph0" class="graph" transform="scale(1 1) rotate(0) translate(4 670)">
<title>amr_graph</title>
<polygon fill="white" stroke="none" points="-4,4 -4,-670 983.58,-670 983.58,4 -4,4"></polygon>
<!-- s -->
<g id="node#s#state-01" class="node">
<title>s</title>
<polygon fill="white" stroke="black" points="681.2,-666 602.95,-666 602.95,-630 681.2,-630 681.2,-666"></polygon>
<text xml:space="preserve" text-anchor="middle" x="642.08" y="-642.2" font-family="Lato Black" font-size="14.00">s/state-01</text>
</g>
<!-- a -->
<g id="node#a#and" class="node">
<title>a</title>
<polygon fill="white" stroke="black" points="622.08,-492 568.08,-492 568.08,-456 622.08,-456 622.08,-492"></polygon>
<text xml:space="preserve" text-anchor="middle" x="595.08" y="-468.2" font-family="Lato" font-size="14.00">a/and</text>
</g>
<!-- s&#45;&gt;a -->
<g id="edge#s#a#:ARG0" class="edge">
<title>s-&gt;a</title>
<path fill="none" stroke="#ff7900" d="M602.78,-641.91C565.78,-634.8 512.35,-618.04 486.83,-579 470.01,-553.28 471.59,-533.75 491.08,-510 507.03,-490.56 534.18,-481.86 556.74,-478"></path>
<polygon fill="#ff7900" stroke="#ff7900" points="557.13,-481.48 566.53,-476.6 556.14,-474.55 557.13,-481.48"></polygon>
<text xml:space="preserve" text-anchor="middle" x="507.45" y="-555.2" font-family="Lato" font-size="14.00" fill="#ff7900">:ARG0</text>
</g>
<!-- r -->
<g id="node#r#recommend-01" class="node">
<title>r</title>
<polygon fill="white" stroke="black" points="653.33,-579 536.83,-579 536.83,-543 653.33,-543 653.33,-579"></polygon>
<text xml:space="preserve" text-anchor="middle" x="595.08" y="-555.2" font-family="Lato" font-size="14.00">r/recommend-01</text>
</g>
<!-- s&#45;&gt;r -->
<g id="edge#s#r#:ARG1" class="edge">
<title>s-&gt;r</title>
<path fill="none" stroke="#9164cd" d="M632.56,-629.8C626.17,-618.24 617.61,-602.75 610.28,-589.5"></path>
<polygon fill="#9164cd" stroke="#9164cd" points="613.37,-587.85 605.47,-580.79 607.24,-591.24 613.37,-587.85"></polygon>
<text xml:space="preserve" text-anchor="middle" x="642.01" y="-598.7" font-family="Lato" font-size="14.00" fill="#9164cd">:ARG1</text>
</g>
<!-- r2 -->
<g id="node#r2#respond-01" class="node">
<title>r2</title>
<polygon fill="white" stroke="black" points="771.08,-579 671.08,-579 671.08,-543 771.08,-543 771.08,-579"></polygon>
<text xml:space="preserve" text-anchor="middle" x="721.08" y="-555.2" font-family="Lato" font-size="14.00">r2/respond-01</text>
</g>
<!-- s&#45;&gt;r2 -->
<g id="edge#s#r2#:ARG2-of" class="edge">
<title>s-&gt;r2</title>
<path fill="none" stroke="#4bb4e6" d="M658.06,-629.8C669.34,-617.67 684.63,-601.21 697.33,-587.55"></path>
<polygon fill="#4bb4e6" stroke="#4bb4e6" points="699.57,-590.28 703.81,-580.58 694.44,-585.52 699.57,-590.28"></polygon>
<text xml:space="preserve" text-anchor="middle" x="714.81" y="-598.7" font-family="Lato" font-size="14.00" fill="#4bb4e6">:ARG2-of</text>
</g>
<!-- e2 -->
<g id="node#e2#example" class="node">
<title>e2</title>
<polygon fill="white" stroke="black" points="875.33,-579 788.83,-579 788.83,-543 875.33,-543 875.33,-579"></polygon>
<text xml:space="preserve" text-anchor="middle" x="832.08" y="-555.2" font-family="Lato" font-size="14.00">e2/example</text>
</g>
<!-- s&#45;&gt;e2 -->
<g id="edge#s#e2#:mod" class="edge">
<title>s-&gt;e2</title>
<path fill="none" stroke="#ffb400" d="M681.22,-636.09C701.3,-629.97 725.91,-621.62 747.08,-612 763.66,-604.46 781.15,-594.54 795.92,-585.53"></path>
<polygon fill="#ffb400" stroke="#ffb400" points="797.74,-588.53 804.39,-580.28 794.05,-582.58 797.74,-588.53"></polygon>
<text xml:space="preserve" text-anchor="middle" x="791.38" y="-598.7" font-family="Lato" font-size="14.00" fill="#ffb400">:mod</text>
</g>
<!-- p -->
<g id="node#p#person" class="node">
<title>p</title>
<polygon fill="white" stroke="black" points="513.33,-405 444.83,-405 444.83,-369 513.33,-369 513.33,-405"></polygon>
<text xml:space="preserve" text-anchor="middle" x="479.08" y="-381.2" font-family="Lato" font-size="14.00">p/person</text>
</g>
<!-- a&#45;&gt;p -->
<g id="edge#a#p#:op1" class="edge">
<title>a-&gt;p</title>
<path fill="none" stroke="#595959" d="M571.32,-455.59C554.2,-443.05 530.87,-425.95 511.95,-412.09"></path>
<polygon fill="#595959" stroke="#595959" points="514.15,-409.36 504.02,-406.28 510.02,-415.01 514.15,-409.36"></polygon>
<text xml:space="preserve" text-anchor="middle" x="557.15" y="-424.7" font-family="Lato" font-size="14.00" fill="#595959">:op1</text>
</g>
<!-- p2 -->
<g id="node#p2#person" class="node">
<title>p2</title>
<polygon fill="white" stroke="black" points="636.08,-405 560.08,-405 560.08,-369 636.08,-369 636.08,-405"></polygon>
<text xml:space="preserve" text-anchor="middle" x="598.08" y="-381.2" font-family="Lato" font-size="14.00">p2/person</text>
</g>
<!-- a&#45;&gt;p2 -->
<g id="edge#a#p2#:op2" class="edge">
<title>a-&gt;p2</title>
<path fill="none" stroke="#595959" d="M595.68,-455.8C596.08,-444.58 596.61,-429.67 597.06,-416.69"></path>
<polygon fill="#595959" stroke="#595959" points="600.55,-417.1 597.41,-406.98 593.56,-416.85 600.55,-417.1"></polygon>
<text xml:space="preserve" text-anchor="middle" x="609.88" y="-424.7" font-family="Lato" font-size="14.00" fill="#595959">:op2</text>
</g>
<!-- r&#45;&gt;a -->
<g id="edge#r#a#:ARG0" class="edge">
<title>r-&gt;a</title>
<path fill="none" stroke="#ff7900" d="M595.08,-542.8C595.08,-531.58 595.08,-516.67 595.08,-503.69"></path>
<polygon fill="#ff7900" stroke="#ff7900" points="598.58,-503.98 595.08,-493.98 591.58,-503.98 598.58,-503.98"></polygon>
<text xml:space="preserve" text-anchor="middle" x="615.7" y="-511.7" font-family="Lato" font-size="14.00" fill="#ff7900">:ARG0</text>
</g>
<!-- t -->
<g id="node#t#turn-off-07" class="node">
<title>t</title>
<polygon fill="white" stroke="black" points="179.95,-492 94.2,-492 94.2,-456 179.95,-456 179.95,-492"></polygon>
<text xml:space="preserve" text-anchor="middle" x="137.08" y="-468.2" font-family="Lato" font-size="14.00">t/turn-off-07</text>
</g>
<!-- r&#45;&gt;t -->
<g id="edge#r#t#:ARG1" class="edge">
<title>r-&gt;t</title>
<path fill="none" stroke="#9164cd" d="M536.57,-546.08C531.67,-545.01 526.79,-543.97 522.08,-543 404.59,-518.96 265.89,-495.71 191.22,-483.62"></path>
<polygon fill="#9164cd" stroke="#9164cd" points="192.16,-480.22 181.73,-482.08 191.04,-487.13 192.16,-480.22"></polygon>
<text xml:space="preserve" text-anchor="middle" x="447.96" y="-511.7" font-family="Lato" font-size="14.00" fill="#9164cd">:ARG1</text>
</g>
<!-- r2&#45;&gt;a -->
<g id="edge#r2#a#:ARG0" class="edge">
<title>r2-&gt;a</title>
<path fill="none" stroke="#ff7900" d="M695.27,-542.59C676.5,-529.93 650.87,-512.64 630.23,-498.71"></path>
<polygon fill="#ff7900" stroke="#ff7900" points="632.35,-495.92 622.1,-493.23 628.43,-501.72 632.35,-495.92"></polygon>
<text xml:space="preserve" text-anchor="middle" x="686.24" y="-511.7" font-family="Lato" font-size="14.00" fill="#ff7900">:ARG0</text>
</g>
<!-- w2 -->
<g id="node#w2#worry-01" class="node">
<title>w2</title>
<polygon fill="white" stroke="black" points="770.83,-492 681.33,-492 681.33,-456 770.83,-456 770.83,-492"></polygon>
<text xml:space="preserve" text-anchor="middle" x="726.08" y="-468.2" font-family="Lato" font-size="14.00">w2/worry-01</text>
</g>
<!-- r2&#45;&gt;w2 -->
<g id="edge#r2#w2#:ARG1" class="edge">
<title>r2-&gt;w2</title>
<path fill="none" stroke="#9164cd" d="M722.09,-542.8C722.75,-531.58 723.62,-516.67 724.39,-503.69"></path>
<polygon fill="#9164cd" stroke="#9164cd" points="727.87,-504.17 724.96,-493.98 720.88,-503.76 727.87,-504.17"></polygon>
<text xml:space="preserve" text-anchor="middle" x="744.5" y="-511.7" font-family="Lato" font-size="14.00" fill="#9164cd">:ARG1</text>
</g>
<!-- a4 -->
<g id="node#a4#another" class="node">
<title>a4</title>
<polygon fill="white" stroke="black" points="872.33,-492 791.83,-492 791.83,-456 872.33,-456 872.33,-492"></polygon>
<text xml:space="preserve" text-anchor="middle" x="832.08" y="-468.2" font-family="Lato" font-size="14.00">a4/another</text>
</g>
<!-- e2&#45;&gt;a4 -->
<g id="edge#e2#a4#:mod" class="edge">
<title>e2-&gt;a4</title>
<path fill="none" stroke="#ffb400" d="M832.08,-542.8C832.08,-531.58 832.08,-516.67 832.08,-503.69"></path>
<polygon fill="#ffb400" stroke="#ffb400" points="835.58,-503.98 832.08,-493.98 828.58,-503.98 835.58,-503.98"></polygon>
<text xml:space="preserve" text-anchor="middle" x="847.45" y="-511.7" font-family="Lato" font-size="14.00" fill="#ffb400">:mod</text>
</g>
<!-- h -->
<g id="node#h#have-org-role-91" class="node">
<title>h</title>
<polygon fill="white" stroke="black" points="517.58,-297 390.58,-297 390.58,-261 517.58,-261 517.58,-297"></polygon>
<text xml:space="preserve" text-anchor="middle" x="454.08" y="-273.2" font-family="Lato" font-size="14.00">h/have-org-role-91</text>
</g>
<!-- p&#45;&gt;h -->
<g id="edge#p#h#:ARG0-of" class="edge">
<title>p-&gt;h</title>
<path fill="none" stroke="#ff7900" d="M475.06,-368.97C471.22,-352.69 465.36,-327.82 460.8,-308.52"></path>
<polygon fill="#ff7900" stroke="#ff7900" points="464.22,-307.74 458.51,-298.81 457.4,-309.35 464.22,-307.74"></polygon>
<text xml:space="preserve" text-anchor="middle" x="498.78" y="-327.2" font-family="Lato" font-size="14.00" fill="#ff7900">:ARG0-of</text>
</g>
<!-- h2 -->
<g id="node#h2#have-org-role-91" class="node">
<title>h2</title>
<polygon fill="white" stroke="black" points="670.33,-297 535.83,-297 535.83,-261 670.33,-261 670.33,-297"></polygon>
<text xml:space="preserve" text-anchor="middle" x="603.08" y="-273.2" font-family="Lato" font-size="14.00">h2/have-org-role-91</text>
</g>
<!-- p2&#45;&gt;h2 -->
<g id="edge#p2#h2#:ARG0-of" class="edge">
<title>p2-&gt;h2</title>
<path fill="none" stroke="#ff7900" d="M598.88,-368.97C599.64,-352.76 600.81,-328.06 601.72,-308.79"></path>
<polygon fill="#ff7900" stroke="#ff7900" points="605.21,-309.01 602.19,-298.85 598.22,-308.68 605.21,-309.01"></polygon>
<text xml:space="preserve" text-anchor="middle" x="629.82" y="-327.2" font-family="Lato" font-size="14.00" fill="#ff7900">:ARG0-of</text>
</g>
<!-- c -->
<g id="node#c#country" class="node">
<title>c</title>
<polygon fill="white" stroke="black" points="349.45,-210 278.7,-210 278.7,-174 349.45,-174 349.45,-210"></polygon>
<text xml:space="preserve" text-anchor="middle" x="314.08" y="-186.2" font-family="Lato" font-size="14.00">c/country</text>
</g>
<!-- h&#45;&gt;c -->
<g id="edge#h#c#:ARG1" class="edge">
<title>h-&gt;c</title>
<path fill="none" stroke="#9164cd" d="M422.2,-260.55C412.39,-255.06 401.6,-248.88 391.83,-243 377.91,-234.62 362.85,-225.06 349.72,-216.55"></path>
<polygon fill="#9164cd" stroke="#9164cd" points="351.66,-213.64 341.37,-211.11 347.84,-219.5 351.66,-213.64"></polygon>
<text xml:space="preserve" text-anchor="middle" x="412.45" y="-229.7" font-family="Lato" font-size="14.00" fill="#9164cd">:ARG1</text>
</g>
<!-- m2 -->
<g id="node#m2#minister" class="node">
<title>m2</title>
<polygon fill="white" stroke="black" points="467.7,-210 380.45,-210 380.45,-174 467.7,-174 467.7,-210"></polygon>
<text xml:space="preserve" text-anchor="middle" x="424.08" y="-186.2" font-family="Lato" font-size="14.00">m2/minister</text>
</g>
<!-- h&#45;&gt;m2 -->
<g id="edge#h#m2#:ARG2" class="edge">
<title>h-&gt;m2</title>
<path fill="none" stroke="#4bb4e6" d="M448,-260.8C444.01,-249.47 438.68,-234.36 434.06,-221.29"></path>
<polygon fill="#4bb4e6" stroke="#4bb4e6" points="437.37,-220.16 430.74,-211.89 430.77,-222.49 437.37,-220.16"></polygon>
<text xml:space="preserve" text-anchor="middle" x="461.5" y="-229.7" font-family="Lato" font-size="14.00" fill="#4bb4e6">:ARG2</text>
</g>
<!-- f -->
<g id="node#f#former" class="node">
<title>f</title>
<polygon fill="white" stroke="black" points="548.7,-210 485.45,-210 485.45,-174 548.7,-174 548.7,-210"></polygon>
<text xml:space="preserve" text-anchor="middle" x="517.08" y="-186.2" font-family="Lato" font-size="14.00">f/former</text>
</g>
<!-- h&#45;&gt;f -->
<g id="edge#h#f#:time" class="edge">
<title>h-&gt;f</title>
<path fill="none" stroke="#085ebd" d="M471.02,-260.75C476.09,-255.26 481.5,-249.04 486.08,-243 491.56,-235.75 496.98,-227.5 501.71,-219.82"></path>
<polygon fill="#085ebd" stroke="#085ebd" points="504.57,-221.86 506.71,-211.48 498.57,-218.26 504.57,-221.86"></polygon>
<text xml:space="preserve" text-anchor="middle" x="511.25" y="-229.7" font-family="Lato" font-size="14.00" fill="#085ebd">:time</text>
</g>
<!-- n -->
<g id="node#n#name" class="node">
<title>n</title>
<polygon fill="white" stroke="black" points="341.95,-123 280.2,-123 280.2,-87 341.95,-87 341.95,-123"></polygon>
<text xml:space="preserve" text-anchor="middle" x="311.08" y="-99.2" font-family="Lato" font-size="14.00">n/name</text>
</g>
<!-- c&#45;&gt;n -->
<g id="edge#c#n#:name" class="edge">
<title>c-&gt;n</title>
<path fill="none" stroke="#492191" d="M313.47,-173.8C313.07,-162.58 312.55,-147.67 312.09,-134.69"></path>
<polygon fill="#492191" stroke="#492191" points="315.6,-134.85 311.75,-124.98 308.6,-135.1 315.6,-134.85"></polygon>
<text xml:space="preserve" text-anchor="middle" x="331.88" y="-142.7" font-family="Lato" font-size="14.00" fill="#492191">:name</text>
</g>
<!-- a2 -->
<g id="node#a2#affair-02" class="node">
<title>a2</title>
<polygon fill="white" stroke="black" points="469.2,-123 384.95,-123 384.95,-87 469.2,-87 469.2,-123"></polygon>
<text xml:space="preserve" text-anchor="middle" x="427.08" y="-99.2" font-family="Lato" font-size="14.00">a2/affair-02</text>
</g>
<!-- m2&#45;&gt;a2 -->
<g id="edge#m2#a2#:topic" class="edge">
<title>m2-&gt;a2</title>
<path fill="none" stroke="black" d="M424.68,-173.8C425.08,-162.58 425.61,-147.67 426.06,-134.69"></path>
<polygon fill="black" stroke="black" points="429.55,-135.1 426.41,-124.98 422.56,-134.85 429.55,-135.1"></polygon>
<text xml:space="preserve" text-anchor="middle" x="441.88" y="-142.7" font-family="Lato" font-size="14.00">:topic</text>
</g>
<!-- n_0_DQUOTENetherlandsDQUOTE -->
<g id="literal#n#:op1#&quot;Netherlands&quot;" class="node">
<title>n_0_DQUOTENetherlandsDQUOTE</title>
<ellipse fill="#ffe5cc" stroke="#ffe5cc" cx="304.08" cy="-18" rx="64.51" ry="18"></ellipse>
<text xml:space="preserve" text-anchor="middle" x="304.08" y="-12.2" font-family="Lato" font-size="14.00" fill="#595959">"Netherlands"</text>
</g>
<!-- n&#45;&gt;n_0_DQUOTENetherlandsDQUOTE -->
<g id="edge#n#&quot;Netherlands&quot;#:op1" class="edge">
<title>n-&gt;n_0_DQUOTENetherlandsDQUOTE</title>
<path fill="none" stroke="#595959" d="M309.66,-86.8C308.74,-75.58 307.51,-60.67 306.44,-47.69"></path>
<polygon fill="#595959" stroke="#595959" points="309.95,-47.65 305.64,-37.98 302.97,-48.23 309.95,-47.65"></polygon>
<text xml:space="preserve" text-anchor="middle" x="321.12" y="-55.7" font-family="Lato" font-size="14.00" fill="#595959">:op1</text>
</g>
<!-- e -->
<g id="node#e#economy" class="node">
<title>e</title>
<polygon fill="white" stroke="black" points="469.45,-36 386.7,-36 386.7,0 469.45,0 469.45,-36"></polygon>
<text xml:space="preserve" text-anchor="middle" x="428.08" y="-12.2" font-family="Lato" font-size="14.00">e/economy</text>
</g>
<!-- a2&#45;&gt;e -->
<g id="edge#a2#e#:ARG2" class="edge">
<title>a2-&gt;e</title>
<path fill="none" stroke="#4bb4e6" d="M427.28,-86.8C427.41,-75.58 427.59,-60.67 427.74,-47.69"></path>
<polygon fill="#4bb4e6" stroke="#4bb4e6" points="431.23,-48.02 427.85,-37.98 424.24,-47.94 431.23,-48.02"></polygon>
<text xml:space="preserve" text-anchor="middle" x="448.26" y="-55.7" font-family="Lato" font-size="14.00" fill="#4bb4e6">:ARG2</text>
</g>
<!-- s2 -->
<g id="node#s2#state" class="node">
<title>s2</title>
<polygon fill="white" stroke="black" points="629.7,-210 566.45,-210 566.45,-174 629.7,-174 629.7,-210"></polygon>
<text xml:space="preserve" text-anchor="middle" x="598.08" y="-186.2" font-family="Lato" font-size="14.00">s2/state</text>
</g>
<!-- h2&#45;&gt;s2 -->
<g id="edge#h2#s2#:ARG1" class="edge">
<title>h2-&gt;s2</title>
<path fill="none" stroke="#9164cd" d="M602.06,-260.8C601.4,-249.58 600.53,-234.67 599.76,-221.69"></path>
<polygon fill="#9164cd" stroke="#9164cd" points="603.27,-221.76 599.19,-211.98 596.29,-222.17 603.27,-221.76"></polygon>
<text xml:space="preserve" text-anchor="middle" x="621.5" y="-229.7" font-family="Lato" font-size="14.00" fill="#9164cd">:ARG1</text>
</g>
<!-- s3 -->
<g id="node#s3#secretary" class="node">
<title>s3</title>
<polygon fill="white" stroke="black" points="736.83,-210 647.33,-210 647.33,-174 736.83,-174 736.83,-210"></polygon>
<text xml:space="preserve" text-anchor="middle" x="692.08" y="-186.2" font-family="Lato" font-size="14.00">s3/secretary</text>
</g>
<!-- h2&#45;&gt;s3 -->
<g id="edge#h2#s3#:ARG2" class="edge">
<title>h2-&gt;s3</title>
<path fill="none" stroke="#4bb4e6" d="M623.28,-260.85C629.7,-255.26 636.77,-248.96 643.08,-243 651.25,-235.28 659.92,-226.6 667.65,-218.68"></path>
<polygon fill="#4bb4e6" stroke="#4bb4e6" points="670.12,-221.16 674.56,-211.54 665.09,-216.29 670.12,-221.16"></polygon>
<text xml:space="preserve" text-anchor="middle" x="678.85" y="-229.7" font-family="Lato" font-size="14.00" fill="#4bb4e6">:ARG2</text>
</g>
<!-- a3 -->
<g id="node#a3#and" class="node">
<title>a3</title>
<polygon fill="white" stroke="black" points="720.7,-123 663.45,-123 663.45,-87 720.7,-87 720.7,-123"></polygon>
<text xml:space="preserve" text-anchor="middle" x="692.08" y="-99.2" font-family="Lato" font-size="14.00">a3/and</text>
</g>
<!-- s3&#45;&gt;a3 -->
<g id="edge#s3#a3#:topic" class="edge">
<title>s3-&gt;a3</title>
<path fill="none" stroke="black" d="M692.08,-173.8C692.08,-162.58 692.08,-147.67 692.08,-134.69"></path>
<polygon fill="black" stroke="black" points="695.58,-134.98 692.08,-124.98 688.58,-134.98 695.58,-134.98"></polygon>
<text xml:space="preserve" text-anchor="middle" x="708.2" y="-142.7" font-family="Lato" font-size="14.00">:topic</text>
</g>
<!-- s4 -->
<g id="node#s4#security" class="node">
<title>s4</title>
<polygon fill="white" stroke="black" points="687.33,-36 606.83,-36 606.83,0 687.33,0 687.33,-36"></polygon>
<text xml:space="preserve" text-anchor="middle" x="647.08" y="-12.2" font-family="Lato" font-size="14.00">s4/security</text>
</g>
<!-- a3&#45;&gt;s4 -->
<g id="edge#a3#s4#:op1" class="edge">
<title>a3-&gt;s4</title>
<path fill="none" stroke="#595959" d="M682.97,-86.8C676.85,-75.24 668.65,-59.75 661.63,-46.5"></path>
<polygon fill="#595959" stroke="#595959" points="664.8,-45.01 657.03,-37.8 658.62,-48.28 664.8,-45.01"></polygon>
<text xml:space="preserve" text-anchor="middle" x="685.4" y="-55.7" font-family="Lato" font-size="14.00" fill="#595959">:op1</text>
</g>
<!-- j -->
<g id="node#j#justice" class="node">
<title>j</title>
<polygon fill="white" stroke="black" points="766.58,-36 705.58,-36 705.58,0 766.58,0 766.58,-36"></polygon>
<text xml:space="preserve" text-anchor="middle" x="736.08" y="-12.2" font-family="Lato" font-size="14.00">j/justice</text>
</g>
<!-- a3&#45;&gt;j -->
<g id="edge#a3#j#:op2" class="edge">
<title>a3-&gt;j</title>
<path fill="none" stroke="#595959" d="M700.98,-86.8C706.96,-75.24 714.98,-59.75 721.84,-46.5"></path>
<polygon fill="#595959" stroke="#595959" points="724.85,-48.3 726.34,-37.81 718.63,-45.08 724.85,-48.3"></polygon>
<text xml:space="preserve" text-anchor="middle" x="729.84" y="-55.7" font-family="Lato" font-size="14.00" fill="#595959">:op2</text>
</g>
<!-- p3 -->
<g id="node#p3#person" class="node">
<title>p3</title>
<polygon fill="white" stroke="black" points="192.08,-210 116.08,-210 116.08,-174 192.08,-174 192.08,-210"></polygon>
<text xml:space="preserve" text-anchor="middle" x="154.08" y="-186.2" font-family="Lato" font-size="14.00">p3/person</text>
</g>
<!-- t&#45;&gt;p3 -->
<g id="edge#t#p3#:ARG0" class="edge">
<title>t-&gt;p3</title>
<path fill="none" stroke="#ff7900" d="M103.37,-455.61C56.16,-428.69 -21.04,-373.88 5.83,-315 26.31,-270.09 72.7,-236.32 108.17,-215.82"></path>
<polygon fill="#ff7900" stroke="#ff7900" points="109.52,-219.08 116.54,-211.14 106.1,-212.97 109.52,-219.08"></polygon>
<text xml:space="preserve" text-anchor="middle" x="26.45" y="-327.2" font-family="Lato" font-size="14.00" fill="#ff7900">:ARG0</text>
</g>
<!-- s5 -->
<g id="node#s5#smartphone" class="node">
<title>s5</title>
<polygon fill="white" stroke="black" points="162.08,-351 56.08,-351 56.08,-315 162.08,-315 162.08,-351"></polygon>
<text xml:space="preserve" text-anchor="middle" x="109.08" y="-327.2" font-family="Lato" font-size="14.00">s5/smartphone</text>
</g>
<!-- t&#45;&gt;s5 -->
<g id="edge#t#s5#:ARG1" class="edge">
<title>t-&gt;s5</title>
<path fill="none" stroke="#9164cd" d="M134.29,-455.63C130.88,-434.92 124.73,-399.3 118.08,-369 117.6,-366.84 117.09,-364.61 116.55,-362.37"></path>
<polygon fill="#9164cd" stroke="#9164cd" points="119.99,-361.71 114.17,-352.86 113.2,-363.41 119.99,-361.71"></polygon>
<text xml:space="preserve" text-anchor="middle" x="151.68" y="-424.7" font-family="Lato" font-size="14.00" fill="#9164cd">:ARG1</text>
</g>
<!-- j2 -->
<g id="node#j2#just" class="node">
<title>j2</title>
<polygon fill="white" stroke="black" points="109.08,-405 55.08,-405 55.08,-369 109.08,-369 109.08,-405"></polygon>
<text xml:space="preserve" text-anchor="middle" x="82.08" y="-381.2" font-family="Lato" font-size="14.00">j2/just</text>
</g>
<!-- t&#45;&gt;j2 -->
<g id="edge#t#j2#:mod" class="edge">
<title>t-&gt;j2</title>
<path fill="none" stroke="#ffb400" d="M100.81,-455.62C94.26,-450.83 88.28,-444.98 84.33,-438 80.72,-431.63 79.24,-424.03 78.89,-416.7"></path>
<polygon fill="#ffb400" stroke="#ffb400" points="82.38,-416.86 79.1,-406.78 75.38,-416.71 82.38,-416.86"></polygon>
<text xml:space="preserve" text-anchor="middle" x="99.7" y="-424.7" font-family="Lato" font-size="14.00" fill="#ffb400">:mod</text>
</g>
<!-- w -->
<g id="node#w#want-01" class="node">
<title>w</title>
<polygon fill="white" stroke="black" points="276.83,-405 199.33,-405 199.33,-369 276.83,-369 276.83,-405"></polygon>
<text xml:space="preserve" text-anchor="middle" x="238.08" y="-381.2" font-family="Lato" font-size="14.00">w/want-01</text>
</g>
<!-- t&#45;&gt;w -->
<g id="edge#t#w#:condition" class="edge">
<title>t-&gt;w</title>
<path fill="none" stroke="black" d="M159.75,-455.85C166.96,-450.26 174.93,-443.96 182.08,-438 191.63,-430.03 201.85,-421.05 210.91,-412.92"></path>
<polygon fill="black" stroke="black" points="212.98,-415.77 218.05,-406.47 208.29,-410.57 212.98,-415.77"></polygon>
<text xml:space="preserve" text-anchor="middle" x="228.18" y="-424.7" font-family="Lato" font-size="14.00">:condition</text>
</g>
<!-- s5&#45;&gt;p3 -->
<g id="edge#s5#p3#:poss" class="edge">
<title>s5-&gt;p3</title>
<path fill="none" stroke="black" d="M103.3,-314.61C99.36,-299.95 95.85,-278.6 101.83,-261 107.13,-245.39 117.63,-230.55 127.83,-218.75"></path>
<polygon fill="black" stroke="black" points="130.32,-221.22 134.46,-211.47 125.14,-216.5 130.32,-221.22"></polygon>
<text xml:space="preserve" text-anchor="middle" x="117.95" y="-273.2" font-family="Lato" font-size="14.00">:poss</text>
</g>
<!-- w&#45;&gt;p3 -->
<g id="edge#w#p3#:ARG0" class="edge">
<title>w-&gt;p3</title>
<path fill="none" stroke="#ff7900" d="M275.79,-368.52C282.79,-363.74 289.37,-357.92 294.08,-351 316.72,-317.73 322.81,-296.62 304.08,-261 284.86,-224.47 239.61,-207.51 203.8,-199.67"></path>
<polygon fill="#ff7900" stroke="#ff7900" points="204.53,-196.25 194.04,-197.73 203.16,-203.11 204.53,-196.25"></polygon>
<text xml:space="preserve" text-anchor="middle" x="335.75" y="-273.2" font-family="Lato" font-size="14.00" fill="#ff7900">:ARG0</text>
</g>
<!-- w_1_&#45; -->
<g id="literal#w#:polarity#-" class="node">
<title>w_1_-</title>
<ellipse fill="#ffe5cc" stroke="#ffe5cc" cx="170.08" cy="-279" rx="27" ry="18"></ellipse>
<text xml:space="preserve" text-anchor="middle" x="170.08" y="-273.2" font-family="Lato" font-size="14.00">-</text>
</g>
<!-- w&#45;&gt;w_1_&#45; -->
<g id="edge#w#-#:polarity" class="edge">
<title>w-&gt;w_1_-</title>
<path fill="none" stroke="black" d="M210.26,-368.72C203.82,-363.66 197.5,-357.67 192.83,-351 183.95,-338.33 178.4,-322.01 175.01,-308.22"></path>
<polygon fill="black" stroke="black" points="178.51,-307.86 172.96,-298.83 171.67,-309.35 178.51,-307.86"></polygon>
<text xml:space="preserve" text-anchor="middle" x="216.45" y="-327.2" font-family="Lato" font-size="14.00">:polarity</text>
</g>
<!-- t2 -->
<g id="node#t2#track-01" class="node">
<title>t2</title>
<polygon fill="white" stroke="black" points="294.95,-297 215.2,-297 215.2,-261 294.95,-261 294.95,-297"></polygon>
<text xml:space="preserve" text-anchor="middle" x="255.08" y="-273.2" font-family="Lato" font-size="14.00">t2/track-01</text>
</g>
<!-- w&#45;&gt;t2 -->
<g id="edge#w#t2#:ARG1" class="edge">
<title>w-&gt;t2</title>
<path fill="none" stroke="#9164cd" d="M240.81,-368.97C243.42,-352.69 247.41,-327.82 250.5,-308.52"></path>
<polygon fill="#9164cd" stroke="#9164cd" points="253.93,-309.26 252.06,-298.84 247.02,-308.15 253.93,-309.26"></polygon>
<text xml:space="preserve" text-anchor="middle" x="269.72" y="-327.2" font-family="Lato" font-size="14.00" fill="#9164cd">:ARG1</text>
</g>
<!-- t2&#45;&gt;p3 -->
<g id="edge#t2#p3#:ARG1" class="edge">
<title>t2-&gt;p3</title>
<path fill="none" stroke="#9164cd" d="M234.64,-260.8C219.95,-248.44 199.93,-231.59 183.52,-217.78"></path>
<polygon fill="#9164cd" stroke="#9164cd" points="185.89,-215.2 175.99,-211.44 181.39,-220.56 185.89,-215.2"></polygon>
<text xml:space="preserve" text-anchor="middle" x="231.25" y="-229.7" font-family="Lato" font-size="14.00" fill="#9164cd">:ARG1</text>
</g>
<!-- t3 -->
<g id="node#t3#track-01" class="node">
<title>t3</title>
<polygon fill="white" stroke="black" points="765.95,-405 686.2,-405 686.2,-369 765.95,-369 765.95,-405"></polygon>
<text xml:space="preserve" text-anchor="middle" x="726.08" y="-381.2" font-family="Lato" font-size="14.00">t3/track-01</text>
</g>
<!-- w2&#45;&gt;t3 -->
<g id="edge#w2#t3#:ARG0" class="edge">
<title>w2-&gt;t3</title>
<path fill="none" stroke="#ff7900" d="M726.08,-455.8C726.08,-444.58 726.08,-429.67 726.08,-416.69"></path>
<polygon fill="#ff7900" stroke="#ff7900" points="729.58,-416.98 726.08,-406.98 722.58,-416.98 729.58,-416.98"></polygon>
<text xml:space="preserve" text-anchor="middle" x="746.7" y="-424.7" font-family="Lato" font-size="14.00" fill="#ff7900">:ARG0</text>
</g>
<!-- p5 -->
<g id="node#p5#person" class="node">
<title>p5</title>
<polygon fill="white" stroke="black" points="911.08,-405 835.08,-405 835.08,-369 911.08,-369 911.08,-405"></polygon>
<text xml:space="preserve" text-anchor="middle" x="873.08" y="-381.2" font-family="Lato" font-size="14.00">p5/person</text>
</g>
<!-- w2&#45;&gt;p5 -->
<g id="edge#w2#p5#:ARG1" class="edge">
<title>w2-&gt;p5</title>
<path fill="none" stroke="#9164cd" d="M756.18,-455.59C778.47,-442.7 809.07,-425.01 833.37,-410.96"></path>
<polygon fill="#9164cd" stroke="#9164cd" points="834.8,-414.18 841.7,-406.14 831.29,-408.12 834.8,-414.18"></polygon>
<text xml:space="preserve" text-anchor="middle" x="829" y="-424.7" font-family="Lato" font-size="14.00" fill="#9164cd">:ARG1</text>
</g>
<!-- p4 -->
<g id="node#p4#person" class="node">
<title>p4</title>
<polygon fill="white" stroke="black" points="764.08,-297 688.08,-297 688.08,-261 764.08,-261 764.08,-297"></polygon>
<text xml:space="preserve" text-anchor="middle" x="726.08" y="-273.2" font-family="Lato" font-size="14.00">p4/person</text>
</g>
<!-- t3&#45;&gt;p4 -->
<g id="edge#t3#p4#:ARG0" class="edge">
<title>t3-&gt;p4</title>
<path fill="none" stroke="#ff7900" d="M726.08,-368.97C726.08,-352.76 726.08,-328.06 726.08,-308.79"></path>
<polygon fill="#ff7900" stroke="#ff7900" points="729.58,-308.85 726.08,-298.85 722.58,-308.85 729.58,-308.85"></polygon>
<text xml:space="preserve" text-anchor="middle" x="746.7" y="-327.2" font-family="Lato" font-size="14.00" fill="#ff7900">:ARG0</text>
</g>
<!-- ii -->
<g id="node#ii#internet" class="node">
<title>ii</title>
<polygon fill="white" stroke="black" points="852.45,-297 781.7,-297 781.7,-261 852.45,-261 852.45,-297"></polygon>
<text xml:space="preserve" text-anchor="middle" x="817.08" y="-273.2" font-family="Lato" font-size="14.00">ii/internet</text>
</g>
<!-- t3&#45;&gt;ii -->
<g id="edge#t3#ii#:medium" class="edge">
<title>t3-&gt;ii</title>
<path fill="none" stroke="black" d="M751.17,-368.86C758.03,-363.56 765.19,-357.42 771.08,-351 783.1,-337.89 794.05,-321.29 802.24,-307.44"></path>
<polygon fill="black" stroke="black" points="805.25,-309.22 807.19,-298.8 799.18,-305.74 805.25,-309.22"></polygon>
<text xml:space="preserve" text-anchor="middle" x="823.72" y="-327.2" font-family="Lato" font-size="14.00">:medium</text>
</g>
<!-- c2 -->
<g id="node#c2#consume-01" class="node">
<title>c2</title>
<polygon fill="white" stroke="black" points="979.58,-297 870.58,-297 870.58,-261 979.58,-261 979.58,-297"></polygon>
<text xml:space="preserve" text-anchor="middle" x="925.08" y="-273.2" font-family="Lato" font-size="14.00">c2/consume-01</text>
</g>
<!-- p5&#45;&gt;c2 -->
<g id="edge#p5#c2#:ARG0-of" class="edge">
<title>p5-&gt;c2</title>
<path fill="none" stroke="#ff7900" d="M881.43,-368.97C889.57,-352.38 902.08,-326.88 911.62,-307.43"></path>
<polygon fill="#ff7900" stroke="#ff7900" points="914.64,-309.22 915.9,-298.7 908.36,-306.14 914.64,-309.22"></polygon>
<text xml:space="preserve" text-anchor="middle" x="935.27" y="-327.2" font-family="Lato" font-size="14.00" fill="#ff7900">:ARG0-of</text>
</g>
<!-- o -->
<g id="node#o#own-01" class="node">
<title>o</title>
<polygon fill="white" stroke="black" points="826.83,-210 755.33,-210 755.33,-174 826.83,-174 826.83,-210"></polygon>
<text xml:space="preserve" text-anchor="middle" x="791.08" y="-186.2" font-family="Lato" font-size="14.00">o/own-01</text>
</g>
<!-- p4&#45;&gt;o -->
<g id="edge#p4#o#:ARG0-of" class="edge">
<title>p4-&gt;o</title>
<path fill="none" stroke="#ff7900" d="M739.23,-260.8C748.33,-248.9 760.62,-232.83 770.95,-219.32"></path>
<polygon fill="#ff7900" stroke="#ff7900" points="773.5,-221.74 776.8,-211.67 767.94,-217.49 773.5,-221.74"></polygon>
<text xml:space="preserve" text-anchor="middle" x="790.97" y="-229.7" font-family="Lato" font-size="14.00" fill="#ff7900">:ARG0-of</text>
</g>
<!-- s6 -->
<g id="node#s6#shop" class="node">
<title>s6</title>
<polygon fill="white" stroke="black" points="822.7,-123 759.45,-123 759.45,-87 822.7,-87 822.7,-123"></polygon>
<text xml:space="preserve" text-anchor="middle" x="791.08" y="-99.2" font-family="Lato" font-size="14.00">s6/shop</text>
</g>
<!-- o&#45;&gt;s6 -->
<g id="edge#o#s6#:ARG1" class="edge">
<title>o-&gt;s6</title>
<path fill="none" stroke="#9164cd" d="M791.08,-173.8C791.08,-162.58 791.08,-147.67 791.08,-134.69"></path>
<polygon fill="#9164cd" stroke="#9164cd" points="794.58,-134.98 791.08,-124.98 787.58,-134.98 794.58,-134.98"></polygon>
<text xml:space="preserve" text-anchor="middle" x="811.7" y="-142.7" font-family="Lato" font-size="14.00" fill="#9164cd">:ARG1</text>
</g>
</g>
</svg>
